<?xml version="1.0" encoding="utf-8"?>
<!-- Generator: Adobe Illustrator 18.1.0, SVG Export Plug-In . SVG Version: 6.00 Build 0)  -->
<svg version="1.1" id="Layer_1" xmlns="http://www.w3.org/2000/svg" xmlns:xlink="http://www.w3.org/1999/xlink" x="0px" y="0px"
	 viewBox="0 0 16 16" enable-background="new 0 0 16 16" xml:space="preserve">
<path fill="none" d="M8.7,15.7C8.7,15.7,8.7,15.7,8.7,15.7l7-7c0.4-0.4,0.4-1,0-1.4c-0.4-0.4-1-0.4-1.4,0L9,12.6V1c0-0.6-0.4-1-1-1
	S7,0.5,7,1v11.6L1.7,7.3c-0.4-0.4-1-0.4-1.4,0c-0.4,0.4-0.4,1,0,1.4l7,7c0,0,0,0,0,0.1c0,0,0.1,0,0.1,0.1c0.1,0.1,0.2,0.1,0.3,0.2
	c0,0,0.1,0,0.1,0C8.2,16,8.5,15.9,8.7,15.7z"/>
</svg>
