<?xml version="1.0" encoding="utf-8"?>
<!-- Generator: Adobe Illustrator 18.1.0, SVG Export Plug-In . SVG Version: 6.00 Build 0)  -->
<svg version="1.1" id="Layer_1" xmlns="http://www.w3.org/2000/svg" xmlns:xlink="http://www.w3.org/1999/xlink" x="0px" y="0px"
	 viewBox="0 0 1000 1000" enable-background="new 0 0 1000 1000" xml:space="preserve">
<path fill="none" d="M500,989.3L500,989.3c-30.3,0-55-24.8-55-55V56c0-30.2,24.8-55,55-55h0c30.2,0,55,24.7,55,55v878.3
	C555,964.5,530.3,989.3,500,989.3z"/>
<path fill="none" d="M538.1,981L538.1,981c-21.4,21.4-56.4,21.4-77.8,0L18,538.7c-21.4-21.4-21.4-56.4,0-77.8l0,0
	c21.4-21.4,56.4-21.4,77.8,0l442.3,442.3C559.5,924.6,559.5,959.6,538.1,981z"/>
<path fill="none" d="M461,982L461,982c21.4,21.4,56.4,21.4,77.8,0l443.3-443.3c21.4-21.4,21.4-56.4,0-77.8l0,0
	c-21.4-21.4-56.4-21.4-77.8,0L461,904.2C439.7,925.6,439.7,960.6,461,982z"/>
</svg>
