<?xml version="1.0" encoding="utf-8"?>
<!-- Generator: Adobe Illustrator 18.1.0, SVG Export Plug-In . SVG Version: 6.00 Build 0)  -->
<svg version="1.1" id="Layer_1" xmlns="http://www.w3.org/2000/svg" xmlns:xlink="http://www.w3.org/1999/xlink" x="0px" y="0px"
	 viewBox="0 0 16 16" enable-background="new 0 0 16 16" xml:space="preserve">
<path fill="none" d="M0.3,8.7C0.3,8.7,0.3,8.7,0.3,8.7l7,7c0.4,0.4,1,0.4,1.4,0c0.4-0.4,0.4-1,0-1.4L3.4,9H15c0.6,0,1-0.4,1-1
	s-0.4-1-1-1H3.4l5.3-5.3c0.4-0.4,0.4-1,0-1.4c-0.4-0.4-1-0.4-1.4,0l-7,7c0,0,0,0-0.1,0c0,0,0,0.1-0.1,0.1C0.1,7.5,0.1,7.6,0,7.7
	c0,0,0,0.1,0,0.1C0,8.2,0,8.5,0.3,8.7z"/>
</svg>
