<?xml version="1.0" encoding="utf-8"?>
<!-- Generator: Adobe Illustrator 18.1.0, SVG Export Plug-In . SVG Version: 6.00 Build 0)  -->
<svg version="1.1" id="Layer_1" xmlns="http://www.w3.org/2000/svg" xmlns:xlink="http://www.w3.org/1999/xlink" x="0px" y="0px"
	 viewBox="0 0 1000 1000" enable-background="new 0 0 1000 1000" xml:space="preserve">
<path fill="none" d="M10.3,499.4L10.3,499.4c0-30.3,24.7-55,55-55h878.3c30.2,0,55,24.8,55,55v0c0,30.2-24.7,55-55,55H65.3
	C35,554.4,10.3,529.7,10.3,499.4z"/>
<path fill="none" d="M18.6,537.5L18.6,537.5c-21.4-21.4-21.4-56.4,0-77.8L460.9,17.5c21.4-21.4,56.4-21.4,77.8,0l0,0
	c21.4,21.4,21.4,56.4,0,77.8L96.4,537.5C75,558.9,40,558.9,18.6,537.5z"/>
<path fill="none" d="M17.6,460.5L17.6,460.5c-21.4,21.4-21.4,56.4,0,77.8l443.3,443.3c21.4,21.4,56.4,21.4,77.8,0l0,0
	c21.4-21.4,21.4-56.4,0-77.8L95.4,460.5C74,439.1,39,439.1,17.6,460.5z"/>
</svg>
