<?xml version="1.0" encoding="utf-8"?>
<!-- Generator: Adobe Illustrator 18.1.0, SVG Export Plug-In . SVG Version: 6.00 Build 0)  -->
<svg version="1.1" id="Layer_1" xmlns="http://www.w3.org/2000/svg" xmlns:xlink="http://www.w3.org/1999/xlink" x="0px" y="0px"
	 viewBox="0 0 1600 1600" enable-background="new 0 0 1600 1600" xml:space="preserve">
<path d="M871,1572c1.9-1.9,2.6-4.5,4.5-6.8l695.4-695.4c38.7-38.7,38.7-101.8,0-140.4c-38.7-38.7-101.8-38.7-140.4,0l-530.6,531
	V100.5c0-55.2-44.7-99.9-99.9-99.9s-99.9,44.7-99.9,99.9v1159.9L169.5,729.8c-38.7-38.7-101.8-38.7-140.4,0
	c-38.7,38.7-38.7,101.8,0,140.4l695.8,695.4c1.9,1.9,2.3,4.5,4.1,6.4c3,3,7.5,3,10.9,5.6c10.5,8.6,22.2,14.6,34.5,18
	c4.9,1.1,9,2.3,13.9,2.6C817.3,1602.5,848.4,1595,871,1572z"/>
</svg>
