<?xml version="1.0" encoding="utf-8"?>
<!-- Generator: Adobe Illustrator 18.1.0, SVG Export Plug-In . SVG Version: 6.00 Build 0)  -->
<svg version="1.1" id="Layer_1" xmlns="http://www.w3.org/2000/svg" xmlns:xlink="http://www.w3.org/1999/xlink" x="0px" y="0px"
	 viewBox="0 0 1000 737" enable-background="new 0 0 1000 737" xml:space="preserve">
<path fill="#431A94" d="M799.8,331.9h-604v-63.3c0-4.8,3.9-8.8,8.8-8.8h586.5c4.8,0,8.8,3.9,8.8,8.8V331.9z"/>
<circle fill="#FFFFFF" stroke="#FFFFFF" stroke-width="2.6667" stroke-miterlimit="10" cx="253" cy="294.7" r="8"/>
<circle fill="none" stroke="#431B94" stroke-width="4" stroke-miterlimit="10" cx="732.4" cy="663.6" r="20"/>
<line fill="none" stroke="#431B94" stroke-width="10" stroke-miterlimit="10" x1="245.9" y1="400.7" x2="435.8" y2="400.7"/>
<line fill="none" stroke="#431B94" stroke-width="4" stroke-miterlimit="10" x1="245.9" y1="481.8" x2="706" y2="481.8"/>
<line fill="none" stroke="#431B94" stroke-width="4" stroke-miterlimit="10" x1="245.9" y1="531.8" x2="636" y2="531.8"/>
<path fill="none" stroke="#431B94" stroke-width="4" stroke-miterlimit="10" d="M348,683.4h-80c-11,0-20-9-20-20v0c0-11,9-20,20-20
	h80c11,0,20,9,20,20v0C368,674.4,359,683.4,348,683.4z"/>
<circle fill="none" stroke="#431B94" stroke-width="4" stroke-miterlimit="10" cx="667.4" cy="663.6" r="20"/>
<circle fill="#FFFFFF" stroke="#FFFFFF" stroke-width="3" stroke-miterlimit="10" cx="293" cy="294.7" r="8"/>
<circle fill="none" stroke="#FFFFFF" stroke-width="3" stroke-miterlimit="10" cx="333" cy="294.7" r="8"/>
<circle fill="none" stroke="#FFFFFF" stroke-width="3" stroke-miterlimit="10" cx="373" cy="294.7" r="8"/>
<circle fill="none" stroke="#FFFFFF" stroke-width="3" stroke-miterlimit="10" cx="413.1" cy="294.7" r="8"/>
<g>
	<path fill="#431A94" d="M789.1,261c4.4,0,8,3.6,8,8v454c0,4.4-3.6,8-8,8h-584c-4.4,0-8-3.6-8-8V269c0-4.4,3.6-8,8-8H789.1
		 M789.1,257h-584c-6.6,0-12,5.4-12,12v454c0,6.6,5.4,12,12,12h584c6.6,0,12-5.4,12-12V269C801.1,262.4,795.7,257,789.1,257
		L789.1,257z"/>
</g>
</svg>
