<?xml version="1.0" encoding="utf-8"?>
<!-- Generator: Adobe Illustrator 18.1.0, SVG Export Plug-In . SVG Version: 6.00 Build 0)  -->
<svg version="1.1" id="Layer_1" xmlns="http://www.w3.org/2000/svg" xmlns:xlink="http://www.w3.org/1999/xlink" x="0px" y="0px"
	 viewBox="0 0 636 491" enable-background="new 0 0 636 491" xml:space="preserve">
<path fill="#462F8E" d="M625.8,94.9h-614V13.6c0-4.8,3.9-8.8,8.8-8.8H617c4.8,0,8.8,3.9,8.8,8.8V94.9z"/>
<circle fill="#FFFFFF" stroke="#FFFFFF" stroke-width="2.6667" stroke-miterlimit="10" cx="73.9" cy="49.6" r="8"/>
<circle fill="none" stroke="#462F8E" stroke-width="4" stroke-miterlimit="10" cx="543.3" cy="416.6" r="25"/>
<line fill="none" stroke="#462F8E" stroke-width="12" stroke-miterlimit="10" x1="66.9" y1="153.7" x2="256.7" y2="153.7"/>
<line fill="none" stroke="#462F8E" stroke-width="4" stroke-miterlimit="10" x1="66.9" y1="234.7" x2="526.9" y2="234.7"/>
<line fill="none" stroke="#462F8E" stroke-width="4" stroke-miterlimit="10" x1="66.9" y1="284.8" x2="456.9" y2="284.8"/>
<path fill="none" stroke="#462F8E" stroke-width="4" stroke-miterlimit="10" d="M173.9,441.4h-80c-13.7,0-25-11.2-25-25v0
	c0-13.7,11.2-25,25-25h80c13.7,0,25,11.2,25,25v0C198.9,430.1,187.6,441.4,173.9,441.4z"/>
<circle fill="none" stroke="#462F8E" stroke-width="4" stroke-miterlimit="10" cx="463.3" cy="416.6" r="25"/>
<circle fill="#FFFFFF" stroke="#FFFFFF" stroke-width="3" stroke-miterlimit="10" cx="113.9" cy="49.6" r="8"/>
<circle fill="none" stroke="#FFFFFF" stroke-width="3" stroke-miterlimit="10" cx="153.9" cy="49.6" r="8"/>
<circle fill="none" stroke="#FFFFFF" stroke-width="3" stroke-miterlimit="10" cx="194" cy="49.6" r="8"/>
<circle fill="none" stroke="#FFFFFF" stroke-width="3" stroke-miterlimit="10" cx="234" cy="49.6" r="8"/>
<g>
	<path fill="#462F8E" d="M615,6c4.4,0,8,3.6,8,8v462c0,4.4-3.6,8-8,8H21c-4.4,0-8-3.6-8-8V14c0-4.4,3.6-8,8-8H615 M615,2H21
		C14.4,2,9,7.4,9,14v462c0,6.6,5.4,12,12,12h594c6.6,0,12-5.4,12-12V14C627,7.4,621.6,2,615,2L615,2z"/>
</g>
<g>
	<line fill="none" stroke="#462F8E" stroke-width="4" stroke-miterlimit="10" x1="-484.6" y1="167" x2="-484.6" y2="252"/>
	<path fill="none" stroke="#462F8E" stroke-width="4" stroke-linecap="round" stroke-linejoin="round" stroke-miterlimit="10" d="
		M-287.3,321.4v-67.9l0,0c0-1.1-0.9-1.9-1.9-1.9h-396.4c-1.1,0-1.9,0.9-1.9,1.9l0,0v67.9"/>
	<g>
		<g>
			<path fill="#462F8E" d="M-380.8,3.7c2.2,0,4,1.8,4,4v151.8c0,2.2-1.8,4-4,4h-211.7c-2.2,0-4-1.8-4-4V7.7c0-2.2,1.8-4,4-4H-380.8
				 M-380.8-0.3h-211.7c-4.4,0-8,3.6-8,8v151.8c0,4.4,3.6,8,8,8h211.7c4.4,0,8-3.6,8-8V7.7C-372.8,3.3-376.3-0.3-380.8-0.3
				L-380.8-0.3z"/>
		</g>
		<path fill="#462F8E" d="M-375.6,32h-223V7.3c0-3,2.4-5.3,5.3-5.3H-381c3,0,5.3,2.4,5.3,5.3V32z"/>
		<line fill="none" stroke="#462F8E" stroke-width="6" stroke-miterlimit="10" x1="-574.2" y1="59.1" x2="-494.4" y2="59.1"/>
		<line fill="none" stroke="#462F8E" stroke-width="3" stroke-miterlimit="10" x1="-574.2" y1="84.1" x2="-424.4" y2="84.1"/>
		<circle fill="none" stroke="#462F8E" stroke-width="3" stroke-miterlimit="10" cx="-409.1" cy="132.8" r="10"/>
		<path fill="none" stroke="#462F8E" stroke-width="3" stroke-miterlimit="10" d="M-538.3,142.8h-25c-5.5,0-10-4.5-10-10v0
			c0-5.5,4.5-10,10-10h25c5.5,0,10,4.5,10,10v0C-528.3,138.3-532.8,142.8-538.3,142.8z"/>
	</g>
	<g>
		<g>
			<path fill="#462F8E" d="M-580.9,324c2.2,0,4,1.8,4,4v151.8c0,2.2-1.8,4-4,4h-211.7c-2.2,0-4-1.8-4-4V328c0-2.2,1.8-4,4-4H-580.9
				 M-580.9,320h-211.7c-4.4,0-8,3.6-8,8v151.8c0,4.4,3.6,8,8,8h211.7c4.4,0,8-3.6,8-8V328C-572.9,323.6-576.5,320-580.9,320
				L-580.9,320z"/>
		</g>
		<path fill="#462F8E" d="M-575.8,352.3h-222v-24.7c0-3,2.4-5.3,5.3-5.3h211.3c3,0,5.3,2.4,5.3,5.3V352.3z"/>
		<line fill="none" stroke="#462F8E" stroke-width="6" stroke-miterlimit="10" x1="-774.4" y1="379.4" x2="-694.6" y2="379.4"/>
		<line fill="none" stroke="#462F8E" stroke-width="3" stroke-miterlimit="10" x1="-774.4" y1="404.4" x2="-624.5" y2="404.4"/>
		<circle fill="none" stroke="#462F8E" stroke-width="3" stroke-miterlimit="10" cx="-609.3" cy="453" r="10"/>
		<path fill="none" stroke="#462F8E" stroke-width="3" stroke-miterlimit="10" d="M-738.4,463h-25c-5.5,0-10-4.5-10-10v0
			c0-5.5,4.5-10,10-10h25c5.5,0,10,4.5,10,10v0C-728.4,458.5-732.9,463-738.4,463z"/>
	</g>
	<g>
		<g>
			<path fill="#462F8E" d="M-180.6,324c2.2,0,4,1.8,4,4v151.8c0,2.2-1.8,4-4,4h-211.7c-2.2,0-4-1.8-4-4V328c0-2.2,1.8-4,4-4H-180.6
				 M-180.6,320h-211.7c-4.4,0-8,3.6-8,8v151.8c0,4.4,3.6,8,8,8h211.7c4.4,0,8-3.6,8-8V328C-172.6,323.6-176.2,320-180.6,320
				L-180.6,320z"/>
		</g>
		<path fill="#462F8E" d="M-175.5,352.3h-222v-24.7c0-3,2.4-5.3,5.3-5.3h211.3c3,0,5.3,2.4,5.3,5.3V352.3z"/>
		<line fill="none" stroke="#462F8E" stroke-width="6" stroke-miterlimit="10" x1="-374.1" y1="379.4" x2="-294.3" y2="379.4"/>
		<line fill="none" stroke="#462F8E" stroke-width="3" stroke-miterlimit="10" x1="-374.1" y1="404.4" x2="-224.2" y2="404.4"/>
		<circle fill="none" stroke="#462F8E" stroke-width="3" stroke-miterlimit="10" cx="-209" cy="453" r="10"/>
		<path fill="none" stroke="#462F8E" stroke-width="3" stroke-miterlimit="10" d="M-338.1,463h-25c-5.5,0-10-4.5-10-10v0
			c0-5.5,4.5-10,10-10h25c5.5,0,10,4.5,10,10v0C-328.1,458.5-332.6,463-338.1,463z"/>
	</g>
</g>
<g>
	<g>
		<path fill="#462F8E" d="M1395.8,325.3c2.2,0,4,1.8,4,4V481c0,2.2-1.8,4-4,4h-211.7c-2.2,0-4-1.8-4-4V329.3c0-2.2,1.8-4,4-4H1395.8
			 M1395.8,321.3h-211.7c-4.4,0-8,3.6-8,8V481c0,4.4,3.6,8,8,8h211.7c4.4,0,8-3.6,8-8V329.3C1403.8,324.8,1400.2,321.3,1395.8,321.3
			L1395.8,321.3z"/>
	</g>
	<path fill="#462F8E" d="M1401,353.5h-222v-24.7c0-3,2.4-5.3,5.3-5.3h211.3c3,0,5.3,2.4,5.3,5.3V353.5z"/>
	<line fill="none" stroke="#462F8E" stroke-width="6" stroke-miterlimit="10" x1="1202.4" y1="380.6" x2="1282.1" y2="380.6"/>
	<line fill="none" stroke="#462F8E" stroke-width="3" stroke-miterlimit="10" x1="1202.4" y1="405.7" x2="1352.2" y2="405.7"/>
	<circle fill="none" stroke="#462F8E" stroke-width="3" stroke-miterlimit="10" cx="1367.4" cy="454.3" r="10"/>
	<path fill="none" stroke="#462F8E" stroke-width="3" stroke-miterlimit="10" d="M1238.3,464.3h-25c-5.5,0-10-4.5-10-10v0
		c0-5.5,4.5-10,10-10h25c5.5,0,10,4.5,10,10v0C1248.3,459.8,1243.8,464.3,1238.3,464.3z"/>
</g>
<g>
	<path fill="#462F8E" d="M1095.6,325.3c2.2,0,4,1.8,4,4V481c0,2.2-1.8,4-4,4H883.9c-2.2,0-4-1.8-4-4V329.3c0-2.2,1.8-4,4-4H1095.6
		 M1095.6,321.3H883.9c-4.4,0-8,3.6-8,8V481c0,4.4,3.6,8,8,8h211.7c4.4,0,8-3.6,8-8V329.3C1103.6,324.8,1100,321.3,1095.6,321.3
		L1095.6,321.3z"/>
</g>
<path fill="#462F8E" d="M1100.7,353.5h-222v-24.7c0-3,2.4-5.3,5.3-5.3h211.3c3,0,5.3,2.4,5.3,5.3V353.5z"/>
<line fill="none" stroke="#462F8E" stroke-width="6" stroke-miterlimit="10" x1="902.1" y1="380.6" x2="981.9" y2="380.6"/>
<line fill="none" stroke="#462F8E" stroke-width="3" stroke-miterlimit="10" x1="902.1" y1="405.7" x2="1052" y2="405.7"/>
<circle fill="none" stroke="#462F8E" stroke-width="3" stroke-miterlimit="10" cx="1067.2" cy="454.3" r="10"/>
<path fill="none" stroke="#462F8E" stroke-width="3" stroke-miterlimit="10" d="M938.1,464.3h-25c-5.5,0-10-4.5-10-10v0
	c0-5.5,4.5-10,10-10h25c5.5,0,10,4.5,10,10v0C948.1,459.8,943.6,464.3,938.1,464.3z"/>
<line fill="none" stroke="#462F8E" stroke-width="8" stroke-miterlimit="10" x1="920.1" y1="48.4" x2="1130" y2="48.4"/>
<line fill="none" stroke="#462F8E" stroke-width="3" stroke-miterlimit="10" x1="920.1" y1="98.4" x2="1359.2" y2="98.4"/>
<g>
	<g>
		<path fill="#462F8E" d="M1395.8,5c2.2,0,4,1.8,4,4v241.8c0,2.2-1.8,4-4,4H883.9c-2.2,0-4-1.8-4-4V9c0-2.2,1.8-4,4-4H1395.8
			 M1395.8,1H883.9c-4.4,0-8,3.6-8,8v241.8c0,4.4,3.6,8,8,8h511.9c4.4,0,8-3.6,8-8V9C1403.8,4.6,1400.2,1,1395.8,1L1395.8,1z"/>
	</g>
</g>
<rect x="920.6" y="189.4" fill="#462F8E" width="70" height="25"/>
<line fill="none" stroke="#462F8E" stroke-width="3" stroke-miterlimit="10" x1="920.1" y1="143.4" x2="1359.2" y2="143.4"/>
<path fill="none" stroke="#462F8E" stroke-width="4" stroke-linecap="round" stroke-linejoin="round" stroke-miterlimit="10" d="
	M7.9-394.9"/>
<path fill="none" stroke="#462F8E" stroke-width="4" stroke-linecap="round" stroke-linejoin="round" stroke-miterlimit="10" d="
	M271.6-404.8H7.8"/>
<g>
	<g>
		<path fill="#462F8E" d="M425.8-644.6c2.2,0,4,1.8,4,4v151.8c0,2.2-1.8,4-4,4H214.1c-2.2,0-4-1.8-4-4v-151.8c0-2.2,1.8-4,4-4H425.8
			 M425.8-648.6H214.1c-4.4,0-8,3.6-8,8v151.8c0,4.4,3.6,8,8,8h211.7c4.4,0,8-3.6,8-8v-151.8C433.8-645,430.3-648.6,425.8-648.6
			L425.8-648.6z"/>
	</g>
	<path fill="#462F8E" d="M431-616.4H208V-641c0-3,2.4-5.3,5.3-5.3h212.3c3,0,5.3,2.4,5.3,5.3V-616.4z"/>
	<line fill="none" stroke="#462F8E" stroke-width="6" stroke-miterlimit="10" x1="232.4" y1="-589.3" x2="312.2" y2="-589.3"/>
	<line fill="none" stroke="#462F8E" stroke-width="3" stroke-miterlimit="10" x1="232.4" y1="-564.2" x2="382.2" y2="-564.2"/>
	<circle fill="none" stroke="#462F8E" stroke-width="3" stroke-miterlimit="10" cx="397.5" cy="-515.6" r="10"/>
	<path fill="none" stroke="#462F8E" stroke-width="3" stroke-miterlimit="10" d="M268.3-505.6h-25c-5.5,0-10-4.5-10-10l0,0
		c0-5.5,4.5-10,10-10h25c5.5,0,10,4.5,10,10l0,0C278.3-510.1,273.8-505.6,268.3-505.6z"/>
</g>
<g>
	<g>
		<path fill="#462F8E" d="M224.7-326.4c2.2,0,4,1.8,4,4v151.8c0,2.2-1.8,4-4,4H13c-2.2,0-4-1.8-4-4v-151.8c0-2.2,1.8-4,4-4H224.7
			 M224.7-330.4H13c-4.4,0-8,3.6-8,8v151.8c0,4.4,3.6,8,8,8h211.7c4.4,0,8-3.6,8-8v-151.8C232.7-326.8,229.1-330.4,224.7-330.4
			L224.7-330.4z"/>
	</g>
	<path fill="#462F8E" d="M229.8-298.1H7.8v-24.7c0-3,2.4-5.3,5.3-5.3h211.3c3,0,5.3,2.4,5.3,5.3V-298.1z"/>
	<line fill="none" stroke="#462F8E" stroke-width="6" stroke-miterlimit="10" x1="31.2" y1="-271" x2="111" y2="-271"/>
	<line fill="none" stroke="#462F8E" stroke-width="3" stroke-miterlimit="10" x1="31.2" y1="-246" x2="181.1" y2="-246"/>
	<circle fill="none" stroke="#462F8E" stroke-width="3" stroke-miterlimit="10" cx="196.3" cy="-197.4" r="10"/>
	<path fill="none" stroke="#462F8E" stroke-width="3" stroke-miterlimit="10" d="M67.2-187.4h-25c-5.5,0-10-4.5-10-10v0
		c0-5.5,4.5-10,10-10h25c5.5,0,10,4.5,10,10v0C77.2-191.9,72.7-187.4,67.2-187.4z"/>
</g>
<g>
	<g>
		<path fill="#462F8E" d="M624-326.4c2.2,0,4,1.8,4,4v151.8c0,2.2-1.8,4-4,4H412.3c-2.2,0-4-1.8-4-4v-151.8c0-2.2,1.8-4,4-4H624
			 M624-330.4H412.3c-4.4,0-8,3.6-8,8v151.8c0,4.4,3.6,8,8,8H624c4.4,0,8-3.6,8-8v-151.8C632-326.8,628.4-330.4,624-330.4L624-330.4
			z"/>
	</g>
	<path fill="#462F8E" d="M629.1-298.1h-222v-24.7c0-3,2.4-5.3,5.3-5.3h211.3c3,0,5.3,2.4,5.3,5.3V-298.1z"/>
	<line fill="none" stroke="#462F8E" stroke-width="6" stroke-miterlimit="10" x1="430.5" y1="-271" x2="510.3" y2="-271"/>
	<line fill="none" stroke="#462F8E" stroke-width="3" stroke-miterlimit="10" x1="430.5" y1="-246" x2="580.4" y2="-246"/>
	<circle fill="none" stroke="#462F8E" stroke-width="3" stroke-miterlimit="10" cx="595.6" cy="-197.4" r="10"/>
	<path fill="none" stroke="#462F8E" stroke-width="3" stroke-miterlimit="10" d="M466.5-187.4h-25c-5.5,0-10-4.5-10-10v0
		c0-5.5,4.5-10,10-10h25c5.5,0,10,4.5,10,10v0C476.5-191.9,472-187.4,466.5-187.4z"/>
</g>
<path fill="none" stroke="#462F8E" stroke-width="4" stroke-linecap="round" stroke-linejoin="round" stroke-miterlimit="10" d="
	M629.4-404.8H365.7"/>
<polyline fill="none" stroke="#462F8E" stroke-width="6" stroke-linecap="round" stroke-linejoin="round" stroke-miterlimit="10" points="
	333.9,-421.3 316.3,-400.3 307.3,-410.3 "/>
</svg>
