<?xml version="1.0" encoding="utf-8"?>
<!-- Generator: Adobe Illustrator 18.1.0, SVG Export Plug-In . SVG Version: 6.00 Build 0)  -->
<svg version="1.1" id="Layer_1" xmlns="http://www.w3.org/2000/svg" xmlns:xlink="http://www.w3.org/1999/xlink" x="0px" y="0px"
	 viewBox="0 0 636 491" enable-background="new 0 0 636 491" xml:space="preserve">
<path fill="#462F8E" d="M625.8,95.9h-614V14.7c0-4.8,3.9-8.8,8.8-8.8H617c4.8,0,8.8,3.9,8.8,8.8V95.9z"/>
<circle fill="#FFFFFF" stroke="#FFFFFF" stroke-width="2.6667" stroke-miterlimit="10" cx="73.9" cy="50.7" r="8"/>
<circle fill="none" stroke="#4ECFBC" stroke-width="4" stroke-miterlimit="10" cx="543.3" cy="417.6" r="25"/>
<line fill="none" stroke="#462F8E" stroke-width="12" stroke-miterlimit="10" x1="66.9" y1="154.7" x2="256.7" y2="154.7"/>
<line fill="none" stroke="#462F8E" stroke-width="4" stroke-miterlimit="10" x1="66.9" y1="235.8" x2="526.9" y2="235.8"/>
<line fill="none" stroke="#462F8E" stroke-width="4" stroke-miterlimit="10" x1="66.9" y1="285.9" x2="456.9" y2="285.9"/>
<path fill="none" stroke="#462F8E" stroke-width="4" stroke-miterlimit="10" d="M173.9,442.5h-80c-13.7,0-25-11.2-25-25v0
	c0-13.7,11.2-25,25-25h80c13.7,0,25,11.2,25,25v0C198.9,431.2,187.6,442.5,173.9,442.5z"/>
<circle fill="none" stroke="#4ECFBC" stroke-width="4" stroke-miterlimit="10" cx="463.3" cy="417.6" r="25"/>
<circle fill="#FFFFFF" stroke="#FFFFFF" stroke-width="3" stroke-miterlimit="10" cx="113.9" cy="50.7" r="8"/>
<circle fill="none" stroke="#FFFFFF" stroke-width="3" stroke-miterlimit="10" cx="153.9" cy="50.7" r="8"/>
<circle fill="none" stroke="#FFFFFF" stroke-width="3" stroke-miterlimit="10" cx="194" cy="50.7" r="8"/>
<circle fill="none" stroke="#FFFFFF" stroke-width="3" stroke-miterlimit="10" cx="234" cy="50.7" r="8"/>
<g>
	<path fill="#462F8E" d="M615,7.1c4.4,0,8,3.6,8,8v462c0,4.4-3.6,8-8,8H21c-4.4,0-8-3.6-8-8v-462c0-4.4,3.6-8,8-8H615 M615,3.1H21
		c-6.6,0-12,5.4-12,12v462c0,6.6,5.4,12,12,12h594c6.6,0,12-5.4,12-12v-462C627,8.5,621.6,3.1,615,3.1L615,3.1z"/>
</g>
</svg>
