<?xml version="1.0" encoding="utf-8"?>
<!-- Generator: Adobe Illustrator 18.1.0, SVG Export Plug-In . SVG Version: 6.00 Build 0)  -->
<svg version="1.1" id="Layer_1" xmlns="http://www.w3.org/2000/svg" xmlns:xlink="http://www.w3.org/1999/xlink" x="0px" y="0px"
	 viewBox="0 0 1000 737" enable-background="new 0 0 1000 737" xml:space="preserve">
<g>
	<g>
		<path fill="#431A94" d="M794,250c2.2,0,4,1.8,4,4v472c0,2.2-1.8,4-4,4H202c-2.2,0-4-1.8-4-4V254c0-2.2,1.8-4,4-4H794 M794,245H202
			c-5,0-9,4-9,9v472c0,5,4,9,9,9h592c5,0,9-4,9-9V254C803,249,799,245,794,245L794,245z"/>
	</g>
	<line fill="none" stroke="#431A94" stroke-width="5" stroke-miterlimit="10" x1="198" y1="302" x2="798" y2="302"/>
	
		<circle fill="none" stroke="#431A94" stroke-width="3" stroke-linejoin="round" stroke-miterlimit="10" cx="233.7" cy="274.8" r="5"/>
	
		<circle fill="none" stroke="#431A94" stroke-width="3" stroke-linejoin="round" stroke-miterlimit="10" cx="263.7" cy="274.8" r="5"/>
	
		<circle fill="none" stroke="#431A94" stroke-width="3" stroke-linejoin="round" stroke-miterlimit="10" cx="293.7" cy="274.8" r="5"/>
	<line fill="none" stroke="#431A94" stroke-width="5" stroke-miterlimit="10" x1="363.2" y1="352" x2="412.7" y2="352"/>
	<line fill="none" stroke="#431A94" stroke-width="5" stroke-miterlimit="10" x1="363.2" y1="382.1" x2="492.8" y2="382.1"/>
	<line fill="none" stroke="#431A94" stroke-width="5" stroke-miterlimit="10" x1="363.2" y1="412.1" x2="462.8" y2="412.1"/>
	<line fill="none" stroke="#431A94" stroke-width="5" stroke-miterlimit="10" x1="227" y1="382.1" x2="256.6" y2="382.1"/>
	<line fill="none" stroke="#431A94" stroke-width="5" stroke-miterlimit="10" x1="227" y1="412.1" x2="246.6" y2="412.1"/>
	<line fill="none" stroke="#431A94" stroke-width="5" stroke-miterlimit="10" x1="227" y1="352" x2="266.6" y2="352"/>
	<line fill="none" stroke="#431A94" stroke-width="5" stroke-miterlimit="10" x1="363.2" y1="472.1" x2="432.7" y2="472.1"/>
	<line fill="none" stroke="#431A94" stroke-width="5" stroke-miterlimit="10" x1="363.2" y1="502.2" x2="462.8" y2="502.2"/>
	<line fill="none" stroke="#431A94" stroke-width="5" stroke-miterlimit="10" x1="363.2" y1="562.2" x2="432.7" y2="562.2"/>
	<line fill="none" stroke="#431A94" stroke-width="5" stroke-miterlimit="10" x1="363.2" y1="592.2" x2="452.7" y2="592.2"/>
	<line fill="none" stroke="#431A94" stroke-width="5" stroke-miterlimit="10" x1="363.2" y1="622.3" x2="412.7" y2="622.3"/>
	<line fill="none" stroke="#431A94" stroke-width="5" stroke-miterlimit="10" x1="363.2" y1="532.2" x2="432.7" y2="532.2"/>
	
		<line fill="none" stroke="#431A94" stroke-width="5" stroke-linecap="square" stroke-miterlimit="10" x1="301.7" y1="301.8" x2="301.7" y2="728"/>
</g>
</svg>
