<?xml version="1.0" encoding="UTF-8" standalone="no"?>
<svg width="200px" height="200px" viewBox="0 0 200 200" version="1.1" xmlns="http://www.w3.org/2000/svg" xmlns:xlink="http://www.w3.org/1999/xlink" xmlns:sketch="http://www.bohemiancoding.com/sketch/ns">
    <!-- Generator: Sketch 3.5.2 (25235) - http://www.bohemiancoding.com/sketch -->
    <title>code</title>
    <desc>Created with Sketch.</desc>
    <defs>
        <path id="path-1" d="M0,0 L148,0 L148,120 L0,120"></path>
    </defs>
    <g id="Design" stroke="none" stroke-width="1" fill="none" fill-rule="evenodd" sketch:type="MSPage">
        <g id="code" sketch:type="MSArtboardGroup">
            <g id="Group-4" sketch:type="MSLayerGroup" transform="translate(26.000000, 80.000000)">
                <g id="Page-1">
                    <g id="Group-3">
                        <mask id="mask-2" sketch:name="Clip 2" fill="white">
                            <use xlink:href="#path-1"></use>
                        </mask>
                        <g id="Clip-2"></g>
                        <rect id="Rectangle-43" stroke="#000000" sketch:type="MSShapeGroup" x="0" y="0" width="148" height="119" rx="2"></rect>
                    </g>
                    <path d="M0,13 L148,13" id="Stroke-4" stroke="#000000" sketch:type="MSShapeGroup"></path>
                    <path d="M8.66173933,5.95030514 C9.2146805,5.95030514 9.66173933,6.39812483 9.66173933,6.94981518 C9.66173933,7.50248544 9.2146805,7.95030514 8.66173933,7.95030514 C8.10879815,7.95030514 7.66173933,7.50248544 7.66173933,6.94981518 C7.66173933,6.39812483 8.10879815,5.95030514 8.66173933,5.95030514 L8.66173933,5.95030514 Z" id="Stroke-6" stroke="#000000" stroke-width="0.6" stroke-linejoin="round" sketch:type="MSShapeGroup"></path>
                    <path d="M15.9401872,5.95030514 C16.4931284,5.95030514 16.9401872,6.39812483 16.9401872,6.94981518 C16.9401872,7.50248544 16.4931284,7.95030514 15.9401872,7.95030514 C15.387246,7.95030514 14.9401872,7.50248544 14.9401872,6.94981518 C14.9401872,6.39812483 15.387246,5.95030514 15.9401872,5.95030514 L15.9401872,5.95030514 Z" id="Stroke-8" stroke="#000000" stroke-width="0.6" stroke-linejoin="round" sketch:type="MSShapeGroup"></path>
                    <path d="M23.2185162,5.95030514 C23.7714574,5.95030514 24.2185162,6.39812483 24.2185162,6.94981518 C24.2185162,7.50248544 23.7714574,7.95030514 23.2185162,7.95030514 C22.665575,7.95030514 22.2185162,7.50248544 22.2185162,6.94981518 C22.2185162,6.39812483 22.665575,5.95030514 23.2185162,5.95030514 L23.2185162,5.95030514 Z" id="Stroke-10" stroke="#000000" stroke-width="0.6" stroke-linejoin="round" sketch:type="MSShapeGroup"></path>
                    <path d="M41,25 L53,25" id="Stroke-12" stroke="#000000" sketch:type="MSShapeGroup"></path>
                    <path d="M41,32 L73,32" id="Stroke-14" stroke="#000000" sketch:type="MSShapeGroup"></path>
                    <path d="M41,39 L65,39" id="Stroke-16" stroke="#000000" sketch:type="MSShapeGroup"></path>
                    <path d="M7,32 L15,32" id="Stroke-18" stroke="#000000" sketch:type="MSShapeGroup"></path>
                    <path d="M7,39 L13,39" id="Stroke-20" stroke="#000000" sketch:type="MSShapeGroup"></path>
                    <path d="M7,25 L18,25" id="Stroke-22" stroke="#000000" sketch:type="MSShapeGroup"></path>
                    <path d="M41,55 L58,55" id="Stroke-24" stroke="#000000" sketch:type="MSShapeGroup"></path>
                    <path d="M41,62 L66,62" id="Stroke-26" stroke="#000000" sketch:type="MSShapeGroup"></path>
                    <path d="M41,76 L58,76" id="Stroke-28" stroke="#000000" sketch:type="MSShapeGroup"></path>
                    <path d="M41,83 L63.0062154,83" id="Stroke-30" stroke="#000000" sketch:type="MSShapeGroup"></path>
                    <path d="M41,90 L53,90" id="Stroke-32" stroke="#000000" sketch:type="MSShapeGroup"></path>
                    <path d="M41,69 L58,69" id="Stroke-34" stroke="#000000" sketch:type="MSShapeGroup"></path>
                    <path d="M25,13 L25,118" id="Stroke-36" stroke="#000000" stroke-linecap="square" sketch:type="MSShapeGroup"></path>
                </g>
            </g>
        </g>
    </g>
</svg>
