<?xml version="1.0" encoding="utf-8"?>
<!-- Generator: Adobe Illustrator 18.1.0, SVG Export Plug-In . SVG Version: 6.00 Build 0)  -->
<svg version="1.1" id="Layer_1" xmlns="http://www.w3.org/2000/svg" xmlns:xlink="http://www.w3.org/1999/xlink" x="0px" y="0px"
	 viewBox="0 0 1000 737" enable-background="new 0 0 1000 737" xml:space="preserve">
<rect x="-121.7" y="-1440.1" fill="none" stroke="#431A94" stroke-width="5" stroke-miterlimit="10" width="600" height="480"/>
<line fill="none" stroke="#431A94" stroke-width="5" stroke-miterlimit="10" x1="-121.7" y1="-1388.1" x2="478.3" y2="-1388.1"/>
<circle fill="none" stroke="#431A94" stroke-width="3" stroke-miterlimit="10" cx="-78" cy="-1415.3" r="5"/>
<circle fill="none" stroke="#431A94" stroke-width="3" stroke-miterlimit="10" cx="-48" cy="-1415.3" r="5"/>
<circle fill="none" stroke="#431A94" stroke-width="3" stroke-miterlimit="10" cx="-18" cy="-1415.3" r="5"/>
<line fill="none" stroke="#431A94" stroke-width="5" stroke-miterlimit="10" x1="-17.6" y1="-1338.1" x2="31.9" y2="-1338.1"/>
<line fill="none" stroke="#431A94" stroke-width="5" stroke-miterlimit="10" x1="-17.6" y1="-1308" x2="112" y2="-1308"/>
<line fill="none" stroke="#431A94" stroke-width="5" stroke-miterlimit="10" x1="-17.6" y1="-1278" x2="82" y2="-1278"/>
<line fill="none" stroke="#431A94" stroke-width="5" stroke-miterlimit="10" x1="-81.7" y1="-1248" x2="-72.2" y2="-1248"/>
<line fill="none" stroke="#431A94" stroke-width="5" stroke-miterlimit="10" x1="-81.7" y1="-1308" x2="-72.2" y2="-1308"/>
<line fill="none" stroke="#431A94" stroke-width="5" stroke-miterlimit="10" x1="-81.7" y1="-1278" x2="-72.2" y2="-1278"/>
<line fill="none" stroke="#431A94" stroke-width="5" stroke-miterlimit="10" x1="-81.7" y1="-1157.9" x2="-72.2" y2="-1157.9"/>
<line fill="none" stroke="#431A94" stroke-width="5" stroke-miterlimit="10" x1="-81.7" y1="-1218" x2="-72.2" y2="-1218"/>
<line fill="none" stroke="#431A94" stroke-width="5" stroke-miterlimit="10" x1="-81.7" y1="-1187.9" x2="-72.2" y2="-1187.9"/>
<line fill="none" stroke="#431A94" stroke-width="5" stroke-miterlimit="10" x1="-81.7" y1="-1338.1" x2="-72.2" y2="-1338.1"/>
<line fill="none" stroke="#431A94" stroke-width="5" stroke-miterlimit="10" x1="-81.7" y1="-1127.9" x2="-72.2" y2="-1127.9"/>
<line fill="none" stroke="#431A94" stroke-width="5" stroke-miterlimit="10" x1="-81.7" y1="-1097.9" x2="-72.2" y2="-1097.9"/>
<line fill="none" stroke="#431A94" stroke-width="5" stroke-miterlimit="10" x1="-81.7" y1="-1067.8" x2="-72.2" y2="-1067.8"/>
<line fill="none" stroke="#431A94" stroke-width="5" stroke-miterlimit="10" x1="-17.6" y1="-1218" x2="51.9" y2="-1218"/>
<line fill="none" stroke="#431A94" stroke-width="5" stroke-miterlimit="10" x1="-17.6" y1="-1187.9" x2="82" y2="-1187.9"/>
<line fill="none" stroke="#431A94" stroke-width="5" stroke-miterlimit="10" x1="-17.6" y1="-1127.9" x2="51.9" y2="-1127.9"/>
<line fill="none" stroke="#431A94" stroke-width="5" stroke-miterlimit="10" x1="-17.6" y1="-1097.9" x2="72" y2="-1097.9"/>
<line fill="none" stroke="#431A94" stroke-width="5" stroke-miterlimit="10" x1="-81.7" y1="-1037.8" x2="-72.2" y2="-1037.8"/>
<line fill="none" stroke="#431A94" stroke-width="5" stroke-miterlimit="10" x1="-81.7" y1="-1007.8" x2="-72.2" y2="-1007.8"/>
<line fill="none" stroke="#431A94" stroke-width="5" stroke-miterlimit="10" x1="-17.6" y1="-1067.8" x2="31.9" y2="-1067.8"/>
<line fill="none" stroke="#431A94" stroke-width="5" stroke-miterlimit="10" x1="179" y1="-1386.3" x2="179" y2="-960.1"/>
<line fill="none" stroke="#431A94" stroke-width="5" stroke-miterlimit="10" x1="287.6" y1="-1127.9" x2="387.2" y2="-1127.9"/>
<line fill="none" stroke="#431A94" stroke-width="5" stroke-miterlimit="10" x1="223.6" y1="-1248" x2="233.1" y2="-1248"/>
<line fill="none" stroke="#431A94" stroke-width="5" stroke-miterlimit="10" x1="223.6" y1="-1308" x2="233.1" y2="-1308"/>
<line fill="none" stroke="#431A94" stroke-width="5" stroke-miterlimit="10" x1="223.6" y1="-1278" x2="233.1" y2="-1278"/>
<line fill="none" stroke="#431A94" stroke-width="5" stroke-miterlimit="10" x1="223.6" y1="-1157.9" x2="233.1" y2="-1157.9"/>
<line fill="none" stroke="#431A94" stroke-width="5" stroke-miterlimit="10" x1="223.6" y1="-1218" x2="233.1" y2="-1218"/>
<line fill="none" stroke="#431A94" stroke-width="5" stroke-miterlimit="10" x1="223.6" y1="-1187.9" x2="233.1" y2="-1187.9"/>
<line fill="none" stroke="#431A94" stroke-width="5" stroke-miterlimit="10" x1="223.6" y1="-1338.1" x2="233.1" y2="-1338.1"/>
<line fill="none" stroke="#431A94" stroke-width="5" stroke-miterlimit="10" x1="223.6" y1="-1127.9" x2="233.1" y2="-1127.9"/>
<line fill="none" stroke="#431A94" stroke-width="5" stroke-miterlimit="10" x1="223.6" y1="-1097.9" x2="233.1" y2="-1097.9"/>
<line fill="none" stroke="#431A94" stroke-width="5" stroke-miterlimit="10" x1="223.6" y1="-1067.8" x2="233.1" y2="-1067.8"/>
<line fill="none" stroke="#431A94" stroke-width="5" stroke-miterlimit="10" x1="287.6" y1="-1187.9" x2="357.2" y2="-1187.9"/>
<line fill="none" stroke="#431A94" stroke-width="5" stroke-miterlimit="10" x1="287.6" y1="-1218" x2="387.2" y2="-1218"/>
<line fill="none" stroke="#431A94" stroke-width="5" stroke-miterlimit="10" x1="287.6" y1="-1278" x2="337.2" y2="-1278"/>
<line fill="none" stroke="#431A94" stroke-width="5" stroke-miterlimit="10" x1="287.6" y1="-1308" x2="377.2" y2="-1308"/>
<line fill="none" stroke="#431A94" stroke-width="5" stroke-miterlimit="10" x1="223.6" y1="-1037.8" x2="233.1" y2="-1037.8"/>
<line fill="none" stroke="#431A94" stroke-width="5" stroke-miterlimit="10" x1="223.6" y1="-1007.8" x2="233.1" y2="-1007.8"/>
<line fill="none" stroke="#431A94" stroke-width="5" stroke-miterlimit="10" x1="287.6" y1="-1338.1" x2="357.2" y2="-1338.1"/>
<rect x="579.1" y="-1440.1" fill="none" stroke="#431A94" stroke-width="5" stroke-miterlimit="10" width="600" height="480"/>
<line fill="none" stroke="#431A94" stroke-width="5" stroke-miterlimit="10" x1="579.1" y1="-1388.1" x2="1179.1" y2="-1388.1"/>
<circle fill="none" stroke="#431A94" stroke-width="3" stroke-miterlimit="10" cx="622.8" cy="-1415.3" r="5"/>
<circle fill="none" stroke="#431A94" stroke-width="3" stroke-miterlimit="10" cx="652.9" cy="-1415.3" r="5"/>
<circle fill="none" stroke="#431A94" stroke-width="3" stroke-miterlimit="10" cx="682.9" cy="-1415.3" r="5"/>
<line fill="none" stroke="#431A94" stroke-width="5" stroke-miterlimit="10" x1="684.2" y1="-1338.1" x2="733.8" y2="-1338.1"/>
<line fill="none" stroke="#431A94" stroke-width="5" stroke-miterlimit="10" x1="684.2" y1="-1308" x2="813.9" y2="-1308"/>
<line fill="none" stroke="#431A94" stroke-width="5" stroke-miterlimit="10" x1="684.2" y1="-1278" x2="783.8" y2="-1278"/>
<line fill="none" stroke="#431A94" stroke-width="5" stroke-miterlimit="10" x1="617.2" y1="-1248" x2="626.7" y2="-1248"/>
<line fill="none" stroke="#431A94" stroke-width="5" stroke-miterlimit="10" x1="617.2" y1="-1308" x2="626.7" y2="-1308"/>
<line fill="none" stroke="#431A94" stroke-width="5" stroke-miterlimit="10" x1="617.2" y1="-1278" x2="626.7" y2="-1278"/>
<line fill="none" stroke="#431A94" stroke-width="5" stroke-miterlimit="10" x1="617.2" y1="-1157.9" x2="626.7" y2="-1157.9"/>
<line fill="none" stroke="#431A94" stroke-width="5" stroke-miterlimit="10" x1="617.2" y1="-1218" x2="626.7" y2="-1218"/>
<line fill="none" stroke="#431A94" stroke-width="5" stroke-miterlimit="10" x1="617.2" y1="-1187.9" x2="626.7" y2="-1187.9"/>
<line fill="none" stroke="#431A94" stroke-width="5" stroke-miterlimit="10" x1="617.2" y1="-1338.1" x2="626.7" y2="-1338.1"/>
<line fill="none" stroke="#431A94" stroke-width="5" stroke-miterlimit="10" x1="617.2" y1="-1127.9" x2="626.7" y2="-1127.9"/>
<line fill="none" stroke="#431A94" stroke-width="5" stroke-miterlimit="10" x1="617.2" y1="-1097.9" x2="626.7" y2="-1097.9"/>
<line fill="none" stroke="#431A94" stroke-width="5" stroke-miterlimit="10" x1="617.2" y1="-1067.8" x2="626.7" y2="-1067.8"/>
<line fill="none" stroke="#431A94" stroke-width="5" stroke-miterlimit="10" x1="684.2" y1="-1218" x2="753.8" y2="-1218"/>
<line fill="none" stroke="#431A94" stroke-width="5" stroke-miterlimit="10" x1="684.2" y1="-1187.9" x2="783.8" y2="-1187.9"/>
<line fill="none" stroke="#431A94" stroke-width="5" stroke-miterlimit="10" x1="684.2" y1="-1127.9" x2="753.8" y2="-1127.9"/>
<line fill="none" stroke="#431A94" stroke-width="5" stroke-miterlimit="10" x1="684.2" y1="-1097.9" x2="773.8" y2="-1097.9"/>
<line fill="none" stroke="#431A94" stroke-width="5" stroke-miterlimit="10" x1="617.2" y1="-1037.8" x2="626.7" y2="-1037.8"/>
<line fill="none" stroke="#431A94" stroke-width="5" stroke-miterlimit="10" x1="617.2" y1="-1007.8" x2="626.7" y2="-1007.8"/>
<line fill="none" stroke="#431A94" stroke-width="5" stroke-miterlimit="10" x1="684.2" y1="-1067.8" x2="733.8" y2="-1067.8"/>
<line fill="none" stroke="#431A94" stroke-width="5" stroke-miterlimit="10" x1="684.2" y1="-1157.9" x2="753.8" y2="-1157.9"/>
<g>
	<rect x="198.3" y="253" fill="none" stroke="#431A94" stroke-width="5" stroke-miterlimit="10" width="600" height="480"/>
	<line fill="none" stroke="#431A94" stroke-width="5" stroke-miterlimit="10" x1="198.3" y1="305" x2="798.3" y2="305"/>
	<circle fill="none" stroke="#431A94" stroke-width="3" stroke-miterlimit="10" cx="242" cy="277.8" r="5"/>
	<circle fill="none" stroke="#431A94" stroke-width="3" stroke-miterlimit="10" cx="272" cy="277.8" r="5"/>
	<circle fill="none" stroke="#431A94" stroke-width="3" stroke-miterlimit="10" cx="302" cy="277.8" r="5"/>
	<line fill="none" stroke="#431A94" stroke-width="5" stroke-miterlimit="10" x1="363.4" y1="355" x2="413" y2="355"/>
	<line fill="none" stroke="#431A94" stroke-width="5" stroke-miterlimit="10" x1="363.4" y1="385.1" x2="493" y2="385.1"/>
	<line fill="none" stroke="#431A94" stroke-width="5" stroke-miterlimit="10" x1="363.4" y1="415.1" x2="463" y2="415.1"/>
	<line fill="none" stroke="#431A94" stroke-width="5" stroke-miterlimit="10" x1="233.3" y1="385.1" x2="262.9" y2="385.1"/>
	<line fill="none" stroke="#431A94" stroke-width="5" stroke-miterlimit="10" x1="233.3" y1="415.1" x2="252.9" y2="415.1"/>
	<line fill="none" stroke="#431A94" stroke-width="5" stroke-miterlimit="10" x1="233.3" y1="355" x2="272.9" y2="355"/>
	<line fill="none" stroke="#431A94" stroke-width="5" stroke-miterlimit="10" x1="363.4" y1="475.1" x2="433" y2="475.1"/>
	<line fill="none" stroke="#431A94" stroke-width="5" stroke-miterlimit="10" x1="363.4" y1="505.2" x2="463" y2="505.2"/>
	<line fill="none" stroke="#431A94" stroke-width="5" stroke-miterlimit="10" x1="363.4" y1="565.2" x2="433" y2="565.2"/>
	<line fill="none" stroke="#431A94" stroke-width="5" stroke-miterlimit="10" x1="363.4" y1="595.2" x2="453" y2="595.2"/>
	<line fill="none" stroke="#431A94" stroke-width="5" stroke-miterlimit="10" x1="363.4" y1="625.3" x2="413" y2="625.3"/>
	<line fill="none" stroke="#431A94" stroke-width="5" stroke-miterlimit="10" x1="363.4" y1="535.2" x2="433" y2="535.2"/>
	<line fill="none" stroke="#431A94" stroke-width="5" stroke-miterlimit="10" x1="302" y1="304.8" x2="302" y2="731"/>
</g>
<g>
	<line fill="none" stroke="#431A94" stroke-width="6" stroke-miterlimit="10" x1="1715.5" y1="731.9" x2="2215.5" y2="731.9"/>
	<polyline fill="none" stroke="#431A94" stroke-width="6" stroke-miterlimit="10" points="2085.4,494.7 2085.4,332.6 1845.5,332.6 
		1845.5,494.7 	"/>
	<polyline fill="none" stroke="#431A94" stroke-width="6" stroke-miterlimit="10" points="2052.1,330.9 2052.1,305.1 1878.8,305.1 
		1878.8,330.9 	"/>
	<polyline fill="none" stroke="#431A94" stroke-width="6" stroke-miterlimit="10" points="2023.2,303.4 2023.2,279 1907.7,279 
		1907.7,303.4 	"/>
	<polyline fill="none" stroke="#431A94" stroke-width="6" stroke-miterlimit="10" points="1997.1,732 1997.1,410.7 1933.8,410.7 
		1933.8,732 	"/>
	<line fill="none" stroke="#431A94" stroke-width="6" stroke-miterlimit="10" x1="1955.3" y1="410.7" x2="1955.3" y2="732"/>
	<line fill="none" stroke="#431A94" stroke-width="6" stroke-miterlimit="10" x1="1975.6" y1="410.7" x2="1975.6" y2="732"/>
	<line fill="none" stroke="#431A94" stroke-width="6" stroke-miterlimit="10" x1="1888.9" y1="363.2" x2="1888.9" y2="377.8"/>
	<line fill="none" stroke="#431A94" stroke-width="6" stroke-miterlimit="10" x1="2042.3" y1="363.2" x2="2042.3" y2="377.8"/>
	<line fill="none" stroke="#431A94" stroke-width="6" stroke-miterlimit="10" x1="1997.1" y1="363.2" x2="1997.1" y2="377.8"/>
	<line fill="none" stroke="#431A94" stroke-width="6" stroke-miterlimit="10" x1="1933.8" y1="363.2" x2="1933.8" y2="377.8"/>
	<line fill="none" stroke="#431A94" stroke-width="6" stroke-miterlimit="10" x1="1965.6" y1="363.2" x2="1965.6" y2="377.8"/>
	<polyline fill="none" stroke="#431A94" stroke-width="6" stroke-miterlimit="10" points="2063.9,493.3 2063.9,410.8 2020.8,410.8 
		2020.8,493.3 	"/>
	<line fill="none" stroke="#431A94" stroke-width="6" stroke-miterlimit="10" x1="2042.3" y1="410.8" x2="2042.3" y2="493.3"/>
	
		<line fill="none" stroke="#431A94" stroke-width="6" stroke-linecap="round" stroke-miterlimit="10" x1="1965.5" y1="2.6" x2="1965.5" y2="119.6"/>
	<line fill="none" stroke="#431A94" stroke-width="6" stroke-miterlimit="10" x1="1933.8" y1="277.4" x2="1933.8" y2="249"/>
	<line fill="none" stroke="#431A94" stroke-width="6" stroke-miterlimit="10" x1="1997.5" y1="277.4" x2="1997.5" y2="249"/>
	
		<line fill="none" stroke="#431A94" stroke-width="6" stroke-linecap="round" stroke-linejoin="round" stroke-miterlimit="10" x1="1933.8" y1="249" x2="1939.8" y2="243"/>
	
		<line fill="none" stroke="#431A94" stroke-width="6" stroke-linecap="round" stroke-linejoin="round" stroke-miterlimit="10" x1="1997.5" y1="249" x2="1991.5" y2="243"/>
	
		<line fill="none" stroke="#431A94" stroke-width="6" stroke-linecap="round" stroke-miterlimit="10" x1="1939.8" y1="242.7" x2="1939.8" y2="222.9"/>
	
		<line fill="none" stroke="#431A94" stroke-width="6" stroke-linecap="round" stroke-miterlimit="10" x1="1991.5" y1="242.7" x2="1991.5" y2="222.9"/>
	
		<line fill="none" stroke="#431A94" stroke-width="6" stroke-linecap="round" stroke-linejoin="round" stroke-miterlimit="10" x1="1939.8" y1="222.9" x2="1945.8" y2="217"/>
	
		<line fill="none" stroke="#431A94" stroke-width="6" stroke-linecap="round" stroke-linejoin="round" stroke-miterlimit="10" x1="1991.5" y1="222.9" x2="1985.5" y2="217"/>
	
		<line fill="none" stroke="#431A94" stroke-width="6" stroke-linecap="round" stroke-miterlimit="10" x1="1945.8" y1="216.6" x2="1945.8" y2="144.8"/>
	
		<line fill="none" stroke="#431A94" stroke-width="6" stroke-linecap="round" stroke-miterlimit="10" x1="1985.5" y1="216.6" x2="1985.5" y2="144.8"/>
	<line fill="none" stroke="#431A94" stroke-width="6" stroke-miterlimit="10" x1="1945.8" y1="144.8" x2="1985.5" y2="144.8"/>
	<line fill="none" stroke="#431A94" stroke-width="6" stroke-miterlimit="10" x1="1904.7" y1="317.3" x2="1904.7" y2="321.2"/>
	<line fill="none" stroke="#431A94" stroke-width="6" stroke-miterlimit="10" x1="1965.5" y1="317.3" x2="1965.5" y2="321.2"/>
	<line fill="none" stroke="#431A94" stroke-width="6" stroke-miterlimit="10" x1="1997.1" y1="317.3" x2="1997.1" y2="321.2"/>
	<line fill="none" stroke="#431A94" stroke-width="6" stroke-miterlimit="10" x1="2025.1" y1="317.3" x2="2025.1" y2="321.2"/>
	<line fill="none" stroke="#431A94" stroke-width="6" stroke-miterlimit="10" x1="1933.8" y1="317.3" x2="1933.8" y2="321.2"/>
	<line fill="none" stroke="#431A94" stroke-width="6" stroke-miterlimit="10" x1="1965.5" y1="289.8" x2="1965.5" y2="293.7"/>
	<line fill="none" stroke="#431A94" stroke-width="6" stroke-miterlimit="10" x1="1997.1" y1="289.8" x2="1997.1" y2="293.7"/>
	<line fill="none" stroke="#431A94" stroke-width="6" stroke-miterlimit="10" x1="1933.8" y1="289.8" x2="1933.8" y2="293.7"/>
	<path fill="none" stroke="#431A94" stroke-width="6" stroke-linecap="round" stroke-linejoin="round" stroke-miterlimit="10" d="
		M1953.2,144.2V134c0-6,6.3-12.3,12.3-12.3l0,0c6,0,12.3,6.3,12.3,12.3v10.1"/>
	<polyline fill="none" stroke="#431A94" stroke-width="6" stroke-miterlimit="10" points="2115.9,731.7 2115.9,671.1 2015,671.1 
		2015,731.7 	"/>
	<polyline fill="none" stroke="#431A94" stroke-width="6" stroke-miterlimit="10" points="2107.3,670.9 2107.3,493.2 2020.8,493.2 
		2020.8,670.9 	"/>
	<line fill="none" stroke="#431A94" stroke-width="6" stroke-miterlimit="10" x1="2042.3" y1="515.4" x2="2042.3" y2="671.1"/>
	<line fill="none" stroke="#431A94" stroke-width="6" stroke-miterlimit="10" x1="2064" y1="515.4" x2="2064" y2="671.1"/>
	<line fill="none" stroke="#431A94" stroke-width="6" stroke-miterlimit="10" x1="2085.7" y1="515.4" x2="2085.7" y2="671.1"/>
	<line fill="none" stroke="#431A94" stroke-width="6" stroke-miterlimit="10" x1="2035.1" y1="691.3" x2="2035.1" y2="731.9"/>
	<line fill="none" stroke="#431A94" stroke-width="6" stroke-miterlimit="10" x1="2055.3" y1="691.3" x2="2055.3" y2="731.9"/>
	<line fill="none" stroke="#431A94" stroke-width="6" stroke-miterlimit="10" x1="2075.6" y1="691.3" x2="2075.6" y2="731.9"/>
	<line fill="none" stroke="#431A94" stroke-width="6" stroke-miterlimit="10" x1="2097.3" y1="691.3" x2="2097.3" y2="731.9"/>
	<line fill="none" stroke="#431A94" stroke-width="6" stroke-miterlimit="10" x1="1949.4" y1="289.8" x2="1949.4" y2="293.7"/>
	<line fill="none" stroke="#431A94" stroke-width="6" stroke-miterlimit="10" x1="1981.5" y1="289.8" x2="1981.5" y2="293.7"/>
	<line fill="none" stroke="#431A94" stroke-width="6" stroke-miterlimit="10" x1="1949.4" y1="317.3" x2="1949.4" y2="321.2"/>
	<line fill="none" stroke="#431A94" stroke-width="6" stroke-miterlimit="10" x1="1981.5" y1="317.3" x2="1981.5" y2="321.2"/>
	<polyline fill="none" stroke="#431A94" stroke-width="6" stroke-miterlimit="10" points="1865.9,493.3 1865.9,410.8 1909,410.8 
		1909,493.3 	"/>
	<line fill="none" stroke="#431A94" stroke-width="6" stroke-miterlimit="10" x1="1887.5" y1="410.8" x2="1887.5" y2="493.3"/>
	<polyline fill="none" stroke="#431A94" stroke-width="6" stroke-miterlimit="10" points="1813.8,731.7 1813.8,671.1 1914.8,671.1 
		1914.8,731.7 	"/>
	<polyline fill="none" stroke="#431A94" stroke-width="6" stroke-miterlimit="10" points="1822.5,670.9 1822.5,493.2 1909,493.2 
		1909,670.9 	"/>
	<line fill="none" stroke="#431A94" stroke-width="6" stroke-miterlimit="10" x1="1887.5" y1="515.4" x2="1887.5" y2="671.1"/>
	<line fill="none" stroke="#431A94" stroke-width="6" stroke-miterlimit="10" x1="1865.8" y1="515.4" x2="1865.8" y2="671.1"/>
	<line fill="none" stroke="#431A94" stroke-width="6" stroke-miterlimit="10" x1="1844.1" y1="515.4" x2="1844.1" y2="671.1"/>
	<line fill="none" stroke="#431A94" stroke-width="6" stroke-miterlimit="10" x1="1832.9" y1="691.3" x2="1832.9" y2="731.9"/>
	<line fill="none" stroke="#431A94" stroke-width="6" stroke-miterlimit="10" x1="1853.2" y1="691.3" x2="1853.2" y2="731.9"/>
	<line fill="none" stroke="#431A94" stroke-width="6" stroke-miterlimit="10" x1="1873.4" y1="691.3" x2="1873.4" y2="731.9"/>
	<line fill="none" stroke="#431A94" stroke-width="6" stroke-miterlimit="10" x1="1895.1" y1="691.3" x2="1895.1" y2="731.9"/>
</g>
</svg>
