<?xml version="1.0" encoding="utf-8"?>
<!-- Generator: Adobe Illustrator 18.1.0, SVG Export Plug-In . SVG Version: 6.00 Build 0)  -->
<svg version="1.1" id="Layer_1" xmlns="http://www.w3.org/2000/svg" xmlns:xlink="http://www.w3.org/1999/xlink" x="0px" y="0px"
	 viewBox="0 0 1000 737" enable-background="new 0 0 1000 737" xml:space="preserve">
<rect x="-121.7" y="-1440.1" fill="none" stroke="#431A94" stroke-width="5" stroke-miterlimit="10" width="600" height="480"/>
<line fill="none" stroke="#431A94" stroke-width="5" stroke-miterlimit="10" x1="-121.7" y1="-1388.1" x2="478.3" y2="-1388.1"/>
<circle fill="none" stroke="#431A94" stroke-width="3" stroke-miterlimit="10" cx="-78" cy="-1415.3" r="5"/>
<circle fill="none" stroke="#431A94" stroke-width="3" stroke-miterlimit="10" cx="-48" cy="-1415.3" r="5"/>
<circle fill="none" stroke="#431A94" stroke-width="3" stroke-miterlimit="10" cx="-18" cy="-1415.3" r="5"/>
<line fill="none" stroke="#431A94" stroke-width="5" stroke-miterlimit="10" x1="-17.6" y1="-1338.1" x2="31.9" y2="-1338.1"/>
<line fill="none" stroke="#431A94" stroke-width="5" stroke-miterlimit="10" x1="-17.6" y1="-1308" x2="112" y2="-1308"/>
<line fill="none" stroke="#431A94" stroke-width="5" stroke-miterlimit="10" x1="-17.6" y1="-1278" x2="82" y2="-1278"/>
<line fill="none" stroke="#431A94" stroke-width="5" stroke-miterlimit="10" x1="-81.7" y1="-1248" x2="-72.2" y2="-1248"/>
<line fill="none" stroke="#431A94" stroke-width="5" stroke-miterlimit="10" x1="-81.7" y1="-1308" x2="-72.2" y2="-1308"/>
<line fill="none" stroke="#431A94" stroke-width="5" stroke-miterlimit="10" x1="-81.7" y1="-1278" x2="-72.2" y2="-1278"/>
<line fill="none" stroke="#431A94" stroke-width="5" stroke-miterlimit="10" x1="-81.7" y1="-1157.9" x2="-72.2" y2="-1157.9"/>
<line fill="none" stroke="#431A94" stroke-width="5" stroke-miterlimit="10" x1="-81.7" y1="-1218" x2="-72.2" y2="-1218"/>
<line fill="none" stroke="#431A94" stroke-width="5" stroke-miterlimit="10" x1="-81.7" y1="-1187.9" x2="-72.2" y2="-1187.9"/>
<line fill="none" stroke="#431A94" stroke-width="5" stroke-miterlimit="10" x1="-81.7" y1="-1338.1" x2="-72.2" y2="-1338.1"/>
<line fill="none" stroke="#431A94" stroke-width="5" stroke-miterlimit="10" x1="-81.7" y1="-1127.9" x2="-72.2" y2="-1127.9"/>
<line fill="none" stroke="#431A94" stroke-width="5" stroke-miterlimit="10" x1="-81.7" y1="-1097.9" x2="-72.2" y2="-1097.9"/>
<line fill="none" stroke="#431A94" stroke-width="5" stroke-miterlimit="10" x1="-81.7" y1="-1067.8" x2="-72.2" y2="-1067.8"/>
<line fill="none" stroke="#431A94" stroke-width="5" stroke-miterlimit="10" x1="-17.6" y1="-1218" x2="51.9" y2="-1218"/>
<line fill="none" stroke="#431A94" stroke-width="5" stroke-miterlimit="10" x1="-17.6" y1="-1187.9" x2="82" y2="-1187.9"/>
<line fill="none" stroke="#431A94" stroke-width="5" stroke-miterlimit="10" x1="-17.6" y1="-1127.9" x2="51.9" y2="-1127.9"/>
<line fill="none" stroke="#431A94" stroke-width="5" stroke-miterlimit="10" x1="-17.6" y1="-1097.9" x2="72" y2="-1097.9"/>
<line fill="none" stroke="#431A94" stroke-width="5" stroke-miterlimit="10" x1="-81.7" y1="-1037.8" x2="-72.2" y2="-1037.8"/>
<line fill="none" stroke="#431A94" stroke-width="5" stroke-miterlimit="10" x1="-81.7" y1="-1007.8" x2="-72.2" y2="-1007.8"/>
<line fill="none" stroke="#431A94" stroke-width="5" stroke-miterlimit="10" x1="-17.6" y1="-1067.8" x2="31.9" y2="-1067.8"/>
<line fill="none" stroke="#431A94" stroke-width="5" stroke-miterlimit="10" x1="179" y1="-1386.3" x2="179" y2="-960.1"/>
<line fill="none" stroke="#431A94" stroke-width="5" stroke-miterlimit="10" x1="287.6" y1="-1127.9" x2="387.2" y2="-1127.9"/>
<line fill="none" stroke="#431A94" stroke-width="5" stroke-miterlimit="10" x1="223.6" y1="-1248" x2="233.1" y2="-1248"/>
<line fill="none" stroke="#431A94" stroke-width="5" stroke-miterlimit="10" x1="223.6" y1="-1308" x2="233.1" y2="-1308"/>
<line fill="none" stroke="#431A94" stroke-width="5" stroke-miterlimit="10" x1="223.6" y1="-1278" x2="233.1" y2="-1278"/>
<line fill="none" stroke="#431A94" stroke-width="5" stroke-miterlimit="10" x1="223.6" y1="-1157.9" x2="233.1" y2="-1157.9"/>
<line fill="none" stroke="#431A94" stroke-width="5" stroke-miterlimit="10" x1="223.6" y1="-1218" x2="233.1" y2="-1218"/>
<line fill="none" stroke="#431A94" stroke-width="5" stroke-miterlimit="10" x1="223.6" y1="-1187.9" x2="233.1" y2="-1187.9"/>
<line fill="none" stroke="#431A94" stroke-width="5" stroke-miterlimit="10" x1="223.6" y1="-1338.1" x2="233.1" y2="-1338.1"/>
<line fill="none" stroke="#431A94" stroke-width="5" stroke-miterlimit="10" x1="223.6" y1="-1127.9" x2="233.1" y2="-1127.9"/>
<line fill="none" stroke="#431A94" stroke-width="5" stroke-miterlimit="10" x1="223.6" y1="-1097.9" x2="233.1" y2="-1097.9"/>
<line fill="none" stroke="#431A94" stroke-width="5" stroke-miterlimit="10" x1="223.6" y1="-1067.8" x2="233.1" y2="-1067.8"/>
<line fill="none" stroke="#431A94" stroke-width="5" stroke-miterlimit="10" x1="287.6" y1="-1187.9" x2="357.2" y2="-1187.9"/>
<line fill="none" stroke="#431A94" stroke-width="5" stroke-miterlimit="10" x1="287.6" y1="-1218" x2="387.2" y2="-1218"/>
<line fill="none" stroke="#431A94" stroke-width="5" stroke-miterlimit="10" x1="287.6" y1="-1278" x2="337.2" y2="-1278"/>
<line fill="none" stroke="#431A94" stroke-width="5" stroke-miterlimit="10" x1="287.6" y1="-1308" x2="377.2" y2="-1308"/>
<line fill="none" stroke="#431A94" stroke-width="5" stroke-miterlimit="10" x1="223.6" y1="-1037.8" x2="233.1" y2="-1037.8"/>
<line fill="none" stroke="#431A94" stroke-width="5" stroke-miterlimit="10" x1="223.6" y1="-1007.8" x2="233.1" y2="-1007.8"/>
<line fill="none" stroke="#431A94" stroke-width="5" stroke-miterlimit="10" x1="287.6" y1="-1338.1" x2="357.2" y2="-1338.1"/>
<rect x="579.1" y="-1440.1" fill="none" stroke="#431A94" stroke-width="5" stroke-miterlimit="10" width="600" height="480"/>
<line fill="none" stroke="#431A94" stroke-width="5" stroke-miterlimit="10" x1="579.1" y1="-1388.1" x2="1179.1" y2="-1388.1"/>
<circle fill="none" stroke="#431A94" stroke-width="3" stroke-miterlimit="10" cx="622.8" cy="-1415.3" r="5"/>
<circle fill="none" stroke="#431A94" stroke-width="3" stroke-miterlimit="10" cx="652.9" cy="-1415.3" r="5"/>
<circle fill="none" stroke="#431A94" stroke-width="3" stroke-miterlimit="10" cx="682.9" cy="-1415.3" r="5"/>
<line fill="none" stroke="#431A94" stroke-width="5" stroke-miterlimit="10" x1="684.2" y1="-1338.1" x2="733.8" y2="-1338.1"/>
<line fill="none" stroke="#431A94" stroke-width="5" stroke-miterlimit="10" x1="684.2" y1="-1308" x2="813.9" y2="-1308"/>
<line fill="none" stroke="#431A94" stroke-width="5" stroke-miterlimit="10" x1="684.2" y1="-1278" x2="783.8" y2="-1278"/>
<line fill="none" stroke="#431A94" stroke-width="5" stroke-miterlimit="10" x1="617.2" y1="-1248" x2="626.7" y2="-1248"/>
<line fill="none" stroke="#431A94" stroke-width="5" stroke-miterlimit="10" x1="617.2" y1="-1308" x2="626.7" y2="-1308"/>
<line fill="none" stroke="#431A94" stroke-width="5" stroke-miterlimit="10" x1="617.2" y1="-1278" x2="626.7" y2="-1278"/>
<line fill="none" stroke="#431A94" stroke-width="5" stroke-miterlimit="10" x1="617.2" y1="-1157.9" x2="626.7" y2="-1157.9"/>
<line fill="none" stroke="#431A94" stroke-width="5" stroke-miterlimit="10" x1="617.2" y1="-1218" x2="626.7" y2="-1218"/>
<line fill="none" stroke="#431A94" stroke-width="5" stroke-miterlimit="10" x1="617.2" y1="-1187.9" x2="626.7" y2="-1187.9"/>
<line fill="none" stroke="#431A94" stroke-width="5" stroke-miterlimit="10" x1="617.2" y1="-1338.1" x2="626.7" y2="-1338.1"/>
<line fill="none" stroke="#431A94" stroke-width="5" stroke-miterlimit="10" x1="617.2" y1="-1127.9" x2="626.7" y2="-1127.9"/>
<line fill="none" stroke="#431A94" stroke-width="5" stroke-miterlimit="10" x1="617.2" y1="-1097.9" x2="626.7" y2="-1097.9"/>
<line fill="none" stroke="#431A94" stroke-width="5" stroke-miterlimit="10" x1="617.2" y1="-1067.8" x2="626.7" y2="-1067.8"/>
<line fill="none" stroke="#431A94" stroke-width="5" stroke-miterlimit="10" x1="684.2" y1="-1218" x2="753.8" y2="-1218"/>
<line fill="none" stroke="#431A94" stroke-width="5" stroke-miterlimit="10" x1="684.2" y1="-1187.9" x2="783.8" y2="-1187.9"/>
<line fill="none" stroke="#431A94" stroke-width="5" stroke-miterlimit="10" x1="684.2" y1="-1127.9" x2="753.8" y2="-1127.9"/>
<line fill="none" stroke="#431A94" stroke-width="5" stroke-miterlimit="10" x1="684.2" y1="-1097.9" x2="773.8" y2="-1097.9"/>
<line fill="none" stroke="#431A94" stroke-width="5" stroke-miterlimit="10" x1="617.2" y1="-1037.8" x2="626.7" y2="-1037.8"/>
<line fill="none" stroke="#431A94" stroke-width="5" stroke-miterlimit="10" x1="617.2" y1="-1007.8" x2="626.7" y2="-1007.8"/>
<line fill="none" stroke="#431A94" stroke-width="5" stroke-miterlimit="10" x1="684.2" y1="-1067.8" x2="733.8" y2="-1067.8"/>
<line fill="none" stroke="#431A94" stroke-width="5" stroke-miterlimit="10" x1="684.2" y1="-1157.9" x2="753.8" y2="-1157.9"/>
<rect x="197.8" y="253" fill="none" stroke="#431A94" stroke-width="5" stroke-linejoin="round" stroke-miterlimit="10" width="600" height="480"/>
<line fill="none" stroke="#431A94" stroke-width="5" stroke-miterlimit="10" x1="197.8" y1="305" x2="797.8" y2="305"/>
<circle fill="none" stroke="#431A94" stroke-width="3" stroke-miterlimit="10" cx="241.5" cy="277.8" r="5"/>
<circle fill="none" stroke="#431A94" stroke-width="3" stroke-miterlimit="10" cx="271.6" cy="277.8" r="5"/>
<circle fill="none" stroke="#431A94" stroke-width="3" stroke-miterlimit="10" cx="301.6" cy="277.8" r="5"/>
<line fill="none" stroke="#431A94" stroke-width="5" stroke-miterlimit="10" x1="363" y1="355" x2="412.5" y2="355"/>
<line fill="none" stroke="#431A94" stroke-width="5" stroke-miterlimit="10" x1="363" y1="385.1" x2="492.6" y2="385.1"/>
<line fill="none" stroke="#431A94" stroke-width="5" stroke-miterlimit="10" x1="363" y1="415.1" x2="462.6" y2="415.1"/>
<line fill="none" stroke="#431A94" stroke-width="5" stroke-miterlimit="10" x1="232.9" y1="385.1" x2="262.4" y2="385.1"/>
<line fill="none" stroke="#431A94" stroke-width="5" stroke-miterlimit="10" x1="232.9" y1="415.1" x2="252.4" y2="415.1"/>
<line fill="none" stroke="#431A94" stroke-width="5" stroke-miterlimit="10" x1="232.9" y1="355" x2="272.4" y2="355"/>
<line fill="none" stroke="#431A94" stroke-width="5" stroke-miterlimit="10" x1="363" y1="475.1" x2="432.6" y2="475.1"/>
<line fill="none" stroke="#431A94" stroke-width="5" stroke-miterlimit="10" x1="363" y1="505.2" x2="462.6" y2="505.2"/>
<line fill="none" stroke="#431A94" stroke-width="5" stroke-miterlimit="10" x1="363" y1="565.2" x2="432.6" y2="565.2"/>
<line fill="none" stroke="#431A94" stroke-width="5" stroke-miterlimit="10" x1="363" y1="595.2" x2="452.6" y2="595.2"/>
<line fill="none" stroke="#431A94" stroke-width="5" stroke-miterlimit="10" x1="363" y1="625.3" x2="412.5" y2="625.3"/>
<line fill="none" stroke="#431A94" stroke-width="5" stroke-miterlimit="10" x1="363" y1="535.2" x2="432.6" y2="535.2"/>
<line fill="none" stroke="#431A94" stroke-width="5" stroke-miterlimit="10" x1="301.6" y1="304.8" x2="301.6" y2="731"/>
<g>
	<circle fill="none" stroke="#431A94" stroke-width="6" stroke-miterlimit="10" cx="1374.9" cy="501" r="230"/>
	<circle fill="none" stroke="#431A94" stroke-width="6" stroke-miterlimit="10" cx="1374.9" cy="512.5" r="16.1"/>
	
		<line fill="none" stroke="#431A94" stroke-width="6" stroke-linecap="round" stroke-miterlimit="10" x1="1345.8" y1="541.2" x2="1359.4" y2="527.4"/>
	
		<line fill="none" stroke="#431A94" stroke-width="6" stroke-linecap="round" stroke-miterlimit="10" x1="1387" y1="499.8" x2="1503" y2="383.2"/>
	<path fill="none" stroke="#431A94" stroke-width="6" stroke-miterlimit="10" d="M1361.1,268.7v-32.1c0-7.6,6.2-13.8,13.8-13.8l0,0
		c7.6,0,13.8,6.2,13.8,13.8v32.1"/>
	<path fill="none" stroke="#431A94" stroke-width="6" stroke-miterlimit="10" d="M1360.4,239.2c-19.9-6.2-34.3-24.7-34.3-46.7
		c0-27,21.9-48.9,48.9-48.9s48.9,21.9,48.9,48.9c0,21.8-14.3,40.3-34,46.6"/>
	<path fill="none" stroke="#431A94" stroke-width="6" stroke-linecap="round" stroke-linejoin="round" stroke-miterlimit="10" d="
		M1526.5,327.3l11.8-11.6c2.4-2.4,6.3-2.3,8.7,0.1l21.5,21.8c2.4,2.4,2.3,6.3-0.1,8.7l-11.8,11.6"/>
</g>
<g>
	
		<line fill="none" stroke="#431A94" stroke-width="5" stroke-linecap="round" stroke-linejoin="round" stroke-miterlimit="10" x1="247.8" y1="1614.4" x2="747.8" y2="1614.4"/>
	
		<polyline fill="none" stroke="#431A94" stroke-width="5" stroke-linecap="round" stroke-linejoin="round" stroke-miterlimit="10" points="
		617.8,1374.2 617.8,1215.1 377.9,1215.1 377.9,1374.2 	"/>
	
		<polyline fill="none" stroke="#431A94" stroke-width="5" stroke-linecap="round" stroke-linejoin="round" stroke-miterlimit="10" points="
		584.5,1213.4 584.5,1187.6 411.2,1187.6 411.2,1213.4 	"/>
	
		<polyline fill="none" stroke="#431A94" stroke-width="5" stroke-linecap="round" stroke-linejoin="round" stroke-miterlimit="10" points="
		550.6,1185.9 550.6,1161.5 445.1,1161.5 445.1,1185.9 	"/>
	<polyline fill="none" stroke="#431A94" stroke-width="5" stroke-linejoin="round" stroke-miterlimit="10" points="529.5,1614.5 
		529.5,1293.2 466.2,1293.2 466.2,1614.5 	"/>
	
		<line fill="none" stroke="#431A94" stroke-width="5" stroke-linejoin="round" stroke-miterlimit="10" x1="487.7" y1="1293.2" x2="487.7" y2="1614.5"/>
	
		<line fill="none" stroke="#431A94" stroke-width="5" stroke-linejoin="round" stroke-miterlimit="10" x1="508" y1="1293.2" x2="508" y2="1614.5"/>
	<polyline fill="none" stroke="#431A94" stroke-width="5" stroke-linejoin="round" stroke-miterlimit="10" points="596.2,1374.8 
		596.2,1293.3 553.2,1293.3 553.2,1374.8 	"/>
	
		<line fill="none" stroke="#431A94" stroke-width="5" stroke-linecap="round" stroke-linejoin="round" stroke-miterlimit="10" x1="574.7" y1="1293.3" x2="574.7" y2="1375.8"/>
	
		<line fill="none" stroke="#431A94" stroke-width="5" stroke-linecap="round" stroke-linejoin="round" stroke-miterlimit="10" x1="497.8" y1="885.1" x2="497.8" y2="1002.1"/>
	
		<line fill="none" stroke="#431A94" stroke-width="5" stroke-linecap="round" stroke-linejoin="round" stroke-miterlimit="10" x1="466.2" y1="1159.9" x2="466.2" y2="1131.5"/>
	
		<line fill="none" stroke="#431A94" stroke-width="5" stroke-linecap="round" stroke-linejoin="round" stroke-miterlimit="10" x1="529.9" y1="1159.9" x2="529.9" y2="1131.5"/>
	
		<line fill="none" stroke="#431A94" stroke-width="5" stroke-linecap="round" stroke-linejoin="round" stroke-miterlimit="10" x1="466.2" y1="1131.5" x2="472.2" y2="1125.5"/>
	
		<line fill="none" stroke="#431A94" stroke-width="5" stroke-linecap="round" stroke-linejoin="round" stroke-miterlimit="10" x1="529.9" y1="1131.5" x2="523.9" y2="1125.5"/>
	
		<line fill="none" stroke="#431A94" stroke-width="5" stroke-linecap="round" stroke-linejoin="round" stroke-miterlimit="10" x1="472.2" y1="1125.2" x2="472.2" y2="1105.4"/>
	
		<line fill="none" stroke="#431A94" stroke-width="5" stroke-linecap="round" stroke-linejoin="round" stroke-miterlimit="10" x1="523.9" y1="1125.2" x2="523.9" y2="1105.4"/>
	
		<line fill="none" stroke="#431A94" stroke-width="5" stroke-linecap="round" stroke-linejoin="round" stroke-miterlimit="10" x1="472.2" y1="1105.4" x2="478.2" y2="1099.5"/>
	
		<line fill="none" stroke="#431A94" stroke-width="5" stroke-linecap="round" stroke-linejoin="round" stroke-miterlimit="10" x1="523.9" y1="1105.4" x2="517.9" y2="1099.5"/>
	
		<line fill="none" stroke="#431A94" stroke-width="5" stroke-linecap="round" stroke-linejoin="round" stroke-miterlimit="10" x1="478.2" y1="1099.1" x2="478.2" y2="1027.3"/>
	
		<line fill="none" stroke="#431A94" stroke-width="5" stroke-linecap="round" stroke-linejoin="round" stroke-miterlimit="10" x1="517.9" y1="1099.1" x2="517.9" y2="1027.3"/>
	
		<line fill="none" stroke="#431A94" stroke-width="5" stroke-linecap="round" stroke-linejoin="round" stroke-miterlimit="10" x1="478.2" y1="1027.3" x2="517.9" y2="1027.3"/>
	
		<line fill="none" stroke="#431A94" stroke-width="5" stroke-linecap="round" stroke-linejoin="round" stroke-miterlimit="10" x1="497.8" y1="1199.8" x2="497.8" y2="1203.7"/>
	
		<line fill="none" stroke="#431A94" stroke-width="5" stroke-linecap="round" stroke-linejoin="round" stroke-miterlimit="10" x1="529.5" y1="1199.8" x2="529.5" y2="1203.7"/>
	
		<line fill="none" stroke="#431A94" stroke-width="5" stroke-linecap="round" stroke-linejoin="round" stroke-miterlimit="10" x1="466.2" y1="1199.8" x2="466.2" y2="1203.7"/>
	
		<line fill="none" stroke="#431A94" stroke-width="5" stroke-linecap="round" stroke-linejoin="round" stroke-miterlimit="10" x1="497.8" y1="1172.3" x2="497.8" y2="1176.2"/>
	
		<line fill="none" stroke="#431A94" stroke-width="5" stroke-linecap="round" stroke-linejoin="round" stroke-miterlimit="10" x1="529.5" y1="1172.3" x2="529.5" y2="1176.2"/>
	
		<line fill="none" stroke="#431A94" stroke-width="5" stroke-linecap="round" stroke-linejoin="round" stroke-miterlimit="10" x1="466.2" y1="1172.3" x2="466.2" y2="1176.2"/>
	<path fill="none" stroke="#431A94" stroke-width="5" stroke-linecap="round" stroke-linejoin="round" stroke-miterlimit="10" d="
		M485.6,1026.7v-10.1c0-6,6.3-12.3,12.3-12.3h0c6,0,12.3,6.3,12.3,12.3v10.1"/>
	<polyline fill="none" stroke="#431A94" stroke-width="5" stroke-linejoin="round" stroke-miterlimit="10" points="650.3,1614.2 
		650.3,1553.6 547.4,1553.6 547.4,1614.2 	"/>
	<polyline fill="none" stroke="#431A94" stroke-width="5" stroke-linejoin="round" stroke-miterlimit="10" points="639.7,1552.4 
		639.7,1375.7 553.2,1375.7 553.2,1552.4 	"/>
	
		<line fill="none" stroke="#431A94" stroke-width="5" stroke-linecap="round" stroke-linejoin="round" stroke-miterlimit="10" x1="574.7" y1="1397.9" x2="574.7" y2="1553.6"/>
	
		<line fill="none" stroke="#431A94" stroke-width="5" stroke-linecap="round" stroke-linejoin="round" stroke-miterlimit="10" x1="596.4" y1="1397.9" x2="596.4" y2="1553.6"/>
	
		<line fill="none" stroke="#431A94" stroke-width="5" stroke-linecap="round" stroke-linejoin="round" stroke-miterlimit="10" x1="618.1" y1="1397.9" x2="618.1" y2="1553.6"/>
	
		<line fill="none" stroke="#431A94" stroke-width="5" stroke-linecap="round" stroke-linejoin="round" stroke-miterlimit="10" x1="567.5" y1="1573.8" x2="567.5" y2="1614.4"/>
	
		<line fill="none" stroke="#431A94" stroke-width="5" stroke-linecap="round" stroke-linejoin="round" stroke-miterlimit="10" x1="587.7" y1="1573.8" x2="587.7" y2="1614.4"/>
	
		<line fill="none" stroke="#431A94" stroke-width="5" stroke-linecap="round" stroke-linejoin="round" stroke-miterlimit="10" x1="608" y1="1573.8" x2="608" y2="1614.4"/>
	
		<line fill="none" stroke="#431A94" stroke-width="5" stroke-linecap="round" stroke-linejoin="round" stroke-miterlimit="10" x1="629.7" y1="1573.8" x2="629.7" y2="1614.4"/>
	
		<line fill="none" stroke="#431A94" stroke-width="5" stroke-linecap="round" stroke-linejoin="round" stroke-miterlimit="10" x1="481.8" y1="1172.3" x2="481.8" y2="1176.2"/>
	
		<line fill="none" stroke="#431A94" stroke-width="5" stroke-linecap="round" stroke-linejoin="round" stroke-miterlimit="10" x1="513.9" y1="1172.3" x2="513.9" y2="1176.2"/>
	
		<line fill="none" stroke="#431A94" stroke-width="5" stroke-linecap="round" stroke-linejoin="round" stroke-miterlimit="10" x1="481.8" y1="1199.8" x2="481.8" y2="1203.7"/>
	
		<line fill="none" stroke="#431A94" stroke-width="5" stroke-linecap="round" stroke-linejoin="round" stroke-miterlimit="10" x1="513.9" y1="1199.8" x2="513.9" y2="1203.7"/>
	<polyline fill="none" stroke="#431A94" stroke-width="5" stroke-linejoin="round" stroke-miterlimit="10" points="398.3,1374.8 
		398.3,1293.3 441.4,1293.3 441.4,1374.8 	"/>
	
		<line fill="none" stroke="#431A94" stroke-width="5" stroke-linecap="round" stroke-linejoin="round" stroke-miterlimit="10" x1="419.9" y1="1293.3" x2="419.9" y2="1375.8"/>
	<polyline fill="none" stroke="#431A94" stroke-width="5" stroke-linejoin="round" stroke-miterlimit="10" points="344.2,1614.2 
		344.2,1553.6 447.2,1553.6 447.2,1614.2 	"/>
	<polyline fill="none" stroke="#431A94" stroke-width="5" stroke-linejoin="round" stroke-miterlimit="10" points="354.9,1552.4 
		354.9,1375.7 441.4,1375.7 441.4,1552.4 	"/>
	
		<line fill="none" stroke="#431A94" stroke-width="5" stroke-linecap="round" stroke-linejoin="round" stroke-miterlimit="10" x1="419.9" y1="1397.9" x2="419.9" y2="1553.6"/>
	
		<line fill="none" stroke="#431A94" stroke-width="5" stroke-linecap="round" stroke-linejoin="round" stroke-miterlimit="10" x1="398.2" y1="1397.9" x2="398.2" y2="1553.6"/>
	
		<line fill="none" stroke="#431A94" stroke-width="5" stroke-linecap="round" stroke-linejoin="round" stroke-miterlimit="10" x1="376.4" y1="1397.9" x2="376.4" y2="1553.6"/>
	
		<line fill="none" stroke="#431A94" stroke-width="5" stroke-linecap="round" stroke-linejoin="round" stroke-miterlimit="10" x1="365.3" y1="1573.8" x2="365.3" y2="1614.4"/>
	
		<line fill="none" stroke="#431A94" stroke-width="5" stroke-linecap="round" stroke-linejoin="round" stroke-miterlimit="10" x1="385.6" y1="1573.8" x2="385.6" y2="1614.4"/>
	
		<line fill="none" stroke="#431A94" stroke-width="5" stroke-linecap="round" stroke-linejoin="round" stroke-miterlimit="10" x1="405.8" y1="1573.8" x2="405.8" y2="1614.4"/>
	
		<line fill="none" stroke="#431A94" stroke-width="5" stroke-linecap="round" stroke-linejoin="round" stroke-miterlimit="10" x1="427.5" y1="1573.8" x2="427.5" y2="1614.4"/>
	
		<line fill="none" stroke="#431A94" stroke-width="5" stroke-linecap="round" stroke-linejoin="round" stroke-miterlimit="10" x1="544.5" y1="1199.8" x2="544.5" y2="1203.7"/>
	
		<line fill="none" stroke="#431A94" stroke-width="5" stroke-linecap="round" stroke-linejoin="round" stroke-miterlimit="10" x1="451.2" y1="1199.8" x2="451.2" y2="1203.7"/>
	
		<line fill="none" stroke="#431A94" stroke-width="5" stroke-linecap="round" stroke-linejoin="round" stroke-miterlimit="10" x1="436.2" y1="1199.8" x2="436.2" y2="1203.7"/>
	
		<line fill="none" stroke="#431A94" stroke-width="5" stroke-linecap="round" stroke-linejoin="round" stroke-miterlimit="10" x1="559.5" y1="1199.8" x2="559.5" y2="1203.7"/>
</g>
</svg>
