<?xml version="1.0" encoding="utf-8"?>
<!-- Generator: Adobe Illustrator 18.1.0, SVG Export Plug-In . SVG Version: 6.00 Build 0)  -->
<svg version="1.1" id="Layer_1" xmlns="http://www.w3.org/2000/svg" xmlns:xlink="http://www.w3.org/1999/xlink" x="0px" y="0px"
	 viewBox="0 0 1000 737" enable-background="new 0 0 1000 737" xml:space="preserve">
<g>
	<g>
		<path fill="#431A94" d="M794,250c2.2,0,4,1.8,4,4v472c0,2.2-1.8,4-4,4H202c-2.2,0-4-1.8-4-4V254c0-2.2,1.8-4,4-4H794 M794,245H202
			c-5,0-9,4-9,9v472c0,5,4,9,9,9h592c5,0,9-4,9-9V254C803,249,799,245,794,245L794,245z"/>
	</g>
	<line fill="none" stroke="#431A94" stroke-width="5" stroke-miterlimit="10" x1="198" y1="302" x2="798" y2="302"/>
	
		<circle fill="none" stroke="#431A94" stroke-width="3" stroke-linejoin="round" stroke-miterlimit="10" cx="233.7" cy="274.8" r="5"/>
	
		<circle fill="none" stroke="#431A94" stroke-width="3" stroke-linejoin="round" stroke-miterlimit="10" cx="263.7" cy="274.8" r="5"/>
	
		<circle fill="none" stroke="#431A94" stroke-width="3" stroke-linejoin="round" stroke-miterlimit="10" cx="293.7" cy="274.8" r="5"/>
	<line fill="none" stroke="#431A94" stroke-width="5" stroke-miterlimit="10" x1="363.2" y1="352" x2="412.7" y2="352"/>
	<line fill="none" stroke="#431A94" stroke-width="5" stroke-miterlimit="10" x1="363.2" y1="382.1" x2="492.8" y2="382.1"/>
	<line fill="none" stroke="#431A94" stroke-width="5" stroke-miterlimit="10" x1="363.2" y1="412.1" x2="462.8" y2="412.1"/>
	<line fill="none" stroke="#431A94" stroke-width="5" stroke-miterlimit="10" x1="227" y1="382.1" x2="256.6" y2="382.1"/>
	<line fill="none" stroke="#431A94" stroke-width="5" stroke-miterlimit="10" x1="227" y1="412.1" x2="246.6" y2="412.1"/>
	<line fill="none" stroke="#431A94" stroke-width="5" stroke-miterlimit="10" x1="227" y1="352" x2="266.6" y2="352"/>
	<line fill="none" stroke="#431A94" stroke-width="5" stroke-miterlimit="10" x1="363.2" y1="472.1" x2="432.7" y2="472.1"/>
	<line fill="none" stroke="#431A94" stroke-width="5" stroke-miterlimit="10" x1="363.2" y1="502.2" x2="462.8" y2="502.2"/>
	<line fill="none" stroke="#431A94" stroke-width="5" stroke-miterlimit="10" x1="363.2" y1="562.2" x2="432.7" y2="562.2"/>
	<line fill="none" stroke="#431A94" stroke-width="5" stroke-miterlimit="10" x1="363.2" y1="592.2" x2="452.7" y2="592.2"/>
	<line fill="none" stroke="#431A94" stroke-width="5" stroke-miterlimit="10" x1="363.2" y1="622.3" x2="412.7" y2="622.3"/>
	<line fill="none" stroke="#431A94" stroke-width="5" stroke-miterlimit="10" x1="363.2" y1="532.2" x2="432.7" y2="532.2"/>
	
		<line fill="none" stroke="#431A94" stroke-width="5" stroke-linecap="square" stroke-miterlimit="10" x1="301.7" y1="301.8" x2="301.7" y2="728"/>
</g>
<g>
	<circle fill="none" stroke="#431A94" stroke-width="6" stroke-miterlimit="10" cx="1517" cy="501" r="230"/>
	<circle fill="none" stroke="#431A94" stroke-width="6" stroke-miterlimit="10" cx="1517" cy="512.5" r="16.1"/>
	
		<line fill="none" stroke="#431A94" stroke-width="6" stroke-linecap="round" stroke-miterlimit="10" x1="1487.9" y1="541.2" x2="1501.5" y2="527.4"/>
	
		<line fill="none" stroke="#431A94" stroke-width="6" stroke-linecap="round" stroke-miterlimit="10" x1="1529.1" y1="499.8" x2="1645.1" y2="383.2"/>
	<path fill="none" stroke="#431A94" stroke-width="6" stroke-miterlimit="10" d="M1503.2,268.7v-32.1c0-7.6,6.2-13.8,13.8-13.8l0,0
		c7.6,0,13.8,6.2,13.8,13.8v32.1"/>
	<path fill="none" stroke="#431A94" stroke-width="6" stroke-miterlimit="10" d="M1502.5,239.2c-19.9-6.2-34.3-24.7-34.3-46.7
		c0-27,21.9-48.9,48.9-48.9s48.9,21.9,48.9,48.9c0,21.8-14.3,40.3-34,46.6"/>
	<path fill="none" stroke="#431A94" stroke-width="6" stroke-linecap="round" stroke-linejoin="round" stroke-miterlimit="10" d="
		M1668.6,327.3l11.8-11.6c2.4-2.4,6.3-2.3,8.7,0.1l21.5,21.8c2.4,2.4,2.3,6.3-0.1,8.7l-11.8,11.6"/>
</g>
<line fill="none" stroke="#431A94" stroke-width="5" stroke-linecap="round" stroke-linejoin="round" stroke-miterlimit="10" x1="247.8" y1="1606.9" x2="747.8" y2="1606.9"/>
<polyline fill="none" stroke="#431A94" stroke-width="5" stroke-linecap="round" stroke-linejoin="round" stroke-miterlimit="10" points="
	617.8,1366.7 617.8,1217.6 377.9,1217.6 377.9,1366.7 "/>
<polyline fill="none" stroke="#431A94" stroke-width="5" stroke-linecap="round" stroke-linejoin="round" stroke-miterlimit="10" points="
	575.5,1215.9 575.5,1195.1 420.2,1195.1 420.2,1215.9 "/>
<polyline fill="none" stroke="#431A94" stroke-width="5" stroke-linecap="round" stroke-linejoin="round" stroke-miterlimit="10" points="
	549.6,1193.4 549.6,1173.1 446.1,1173.1 446.1,1193.4 "/>
<polyline fill="none" stroke="#431A94" stroke-width="5" stroke-linejoin="round" stroke-miterlimit="10" points="529.5,1607 
	529.5,1285.7 466.2,1285.7 466.2,1607 "/>
<line fill="none" stroke="#431A94" stroke-width="5" stroke-linejoin="round" stroke-miterlimit="10" x1="487.7" y1="1285.7" x2="487.7" y2="1607"/>
<line fill="none" stroke="#431A94" stroke-width="5" stroke-linejoin="round" stroke-miterlimit="10" x1="508" y1="1285.7" x2="508" y2="1607"/>
<polyline fill="none" stroke="#431A94" stroke-width="5" stroke-linejoin="round" stroke-miterlimit="10" points="596.2,1367.3 
	596.2,1285.8 553.2,1285.8 553.2,1367.3 "/>
<line fill="none" stroke="#431A94" stroke-width="5" stroke-linecap="round" stroke-linejoin="round" stroke-miterlimit="10" x1="574.7" y1="1285.8" x2="574.7" y2="1368.3"/>
<line fill="none" stroke="#431A94" stroke-width="5" stroke-linecap="round" stroke-linejoin="round" stroke-miterlimit="10" x1="497.8" y1="908" x2="497.8" y2="1007"/>
<line fill="none" stroke="#431A94" stroke-width="5" stroke-linecap="round" stroke-linejoin="round" stroke-miterlimit="10" x1="466.2" y1="1171.4" x2="466.2" y2="1143"/>
<line fill="none" stroke="#431A94" stroke-width="5" stroke-linecap="round" stroke-linejoin="round" stroke-miterlimit="10" x1="529.9" y1="1171.4" x2="529.9" y2="1143"/>
<line fill="none" stroke="#431A94" stroke-width="5" stroke-linecap="round" stroke-linejoin="round" stroke-miterlimit="10" x1="466.2" y1="1143" x2="472.2" y2="1137.1"/>
<line fill="none" stroke="#431A94" stroke-width="5" stroke-linecap="round" stroke-linejoin="round" stroke-miterlimit="10" x1="529.9" y1="1143" x2="523.9" y2="1137.1"/>
<line fill="none" stroke="#431A94" stroke-width="5" stroke-linecap="round" stroke-linejoin="round" stroke-miterlimit="10" x1="472.2" y1="1136.7" x2="472.2" y2="1106.9"/>
<line fill="none" stroke="#431A94" stroke-width="5" stroke-linecap="round" stroke-linejoin="round" stroke-miterlimit="10" x1="523.9" y1="1136.7" x2="523.9" y2="1106.9"/>
<line fill="none" stroke="#431A94" stroke-width="5" stroke-linecap="round" stroke-linejoin="round" stroke-miterlimit="10" x1="472.2" y1="1106.9" x2="481.2" y2="1098"/>
<line fill="none" stroke="#431A94" stroke-width="5" stroke-linecap="round" stroke-linejoin="round" stroke-miterlimit="10" x1="523.9" y1="1106.9" x2="514.9" y2="1098"/>
<line fill="none" stroke="#431A94" stroke-width="5" stroke-linecap="round" stroke-linejoin="round" stroke-miterlimit="10" x1="481.2" y1="1097.6" x2="481.2" y2="1038.8"/>
<line fill="none" stroke="#431A94" stroke-width="5" stroke-linecap="round" stroke-linejoin="round" stroke-miterlimit="10" x1="514.9" y1="1097.6" x2="514.9" y2="1038.8"/>
<line fill="none" stroke="#431A94" stroke-width="5" stroke-linecap="round" stroke-linejoin="round" stroke-miterlimit="10" x1="481.2" y1="1037.8" x2="514.9" y2="1037.8"/>
<path fill="none" stroke="#431A94" stroke-width="5" stroke-linecap="round" stroke-linejoin="round" stroke-miterlimit="10" d="
	M486.6,1035.2V1025c0-6,5.3-15.3,11.3-15.3l0,0c6,0,11.3,9.3,11.3,15.3v10.1"/>
<polyline fill="none" stroke="#431A94" stroke-width="5" stroke-linejoin="round" stroke-miterlimit="10" points="650.3,1606.7 
	650.3,1546.1 547.4,1546.1 547.4,1606.7 "/>
<polyline fill="none" stroke="#431A94" stroke-width="5" stroke-linejoin="round" stroke-miterlimit="10" points="639.7,1544.9 
	639.7,1368.2 553.2,1368.2 553.2,1544.9 "/>
<line fill="none" stroke="#431A94" stroke-width="5" stroke-linecap="round" stroke-linejoin="round" stroke-miterlimit="10" x1="574.7" y1="1390.4" x2="574.7" y2="1546.1"/>
<line fill="none" stroke="#431A94" stroke-width="5" stroke-linecap="round" stroke-linejoin="round" stroke-miterlimit="10" x1="596.4" y1="1390.4" x2="596.4" y2="1546.1"/>
<line fill="none" stroke="#431A94" stroke-width="5" stroke-linecap="round" stroke-linejoin="round" stroke-miterlimit="10" x1="618.1" y1="1390.4" x2="618.1" y2="1546.1"/>
<line fill="none" stroke="#431A94" stroke-width="5" stroke-linecap="round" stroke-linejoin="round" stroke-miterlimit="10" x1="567.5" y1="1566.3" x2="567.5" y2="1606.9"/>
<line fill="none" stroke="#431A94" stroke-width="5" stroke-linecap="round" stroke-linejoin="round" stroke-miterlimit="10" x1="587.7" y1="1566.3" x2="587.7" y2="1606.9"/>
<line fill="none" stroke="#431A94" stroke-width="5" stroke-linecap="round" stroke-linejoin="round" stroke-miterlimit="10" x1="608" y1="1566.3" x2="608" y2="1606.9"/>
<line fill="none" stroke="#431A94" stroke-width="5" stroke-linecap="round" stroke-linejoin="round" stroke-miterlimit="10" x1="629.7" y1="1566.3" x2="629.7" y2="1606.9"/>
<polyline fill="none" stroke="#431A94" stroke-width="5" stroke-linejoin="round" stroke-miterlimit="10" points="398.3,1367.3 
	398.3,1285.8 441.4,1285.8 441.4,1367.3 "/>
<line fill="none" stroke="#431A94" stroke-width="5" stroke-linecap="round" stroke-linejoin="round" stroke-miterlimit="10" x1="419.9" y1="1285.8" x2="419.9" y2="1368.3"/>
<polyline fill="none" stroke="#431A94" stroke-width="5" stroke-linejoin="round" stroke-miterlimit="10" points="344.2,1606.7 
	344.2,1546.1 447.2,1546.1 447.2,1606.7 "/>
<polyline fill="none" stroke="#431A94" stroke-width="5" stroke-linejoin="round" stroke-miterlimit="10" points="354.9,1544.9 
	354.9,1368.2 441.4,1368.2 441.4,1544.9 "/>
<line fill="none" stroke="#431A94" stroke-width="5" stroke-linecap="round" stroke-linejoin="round" stroke-miterlimit="10" x1="419.9" y1="1390.4" x2="419.9" y2="1546.1"/>
<line fill="none" stroke="#431A94" stroke-width="5" stroke-linecap="round" stroke-linejoin="round" stroke-miterlimit="10" x1="398.2" y1="1390.4" x2="398.2" y2="1546.1"/>
<line fill="none" stroke="#431A94" stroke-width="5" stroke-linecap="round" stroke-linejoin="round" stroke-miterlimit="10" x1="376.4" y1="1390.4" x2="376.4" y2="1546.1"/>
<line fill="none" stroke="#431A94" stroke-width="5" stroke-linecap="round" stroke-linejoin="round" stroke-miterlimit="10" x1="365.3" y1="1566.3" x2="365.3" y2="1606.9"/>
<line fill="none" stroke="#431A94" stroke-width="5" stroke-linecap="round" stroke-linejoin="round" stroke-miterlimit="10" x1="385.6" y1="1566.3" x2="385.6" y2="1606.9"/>
<line fill="none" stroke="#431A94" stroke-width="5" stroke-linecap="round" stroke-linejoin="round" stroke-miterlimit="10" x1="405.8" y1="1566.3" x2="405.8" y2="1606.9"/>
<line fill="none" stroke="#431A94" stroke-width="5" stroke-linecap="round" stroke-linejoin="round" stroke-miterlimit="10" x1="427.5" y1="1566.3" x2="427.5" y2="1606.9"/>
<line fill="none" stroke="#431A94" stroke-width="5" stroke-linecap="round" stroke-linejoin="round" stroke-miterlimit="10" x1="497.8" y1="1038.1" x2="497.8" y2="1172.1"/>
<path fill="#431A94" d="M799.8-618.3h-604v-63.3c0-4.8,3.9-8.8,8.8-8.8h586.5c4.8,0,8.8,3.9,8.8,8.8V-618.3z"/>
<circle fill="#FFFFFF" stroke="#FFFFFF" stroke-width="2.6667" stroke-miterlimit="10" cx="253" cy="-655.5" r="8"/>
<circle fill="none" stroke="#431B94" stroke-width="4" stroke-miterlimit="10" cx="732.4" cy="-286.6" r="20"/>
<line fill="none" stroke="#431B94" stroke-width="10" stroke-miterlimit="10" x1="245.9" y1="-549.5" x2="435.8" y2="-549.5"/>
<line fill="none" stroke="#431B94" stroke-width="4" stroke-miterlimit="10" x1="245.9" y1="-468.4" x2="706" y2="-468.4"/>
<line fill="none" stroke="#431B94" stroke-width="4" stroke-miterlimit="10" x1="245.9" y1="-418.4" x2="636" y2="-418.4"/>
<path fill="none" stroke="#431B94" stroke-width="4" stroke-miterlimit="10" d="M348-266.7h-80c-11,0-20-9-20-20v0c0-11,9-20,20-20
	h80c11,0,20,9,20,20v0C368-275.7,359-266.7,348-266.7z"/>
<circle fill="none" stroke="#431B94" stroke-width="4" stroke-miterlimit="10" cx="667.4" cy="-286.6" r="20"/>
<circle fill="#FFFFFF" stroke="#FFFFFF" stroke-width="3" stroke-miterlimit="10" cx="293" cy="-655.5" r="8"/>
<circle fill="none" stroke="#FFFFFF" stroke-width="3" stroke-miterlimit="10" cx="333" cy="-655.5" r="8"/>
<circle fill="none" stroke="#FFFFFF" stroke-width="3" stroke-miterlimit="10" cx="373" cy="-655.5" r="8"/>
<circle fill="none" stroke="#FFFFFF" stroke-width="3" stroke-miterlimit="10" cx="413.1" cy="-655.5" r="8"/>
<g>
	<path fill="#431A94" d="M789.1-689.1c4.4,0,8,3.6,8,8v454c0,4.4-3.6,8-8,8h-584c-4.4,0-8-3.6-8-8v-454c0-4.4,3.6-8,8-8H789.1
		 M789.1-693.1h-584c-6.6,0-12,5.4-12,12v454c0,6.6,5.4,12,12,12h584c6.6,0,12-5.4,12-12v-454C801.1-687.7,795.7-693.1,789.1-693.1
		L789.1-693.1z"/>
</g>
<line fill="none" stroke="#431A94" stroke-width="4" stroke-miterlimit="10" x1="-1246" y1="416.3" x2="-1246" y2="501.2"/>
<path fill="none" stroke="#431A94" stroke-width="4" stroke-linecap="round" stroke-linejoin="round" stroke-miterlimit="10" d="
	M-1045.7,570.7v-67.9l0,0c0-1.1-0.9-1.9-1.9-1.9H-1444c-1.1,0-1.9,0.9-1.9,1.9l0,0v67.9"/>
<g>
	<g>
		<path fill="#431A94" d="M-1139.1,253c2.2,0,4,1.8,4,4v151.8c0,2.2-1.8,4-4,4h-211.7c-2.2,0-4-1.8-4-4V257c0-2.2,1.8-4,4-4H-1139.1
			 M-1139.1,249h-211.7c-4.4,0-8,3.6-8,8v151.8c0,4.4,3.6,8,8,8h211.7c4.4,0,8-3.6,8-8V257C-1131.1,252.6-1134.7,249-1139.1,249
			L-1139.1,249z"/>
	</g>
	<path fill="#431A94" d="M-1135,281.2h-222v-24.7c0-3,2.4-5.3,5.3-5.3h211.3c3,0,5.3,2.4,5.3,5.3V281.2z"/>
	<line fill="none" stroke="#431B94" stroke-width="6" stroke-miterlimit="10" x1="-1332.6" y1="308.4" x2="-1252.8" y2="308.4"/>
	<line fill="none" stroke="#431B94" stroke-width="3" stroke-miterlimit="10" x1="-1332.6" y1="333.4" x2="-1182.8" y2="333.4"/>
	<circle fill="none" stroke="#431B94" stroke-width="3" stroke-miterlimit="10" cx="-1167.5" cy="382" r="10"/>
	<path fill="none" stroke="#431B94" stroke-width="3" stroke-miterlimit="10" d="M-1296.6,392h-25c-5.5,0-10-4.5-10-10l0,0
		c0-5.5,4.5-10,10-10h25c5.5,0,10,4.5,10,10l0,0C-1286.6,387.5-1291.1,392-1296.6,392z"/>
</g>
<g>
	<g>
		<path fill="#431A94" d="M-1339.3,573.2c2.2,0,4,1.8,4,4V729c0,2.2-1.8,4-4,4H-1551c-2.2,0-4-1.8-4-4V577.2c0-2.2,1.8-4,4-4
			H-1339.3 M-1339.3,569.2H-1551c-4.4,0-8,3.6-8,8V729c0,4.4,3.6,8,8,8h211.7c4.4,0,8-3.6,8-8V577.2
			C-1331.3,572.8-1334.9,569.2-1339.3,569.2L-1339.3,569.2z"/>
	</g>
	<path fill="#431A94" d="M-1335.1,601.5h-222v-24.7c0-3,2.4-5.3,5.3-5.3h211.3c3,0,5.3,2.4,5.3,5.3V601.5z"/>
	<line fill="none" stroke="#431B94" stroke-width="6" stroke-miterlimit="10" x1="-1532.7" y1="628.6" x2="-1453" y2="628.6"/>
	<line fill="none" stroke="#431B94" stroke-width="3" stroke-miterlimit="10" x1="-1532.7" y1="653.6" x2="-1382.9" y2="653.6"/>
	<circle fill="none" stroke="#431B94" stroke-width="3" stroke-miterlimit="10" cx="-1367.7" cy="702.3" r="10"/>
	<path fill="none" stroke="#431B94" stroke-width="3" stroke-miterlimit="10" d="M-1496.8,712.3h-25c-5.5,0-10-4.5-10-10l0,0
		c0-5.5,4.5-10,10-10h25c5.5,0,10,4.5,10,10l0,0C-1486.8,707.8-1491.3,712.3-1496.8,712.3z"/>
</g>
<g>
	<g>
		<path fill="#431A94" d="M-939,573.2c2.2,0,4,1.8,4,4V729c0,2.2-1.8,4-4,4h-211.7c-2.2,0-4-1.8-4-4V577.2c0-2.2,1.8-4,4-4H-939
			 M-939,569.2h-211.7c-4.4,0-8,3.6-8,8V729c0,4.4,3.6,8,8,8H-939c4.4,0,8-3.6,8-8V577.2C-931,572.8-934.6,569.2-939,569.2
			L-939,569.2z"/>
	</g>
	<path fill="#431A94" d="M-934.8,601.5h-222v-24.7c0-3,2.4-5.3,5.3-5.3h211.3c3,0,5.3,2.4,5.3,5.3V601.5z"/>
	<line fill="none" stroke="#431B94" stroke-width="6" stroke-miterlimit="10" x1="-1132.4" y1="628.6" x2="-1052.6" y2="628.6"/>
	<line fill="none" stroke="#431B94" stroke-width="3" stroke-miterlimit="10" x1="-1132.4" y1="653.6" x2="-982.6" y2="653.6"/>
	<circle fill="none" stroke="#431B94" stroke-width="3" stroke-miterlimit="10" cx="-967.3" cy="702.3" r="10"/>
	<path fill="none" stroke="#431B94" stroke-width="3" stroke-miterlimit="10" d="M-1096.5,712.3h-25c-5.5,0-10-4.5-10-10l0,0
		c0-5.5,4.5-10,10-10h25c5.5,0,10,4.5,10,10l0,0C-1086.5,707.8-1091,712.3-1096.5,712.3z"/>
</g>
<g>
	<g>
		<path fill="#431A94" d="M2569,572.2c2.2,0,4,1.8,4,4V728c0,2.2-1.8,4-4,4h-211.7c-2.2,0-4-1.8-4-4V576.2c0-2.2,1.8-4,4-4H2569
			 M2569,568.2h-211.7c-4.4,0-8,3.6-8,8V728c0,4.4,3.6,8,8,8H2569c4.4,0,8-3.6,8-8V576.2C2577,571.8,2573.4,568.2,2569,568.2
			L2569,568.2z"/>
	</g>
	<path fill="#431A94" d="M2573.1,600.5h-222v-24.7c0-3,2.4-5.3,5.3-5.3h211.3c3,0,5.3,2.4,5.3,5.3V600.5z"/>
	<line fill="none" stroke="#431B94" stroke-width="6" stroke-miterlimit="10" x1="2375.5" y1="627.6" x2="2455.3" y2="627.6"/>
	<line fill="none" stroke="#431B94" stroke-width="3" stroke-miterlimit="10" x1="2375.5" y1="652.6" x2="2525.4" y2="652.6"/>
	<circle fill="none" stroke="#431B94" stroke-width="3" stroke-miterlimit="10" cx="2540.6" cy="701.3" r="10"/>
	<path fill="none" stroke="#431B94" stroke-width="3" stroke-miterlimit="10" d="M2411.5,711.3h-25c-5.5,0-10-4.5-10-10l0,0
		c0-5.5,4.5-10,10-10h25c5.5,0,10,4.5,10,10l0,0C2421.5,706.8,2417,711.3,2411.5,711.3z"/>
</g>
<g>
	<path fill="#431A94" d="M2288.8,572.2c2.2,0,4,1.8,4,4V728c0,2.2-1.8,4-4,4h-211.7c-2.2,0-4-1.8-4-4V576.2c0-2.2,1.8-4,4-4H2288.8
		 M2288.8,568.2h-211.7c-4.4,0-8,3.6-8,8V728c0,4.4,3.6,8,8,8h211.7c4.4,0,8-3.6,8-8V576.2C2296.8,571.8,2293.2,568.2,2288.8,568.2
		L2288.8,568.2z"/>
</g>
<path fill="#431A94" d="M2292.9,600.5h-222v-24.7c0-3,2.4-5.3,5.3-5.3h211.3c3,0,5.3,2.4,5.3,5.3V600.5z"/>
<line fill="none" stroke="#431B94" stroke-width="6" stroke-miterlimit="10" x1="2095.3" y1="627.6" x2="2175.1" y2="627.6"/>
<line fill="none" stroke="#431B94" stroke-width="3" stroke-miterlimit="10" x1="2095.3" y1="652.6" x2="2245.1" y2="652.6"/>
<circle fill="none" stroke="#431B94" stroke-width="3" stroke-miterlimit="10" cx="2260.4" cy="701.3" r="10"/>
<path fill="none" stroke="#431B94" stroke-width="3" stroke-miterlimit="10" d="M2131.3,711.3h-25c-5.5,0-10-4.5-10-10l0,0
	c0-5.5,4.5-10,10-10h25c5.5,0,10,4.5,10,10l0,0C2141.3,706.8,2136.8,711.3,2131.3,711.3z"/>
<line fill="none" stroke="#431B94" stroke-width="8" stroke-miterlimit="10" x1="2095.3" y1="293.3" x2="2305.2" y2="293.3"/>
<line fill="none" stroke="#431B94" stroke-width="3" stroke-miterlimit="10" x1="2095.3" y1="346.4" x2="2550.4" y2="346.4"/>
<g>
	<g>
		<path fill="#431A94" d="M2569,252c2.2,0,4,1.8,4,4v261.9c0,2.2-1.8,4-4,4h-491.9c-2.2,0-4-1.8-4-4V256c0-2.2,1.8-4,4-4H2569
			 M2569,248h-491.9c-4.4,0-8,3.6-8,8v261.9c0,4.4,3.6,8,8,8H2569c4.4,0,8-3.6,8-8V256C2577,251.6,2573.4,248,2569,248L2569,248z"/>
	</g>
</g>
<rect x="2095.8" y="476.4" fill="#431A94" width="70" height="25"/>
<line fill="none" stroke="#431B94" stroke-width="3" stroke-miterlimit="10" x1="2095.3" y1="386.4" x2="2550.4" y2="386.4"/>
<line fill="none" stroke="#431B94" stroke-width="3" stroke-miterlimit="10" x1="2095.3" y1="426.4" x2="2550.4" y2="426.4"/>
</svg>
