<?xml version="1.0" encoding="utf-8"?>
<!-- Generator: Adobe Illustrator 18.1.0, SVG Export Plug-In . SVG Version: 6.00 Build 0)  -->
<svg version="1.1" id="Layer_1" xmlns="http://www.w3.org/2000/svg" xmlns:xlink="http://www.w3.org/1999/xlink" x="0px" y="0px"
	 viewBox="0 0 1000 737" enable-background="new 0 0 1000 737" xml:space="preserve">
<rect x="-121.7" y="-1440.1" fill="none" stroke="#431A94" stroke-width="5" stroke-miterlimit="10" width="600" height="480"/>
<line fill="none" stroke="#431A94" stroke-width="5" stroke-miterlimit="10" x1="-121.7" y1="-1388.1" x2="478.3" y2="-1388.1"/>
<circle fill="none" stroke="#431A94" stroke-width="3" stroke-miterlimit="10" cx="-78" cy="-1415.3" r="5"/>
<circle fill="none" stroke="#431A94" stroke-width="3" stroke-miterlimit="10" cx="-48" cy="-1415.3" r="5"/>
<circle fill="none" stroke="#431A94" stroke-width="3" stroke-miterlimit="10" cx="-18" cy="-1415.3" r="5"/>
<line fill="none" stroke="#431A94" stroke-width="5" stroke-miterlimit="10" x1="-17.6" y1="-1338.1" x2="31.9" y2="-1338.1"/>
<line fill="none" stroke="#431A94" stroke-width="5" stroke-miterlimit="10" x1="-17.6" y1="-1308" x2="112" y2="-1308"/>
<line fill="none" stroke="#431A94" stroke-width="5" stroke-miterlimit="10" x1="-17.6" y1="-1278" x2="82" y2="-1278"/>
<line fill="none" stroke="#431A94" stroke-width="5" stroke-miterlimit="10" x1="-81.7" y1="-1248" x2="-72.2" y2="-1248"/>
<line fill="none" stroke="#431A94" stroke-width="5" stroke-miterlimit="10" x1="-81.7" y1="-1308" x2="-72.2" y2="-1308"/>
<line fill="none" stroke="#431A94" stroke-width="5" stroke-miterlimit="10" x1="-81.7" y1="-1278" x2="-72.2" y2="-1278"/>
<line fill="none" stroke="#431A94" stroke-width="5" stroke-miterlimit="10" x1="-81.7" y1="-1157.9" x2="-72.2" y2="-1157.9"/>
<line fill="none" stroke="#431A94" stroke-width="5" stroke-miterlimit="10" x1="-81.7" y1="-1218" x2="-72.2" y2="-1218"/>
<line fill="none" stroke="#431A94" stroke-width="5" stroke-miterlimit="10" x1="-81.7" y1="-1187.9" x2="-72.2" y2="-1187.9"/>
<line fill="none" stroke="#431A94" stroke-width="5" stroke-miterlimit="10" x1="-81.7" y1="-1338.1" x2="-72.2" y2="-1338.1"/>
<line fill="none" stroke="#431A94" stroke-width="5" stroke-miterlimit="10" x1="-81.7" y1="-1127.9" x2="-72.2" y2="-1127.9"/>
<line fill="none" stroke="#431A94" stroke-width="5" stroke-miterlimit="10" x1="-81.7" y1="-1097.9" x2="-72.2" y2="-1097.9"/>
<line fill="none" stroke="#431A94" stroke-width="5" stroke-miterlimit="10" x1="-81.7" y1="-1067.8" x2="-72.2" y2="-1067.8"/>
<line fill="none" stroke="#431A94" stroke-width="5" stroke-miterlimit="10" x1="-17.6" y1="-1218" x2="51.9" y2="-1218"/>
<line fill="none" stroke="#431A94" stroke-width="5" stroke-miterlimit="10" x1="-17.6" y1="-1187.9" x2="82" y2="-1187.9"/>
<line fill="none" stroke="#431A94" stroke-width="5" stroke-miterlimit="10" x1="-17.6" y1="-1127.9" x2="51.9" y2="-1127.9"/>
<line fill="none" stroke="#431A94" stroke-width="5" stroke-miterlimit="10" x1="-17.6" y1="-1097.9" x2="72" y2="-1097.9"/>
<line fill="none" stroke="#431A94" stroke-width="5" stroke-miterlimit="10" x1="-81.7" y1="-1037.8" x2="-72.2" y2="-1037.8"/>
<line fill="none" stroke="#431A94" stroke-width="5" stroke-miterlimit="10" x1="-81.7" y1="-1007.8" x2="-72.2" y2="-1007.8"/>
<line fill="none" stroke="#431A94" stroke-width="5" stroke-miterlimit="10" x1="-17.6" y1="-1067.8" x2="31.9" y2="-1067.8"/>
<line fill="none" stroke="#431A94" stroke-width="5" stroke-miterlimit="10" x1="179" y1="-1386.3" x2="179" y2="-960.1"/>
<line fill="none" stroke="#431A94" stroke-width="5" stroke-miterlimit="10" x1="287.6" y1="-1127.9" x2="387.2" y2="-1127.9"/>
<line fill="none" stroke="#431A94" stroke-width="5" stroke-miterlimit="10" x1="223.6" y1="-1248" x2="233.1" y2="-1248"/>
<line fill="none" stroke="#431A94" stroke-width="5" stroke-miterlimit="10" x1="223.6" y1="-1308" x2="233.1" y2="-1308"/>
<line fill="none" stroke="#431A94" stroke-width="5" stroke-miterlimit="10" x1="223.6" y1="-1278" x2="233.1" y2="-1278"/>
<line fill="none" stroke="#431A94" stroke-width="5" stroke-miterlimit="10" x1="223.6" y1="-1157.9" x2="233.1" y2="-1157.9"/>
<line fill="none" stroke="#431A94" stroke-width="5" stroke-miterlimit="10" x1="223.6" y1="-1218" x2="233.1" y2="-1218"/>
<line fill="none" stroke="#431A94" stroke-width="5" stroke-miterlimit="10" x1="223.6" y1="-1187.9" x2="233.1" y2="-1187.9"/>
<line fill="none" stroke="#431A94" stroke-width="5" stroke-miterlimit="10" x1="223.6" y1="-1338.1" x2="233.1" y2="-1338.1"/>
<line fill="none" stroke="#431A94" stroke-width="5" stroke-miterlimit="10" x1="223.6" y1="-1127.9" x2="233.1" y2="-1127.9"/>
<line fill="none" stroke="#431A94" stroke-width="5" stroke-miterlimit="10" x1="223.6" y1="-1097.9" x2="233.1" y2="-1097.9"/>
<line fill="none" stroke="#431A94" stroke-width="5" stroke-miterlimit="10" x1="223.6" y1="-1067.8" x2="233.1" y2="-1067.8"/>
<line fill="none" stroke="#431A94" stroke-width="5" stroke-miterlimit="10" x1="287.6" y1="-1187.9" x2="357.2" y2="-1187.9"/>
<line fill="none" stroke="#431A94" stroke-width="5" stroke-miterlimit="10" x1="287.6" y1="-1218" x2="387.2" y2="-1218"/>
<line fill="none" stroke="#431A94" stroke-width="5" stroke-miterlimit="10" x1="287.6" y1="-1278" x2="337.2" y2="-1278"/>
<line fill="none" stroke="#431A94" stroke-width="5" stroke-miterlimit="10" x1="287.6" y1="-1308" x2="377.2" y2="-1308"/>
<line fill="none" stroke="#431A94" stroke-width="5" stroke-miterlimit="10" x1="223.6" y1="-1037.8" x2="233.1" y2="-1037.8"/>
<line fill="none" stroke="#431A94" stroke-width="5" stroke-miterlimit="10" x1="223.6" y1="-1007.8" x2="233.1" y2="-1007.8"/>
<line fill="none" stroke="#431A94" stroke-width="5" stroke-miterlimit="10" x1="287.6" y1="-1338.1" x2="357.2" y2="-1338.1"/>
<rect x="579.1" y="-1440.1" fill="none" stroke="#431A94" stroke-width="5" stroke-miterlimit="10" width="600" height="480"/>
<line fill="none" stroke="#431A94" stroke-width="5" stroke-miterlimit="10" x1="579.1" y1="-1388.1" x2="1179.1" y2="-1388.1"/>
<circle fill="none" stroke="#431A94" stroke-width="3" stroke-miterlimit="10" cx="622.8" cy="-1415.3" r="5"/>
<circle fill="none" stroke="#431A94" stroke-width="3" stroke-miterlimit="10" cx="652.9" cy="-1415.3" r="5"/>
<circle fill="none" stroke="#431A94" stroke-width="3" stroke-miterlimit="10" cx="682.9" cy="-1415.3" r="5"/>
<line fill="none" stroke="#431A94" stroke-width="5" stroke-miterlimit="10" x1="684.2" y1="-1338.1" x2="733.8" y2="-1338.1"/>
<line fill="none" stroke="#431A94" stroke-width="5" stroke-miterlimit="10" x1="684.2" y1="-1308" x2="813.9" y2="-1308"/>
<line fill="none" stroke="#431A94" stroke-width="5" stroke-miterlimit="10" x1="684.2" y1="-1278" x2="783.8" y2="-1278"/>
<line fill="none" stroke="#431A94" stroke-width="5" stroke-miterlimit="10" x1="617.2" y1="-1248" x2="626.7" y2="-1248"/>
<line fill="none" stroke="#431A94" stroke-width="5" stroke-miterlimit="10" x1="617.2" y1="-1308" x2="626.7" y2="-1308"/>
<line fill="none" stroke="#431A94" stroke-width="5" stroke-miterlimit="10" x1="617.2" y1="-1278" x2="626.7" y2="-1278"/>
<line fill="none" stroke="#431A94" stroke-width="5" stroke-miterlimit="10" x1="617.2" y1="-1157.9" x2="626.7" y2="-1157.9"/>
<line fill="none" stroke="#431A94" stroke-width="5" stroke-miterlimit="10" x1="617.2" y1="-1218" x2="626.7" y2="-1218"/>
<line fill="none" stroke="#431A94" stroke-width="5" stroke-miterlimit="10" x1="617.2" y1="-1187.9" x2="626.7" y2="-1187.9"/>
<line fill="none" stroke="#431A94" stroke-width="5" stroke-miterlimit="10" x1="617.2" y1="-1338.1" x2="626.7" y2="-1338.1"/>
<line fill="none" stroke="#431A94" stroke-width="5" stroke-miterlimit="10" x1="617.2" y1="-1127.9" x2="626.7" y2="-1127.9"/>
<line fill="none" stroke="#431A94" stroke-width="5" stroke-miterlimit="10" x1="617.2" y1="-1097.9" x2="626.7" y2="-1097.9"/>
<line fill="none" stroke="#431A94" stroke-width="5" stroke-miterlimit="10" x1="617.2" y1="-1067.8" x2="626.7" y2="-1067.8"/>
<line fill="none" stroke="#431A94" stroke-width="5" stroke-miterlimit="10" x1="684.2" y1="-1218" x2="753.8" y2="-1218"/>
<line fill="none" stroke="#431A94" stroke-width="5" stroke-miterlimit="10" x1="684.2" y1="-1187.9" x2="783.8" y2="-1187.9"/>
<line fill="none" stroke="#431A94" stroke-width="5" stroke-miterlimit="10" x1="684.2" y1="-1127.9" x2="753.8" y2="-1127.9"/>
<line fill="none" stroke="#431A94" stroke-width="5" stroke-miterlimit="10" x1="684.2" y1="-1097.9" x2="773.8" y2="-1097.9"/>
<line fill="none" stroke="#431A94" stroke-width="5" stroke-miterlimit="10" x1="617.2" y1="-1037.8" x2="626.7" y2="-1037.8"/>
<line fill="none" stroke="#431A94" stroke-width="5" stroke-miterlimit="10" x1="617.2" y1="-1007.8" x2="626.7" y2="-1007.8"/>
<line fill="none" stroke="#431A94" stroke-width="5" stroke-miterlimit="10" x1="684.2" y1="-1067.8" x2="733.8" y2="-1067.8"/>
<line fill="none" stroke="#431A94" stroke-width="5" stroke-miterlimit="10" x1="684.2" y1="-1157.9" x2="753.8" y2="-1157.9"/>
<g>
	<rect x="-1050.7" y="253" fill="none" stroke="#431A94" stroke-width="5" stroke-miterlimit="10" width="600" height="480"/>
	<line fill="none" stroke="#431A94" stroke-width="5" stroke-miterlimit="10" x1="-1050.7" y1="305" x2="-450.7" y2="305"/>
	<circle fill="none" stroke="#431A94" stroke-width="3" stroke-miterlimit="10" cx="-1007" cy="277.8" r="5"/>
	<circle fill="none" stroke="#431A94" stroke-width="3" stroke-miterlimit="10" cx="-977" cy="277.8" r="5"/>
	<circle fill="none" stroke="#431A94" stroke-width="3" stroke-miterlimit="10" cx="-947" cy="277.8" r="5"/>
	<line fill="none" stroke="#431A94" stroke-width="5" stroke-miterlimit="10" x1="-885.6" y1="355" x2="-836" y2="355"/>
	<line fill="none" stroke="#431A94" stroke-width="5" stroke-miterlimit="10" x1="-885.6" y1="385.1" x2="-756" y2="385.1"/>
	<line fill="none" stroke="#431A94" stroke-width="5" stroke-miterlimit="10" x1="-885.6" y1="415.1" x2="-786" y2="415.1"/>
	<line fill="none" stroke="#431A94" stroke-width="5" stroke-miterlimit="10" x1="-1015.7" y1="385.1" x2="-986.2" y2="385.1"/>
	<line fill="none" stroke="#431A94" stroke-width="5" stroke-miterlimit="10" x1="-1015.7" y1="415.1" x2="-996.2" y2="415.1"/>
	<line fill="none" stroke="#431A94" stroke-width="5" stroke-miterlimit="10" x1="-1015.7" y1="355" x2="-976.2" y2="355"/>
	<line fill="none" stroke="#431A94" stroke-width="5" stroke-miterlimit="10" x1="-885.6" y1="475.1" x2="-816" y2="475.1"/>
	<line fill="none" stroke="#431A94" stroke-width="5" stroke-miterlimit="10" x1="-885.6" y1="505.2" x2="-786" y2="505.2"/>
	<line fill="none" stroke="#431A94" stroke-width="5" stroke-miterlimit="10" x1="-885.6" y1="565.2" x2="-816" y2="565.2"/>
	<line fill="none" stroke="#431A94" stroke-width="5" stroke-miterlimit="10" x1="-885.6" y1="595.2" x2="-796" y2="595.2"/>
	<line fill="none" stroke="#431A94" stroke-width="5" stroke-miterlimit="10" x1="-885.6" y1="625.3" x2="-836" y2="625.3"/>
	<line fill="none" stroke="#431A94" stroke-width="5" stroke-miterlimit="10" x1="-885.6" y1="535.2" x2="-816" y2="535.2"/>
	<line fill="none" stroke="#431A94" stroke-width="5" stroke-miterlimit="10" x1="-947" y1="304.8" x2="-947" y2="731"/>
</g>
<g>
	<circle fill="none" stroke="#431A94" stroke-width="6" stroke-miterlimit="10" cx="501" cy="501" r="230"/>
	<circle fill="none" stroke="#431A94" stroke-width="6" stroke-miterlimit="10" cx="501" cy="512.5" r="16.1"/>
	
		<line fill="none" stroke="#431A94" stroke-width="6" stroke-linecap="round" stroke-miterlimit="10" x1="471.9" y1="541.2" x2="485.5" y2="527.4"/>
	
		<line fill="none" stroke="#431A94" stroke-width="6" stroke-linecap="round" stroke-miterlimit="10" x1="513.1" y1="499.8" x2="629.1" y2="383.2"/>
	<path fill="none" stroke="#431A94" stroke-width="6" stroke-miterlimit="10" d="M487.2,268.7v-32.1c0-7.6,6.2-13.8,13.8-13.8h0
		c7.6,0,13.8,6.2,13.8,13.8v32.1"/>
	<path fill="none" stroke="#431A94" stroke-width="6" stroke-miterlimit="10" d="M486.5,239.2c-19.9-6.2-34.3-24.7-34.3-46.7
		c0-27,21.9-48.9,48.9-48.9s48.9,21.9,48.9,48.9c0,21.8-14.3,40.3-34,46.6"/>
	<path fill="none" stroke="#431A94" stroke-width="6" stroke-linecap="round" stroke-linejoin="round" stroke-miterlimit="10" d="
		M652.6,327.3l11.8-11.6c2.4-2.4,6.3-2.3,8.7,0.1l21.5,21.8c2.4,2.4,2.3,6.3-0.1,8.7l-11.8,11.6"/>
</g>
<g>
	<line fill="none" stroke="#431A94" stroke-width="6" stroke-miterlimit="10" x1="1674.7" y1="731.9" x2="2174.7" y2="731.9"/>
	<polyline fill="none" stroke="#431A94" stroke-width="6" stroke-miterlimit="10" points="2044.6,494.7 2044.6,332.6 1804.7,332.6 
		1804.7,494.7 	"/>
	<polyline fill="none" stroke="#431A94" stroke-width="6" stroke-miterlimit="10" points="2011.3,330.9 2011.3,305.1 1838,305.1 
		1838,330.9 	"/>
	<polyline fill="none" stroke="#431A94" stroke-width="6" stroke-miterlimit="10" points="1977.4,303.4 1977.4,279 1872,279 
		1872,303.4 	"/>
	<polyline fill="none" stroke="#431A94" stroke-width="6" stroke-miterlimit="10" points="1956.3,732 1956.3,410.7 1893,410.7 
		1893,732 	"/>
	<line fill="none" stroke="#431A94" stroke-width="6" stroke-miterlimit="10" x1="1914.5" y1="410.7" x2="1914.5" y2="732"/>
	<line fill="none" stroke="#431A94" stroke-width="6" stroke-miterlimit="10" x1="1934.8" y1="410.7" x2="1934.8" y2="732"/>
	<line fill="none" stroke="#431A94" stroke-width="6" stroke-miterlimit="10" x1="1848.1" y1="363.2" x2="1848.1" y2="377.8"/>
	<line fill="none" stroke="#431A94" stroke-width="6" stroke-miterlimit="10" x1="2001.5" y1="363.2" x2="2001.5" y2="377.8"/>
	<line fill="none" stroke="#431A94" stroke-width="6" stroke-miterlimit="10" x1="1956.3" y1="363.2" x2="1956.3" y2="377.8"/>
	<line fill="none" stroke="#431A94" stroke-width="6" stroke-miterlimit="10" x1="1893" y1="363.2" x2="1893" y2="377.8"/>
	<line fill="none" stroke="#431A94" stroke-width="6" stroke-miterlimit="10" x1="1924.8" y1="363.2" x2="1924.8" y2="377.8"/>
	<polyline fill="none" stroke="#431A94" stroke-width="6" stroke-miterlimit="10" points="2023.1,493.3 2023.1,410.8 1980,410.8 
		1980,493.3 	"/>
	<line fill="none" stroke="#431A94" stroke-width="6" stroke-miterlimit="10" x1="2001.5" y1="410.8" x2="2001.5" y2="493.3"/>
	
		<line fill="none" stroke="#431A94" stroke-width="6" stroke-linecap="round" stroke-miterlimit="10" x1="1924.7" y1="2.6" x2="1924.7" y2="119.6"/>
	<line fill="none" stroke="#431A94" stroke-width="6" stroke-miterlimit="10" x1="1893" y1="277.4" x2="1893" y2="249"/>
	<line fill="none" stroke="#431A94" stroke-width="6" stroke-miterlimit="10" x1="1956.7" y1="277.4" x2="1956.7" y2="249"/>
	
		<line fill="none" stroke="#431A94" stroke-width="6" stroke-linecap="round" stroke-linejoin="round" stroke-miterlimit="10" x1="1893" y1="249" x2="1899" y2="243"/>
	
		<line fill="none" stroke="#431A94" stroke-width="6" stroke-linecap="round" stroke-linejoin="round" stroke-miterlimit="10" x1="1956.7" y1="249" x2="1950.7" y2="243"/>
	
		<line fill="none" stroke="#431A94" stroke-width="6" stroke-linecap="round" stroke-miterlimit="10" x1="1899" y1="242.7" x2="1899" y2="222.9"/>
	
		<line fill="none" stroke="#431A94" stroke-width="6" stroke-linecap="round" stroke-miterlimit="10" x1="1950.7" y1="242.7" x2="1950.7" y2="222.9"/>
	
		<line fill="none" stroke="#431A94" stroke-width="6" stroke-linecap="round" stroke-linejoin="round" stroke-miterlimit="10" x1="1899" y1="222.9" x2="1905" y2="217"/>
	
		<line fill="none" stroke="#431A94" stroke-width="6" stroke-linecap="round" stroke-linejoin="round" stroke-miterlimit="10" x1="1950.7" y1="222.9" x2="1944.7" y2="217"/>
	
		<line fill="none" stroke="#431A94" stroke-width="6" stroke-linecap="round" stroke-miterlimit="10" x1="1905" y1="216.6" x2="1905" y2="144.8"/>
	
		<line fill="none" stroke="#431A94" stroke-width="6" stroke-linecap="round" stroke-miterlimit="10" x1="1944.7" y1="216.6" x2="1944.7" y2="144.8"/>
	<line fill="none" stroke="#431A94" stroke-width="6" stroke-miterlimit="10" x1="1905" y1="144.8" x2="1944.7" y2="144.8"/>
	<line fill="none" stroke="#431A94" stroke-width="6" stroke-miterlimit="10" x1="1865.9" y1="317.3" x2="1865.9" y2="321.2"/>
	<line fill="none" stroke="#431A94" stroke-width="6" stroke-miterlimit="10" x1="1924.7" y1="317.3" x2="1924.7" y2="321.2"/>
	<line fill="none" stroke="#431A94" stroke-width="6" stroke-miterlimit="10" x1="1956.3" y1="317.3" x2="1956.3" y2="321.2"/>
	<line fill="none" stroke="#431A94" stroke-width="6" stroke-miterlimit="10" x1="1984.3" y1="317.3" x2="1984.3" y2="321.2"/>
	<line fill="none" stroke="#431A94" stroke-width="6" stroke-miterlimit="10" x1="1893" y1="317.3" x2="1893" y2="321.2"/>
	<line fill="none" stroke="#431A94" stroke-width="6" stroke-miterlimit="10" x1="1924.7" y1="289.8" x2="1924.7" y2="293.7"/>
	<line fill="none" stroke="#431A94" stroke-width="6" stroke-miterlimit="10" x1="1956.3" y1="289.8" x2="1956.3" y2="293.7"/>
	<line fill="none" stroke="#431A94" stroke-width="6" stroke-miterlimit="10" x1="1893" y1="289.8" x2="1893" y2="293.7"/>
	<path fill="none" stroke="#431A94" stroke-width="6" stroke-linecap="round" stroke-linejoin="round" stroke-miterlimit="10" d="
		M1912.4,144.2V134c0-6,6.3-12.3,12.3-12.3l0,0c6,0,12.3,6.3,12.3,12.3v10.1"/>
	<polyline fill="none" stroke="#431A94" stroke-width="6" stroke-miterlimit="10" points="2075.2,731.7 2075.2,671.1 1974.2,671.1 
		1974.2,731.7 	"/>
	<polyline fill="none" stroke="#431A94" stroke-width="6" stroke-miterlimit="10" points="2066.5,670.9 2066.5,493.2 1980,493.2 
		1980,670.9 	"/>
	<line fill="none" stroke="#431A94" stroke-width="6" stroke-miterlimit="10" x1="2001.5" y1="515.4" x2="2001.5" y2="671.1"/>
	<line fill="none" stroke="#431A94" stroke-width="6" stroke-miterlimit="10" x1="2023.2" y1="515.4" x2="2023.2" y2="671.1"/>
	<line fill="none" stroke="#431A94" stroke-width="6" stroke-miterlimit="10" x1="2044.9" y1="515.4" x2="2044.9" y2="671.1"/>
	<line fill="none" stroke="#431A94" stroke-width="6" stroke-miterlimit="10" x1="1994.3" y1="691.3" x2="1994.3" y2="731.9"/>
	<line fill="none" stroke="#431A94" stroke-width="6" stroke-miterlimit="10" x1="2014.6" y1="691.3" x2="2014.6" y2="731.9"/>
	<line fill="none" stroke="#431A94" stroke-width="6" stroke-miterlimit="10" x1="2034.8" y1="691.3" x2="2034.8" y2="731.9"/>
	<line fill="none" stroke="#431A94" stroke-width="6" stroke-miterlimit="10" x1="2056.5" y1="691.3" x2="2056.5" y2="731.9"/>
	<line fill="none" stroke="#431A94" stroke-width="6" stroke-miterlimit="10" x1="1908.6" y1="289.8" x2="1908.6" y2="293.7"/>
	<line fill="none" stroke="#431A94" stroke-width="6" stroke-miterlimit="10" x1="1940.7" y1="289.8" x2="1940.7" y2="293.7"/>
	<line fill="none" stroke="#431A94" stroke-width="6" stroke-miterlimit="10" x1="1908.6" y1="317.3" x2="1908.6" y2="321.2"/>
	<line fill="none" stroke="#431A94" stroke-width="6" stroke-miterlimit="10" x1="1940.7" y1="317.3" x2="1940.7" y2="321.2"/>
	<polyline fill="none" stroke="#431A94" stroke-width="6" stroke-miterlimit="10" points="1825.1,493.3 1825.1,410.8 1868.2,410.8 
		1868.2,493.3 	"/>
	<line fill="none" stroke="#431A94" stroke-width="6" stroke-miterlimit="10" x1="1846.7" y1="410.8" x2="1846.7" y2="493.3"/>
	<polyline fill="none" stroke="#431A94" stroke-width="6" stroke-miterlimit="10" points="1773,731.7 1773,671.1 1874,671.1 
		1874,731.7 	"/>
	<polyline fill="none" stroke="#431A94" stroke-width="6" stroke-miterlimit="10" points="1781.7,670.9 1781.7,493.2 1868.2,493.2 
		1868.2,670.9 	"/>
	<line fill="none" stroke="#431A94" stroke-width="6" stroke-miterlimit="10" x1="1846.7" y1="515.4" x2="1846.7" y2="671.1"/>
	<line fill="none" stroke="#431A94" stroke-width="6" stroke-miterlimit="10" x1="1825" y1="515.4" x2="1825" y2="671.1"/>
	<line fill="none" stroke="#431A94" stroke-width="6" stroke-miterlimit="10" x1="1803.3" y1="515.4" x2="1803.3" y2="671.1"/>
	<line fill="none" stroke="#431A94" stroke-width="6" stroke-miterlimit="10" x1="1792.1" y1="691.3" x2="1792.1" y2="731.9"/>
	<line fill="none" stroke="#431A94" stroke-width="6" stroke-miterlimit="10" x1="1812.4" y1="691.3" x2="1812.4" y2="731.9"/>
	<line fill="none" stroke="#431A94" stroke-width="6" stroke-miterlimit="10" x1="1832.7" y1="691.3" x2="1832.7" y2="731.9"/>
	<line fill="none" stroke="#431A94" stroke-width="6" stroke-miterlimit="10" x1="1854.4" y1="691.3" x2="1854.4" y2="731.9"/>
</g>
</svg>
