<?xml version="1.0" encoding="UTF-8" standalone="no"?>
<svg width="200px" height="200px" viewBox="0 0 200 200" version="1.1" xmlns="http://www.w3.org/2000/svg" xmlns:xlink="http://www.w3.org/1999/xlink" xmlns:sketch="http://www.bohemiancoding.com/sketch/ns">
    <!-- Generator: Sketch 3.5.2 (25235) - http://www.bohemiancoding.com/sketch -->
    <title>experienced</title>
    <desc>Created with Sketch.</desc>
    <defs></defs>
    <g id="Design" stroke="none" stroke-width="1" fill="none" fill-rule="evenodd" sketch:type="MSPage">
        <g id="experienced" sketch:type="MSArtboardGroup" stroke="#000000">
            <g id="Page-1" sketch:type="MSLayerGroup" transform="translate(40.000000, 46.000000)">
                <path d="M59.9635743,33.1704731 C93.0251959,33.1704731 119.825736,59.9374711 119.825736,92.9550009 C119.825736,125.973948 93.0251959,152.740946 59.9635743,152.740946 C26.9019527,152.740946 0.101412162,125.973948 0.101412162,92.9550009 C0.101412162,59.9374711 26.9019527,33.1704731 59.9635743,33.1704731 L59.9635743,33.1704731 Z" id="Stroke-1" sketch:type="MSShapeGroup"></path>
                <path d="M59.9635743,91.759776 C62.2780338,91.759776 64.1538446,93.6331541 64.1538446,95.944612 C64.1538446,98.2558674 62.2780338,100.129245 59.9635743,100.129245 C57.6491149,100.129245 55.7733041,98.2558674 55.7733041,95.944612 C55.7733041,93.6331541 57.6491149,91.759776 59.9635743,91.759776 L59.9635743,91.759776 Z" id="Stroke-3" sketch:type="MSShapeGroup"></path>
                <path d="M52,103 L56.5,98.6551724" id="Stroke-5" stroke-linecap="round" sketch:type="MSShapeGroup"></path>
                <path d="M63,93 L93,63" id="Stroke-7" stroke-linecap="round" sketch:type="MSShapeGroup"></path>
                <path d="M56.3718851,33.6420395 L56.3718851,24.5503776 C56.3718851,22.397902 57.944253,20.6420395 59.8719839,20.6420395 C61.7995173,20.6420395 63.3718851,22.397902 63.3718851,24.5503776 L63.3718851,33.6420395" id="Stroke-9" sketch:type="MSShapeGroup"></path>
                <path d="M56.1895946,24.9045314 C51.0103378,23.2931104 47.2623649,18.4847598 47.2623649,12.7660373 C47.2623649,5.74724626 52.9625676,0.0544360677 59.9892568,0.0544360677 C67.0173649,0.0544360677 72.7163514,5.74724626 72.7163514,12.7660373 C72.7163514,18.431923 68.9953378,23.2414882 63.867973,24.8786191" id="Stroke-11" sketch:type="MSShapeGroup"></path>
                <path d="M99.4207703,47.804787 L102.491311,44.7898508 C103.117054,44.1661337 104.131986,44.192046 104.756514,44.8157631 L110.351919,50.482661 C110.976446,51.1063781 110.9505,52.1199942 110.326176,52.7435089 L107.255432,55.7584451" id="Stroke-13" stroke-linecap="round" stroke-linejoin="round" sketch:type="MSShapeGroup"></path>
            </g>
        </g>
    </g>
</svg>