<?xml version="1.0" encoding="utf-8"?>
<!-- Generator: Adobe Illustrator 18.1.0, SVG Export Plug-In . SVG Version: 6.00 Build 0)  -->
<svg version="1.1" id="Layer_1" xmlns="http://www.w3.org/2000/svg" xmlns:xlink="http://www.w3.org/1999/xlink" x="0px" y="0px"
	 viewBox="0 0 636 491" enable-background="new 0 0 636 491" xml:space="preserve">
<g>
	<g>
		<path fill="#462F8E" d="M564,325.3c2.2,0,4,1.8,4,4V481c0,2.2-1.8,4-4,4H352.3c-2.2,0-4-1.8-4-4V329.3c0-2.2,1.8-4,4-4H564
			 M564,321.3H352.3c-4.4,0-8,3.6-8,8V481c0,4.4,3.6,8,8,8H564c4.4,0,8-3.6,8-8V329.3C572,324.8,568.4,321.3,564,321.3L564,321.3z"
			/>
	</g>
	<path fill="#462F8E" d="M569.1,353.5h-222v-24.7c0-3,2.4-5.3,5.3-5.3h211.3c3,0,5.3,2.4,5.3,5.3V353.5z"/>
	<line fill="none" stroke="#462F8E" stroke-width="6" stroke-miterlimit="10" x1="370.5" y1="380.6" x2="450.3" y2="380.6"/>
	<line fill="none" stroke="#462F8E" stroke-width="3" stroke-miterlimit="10" x1="370.5" y1="405.7" x2="520.3" y2="405.7"/>
	<circle fill="none" stroke="#462F8E" stroke-width="3" stroke-miterlimit="10" cx="535.6" cy="454.3" r="10"/>
	<path fill="none" stroke="#462F8E" stroke-width="3" stroke-miterlimit="10" d="M406.5,464.3h-25c-5.5,0-10-4.5-10-10v0
		c0-5.5,4.5-10,10-10h25c5.5,0,10,4.5,10,10v0C416.5,459.8,412,464.3,406.5,464.3z"/>
</g>
<g>
	<path fill="#462F8E" d="M283.7,325.3c2.2,0,4,1.8,4,4V481c0,2.2-1.8,4-4,4H72c-2.2,0-4-1.8-4-4V329.3c0-2.2,1.8-4,4-4H283.7
		 M283.7,321.3H72c-4.4,0-8,3.6-8,8V481c0,4.4,3.6,8,8,8h211.7c4.4,0,8-3.6,8-8V329.3C291.7,324.8,288.1,321.3,283.7,321.3
		L283.7,321.3z"/>
</g>
<path fill="#462F8E" d="M288.9,353.5h-222v-24.7c0-3,2.4-5.3,5.3-5.3h211.3c3,0,5.3,2.4,5.3,5.3V353.5z"/>
<line fill="none" stroke="#462F8E" stroke-width="6" stroke-miterlimit="10" x1="90.3" y1="380.6" x2="170.1" y2="380.6"/>
<line fill="none" stroke="#462F8E" stroke-width="3" stroke-miterlimit="10" x1="90.3" y1="405.7" x2="240.1" y2="405.7"/>
<circle fill="none" stroke="#462F8E" stroke-width="3" stroke-miterlimit="10" cx="255.4" cy="454.3" r="10"/>
<path fill="none" stroke="#462F8E" stroke-width="3" stroke-miterlimit="10" d="M126.2,464.3h-25c-5.5,0-10-4.5-10-10v0
	c0-5.5,4.5-10,10-10h25c5.5,0,10,4.5,10,10v0C136.2,459.8,131.7,464.3,126.2,464.3z"/>
<line fill="none" stroke="#462F8E" stroke-width="8" stroke-miterlimit="10" x1="90.3" y1="46.4" x2="300.2" y2="46.4"/>
<line fill="none" stroke="#462F8E" stroke-width="3" stroke-miterlimit="10" x1="90.3" y1="99.4" x2="545.4" y2="99.4"/>
<g>
	<g>
		<path fill="#462F8E" d="M564,5c2.2,0,4,1.8,4,4v261.9c0,2.2-1.8,4-4,4H72c-2.2,0-4-1.8-4-4V9c0-2.2,1.8-4,4-4H564 M564,1H72
			c-4.4,0-8,3.6-8,8v261.9c0,4.4,3.6,8,8,8H564c4.4,0,8-3.6,8-8V9C572,4.6,568.4,1,564,1L564,1z"/>
	</g>
</g>
<rect x="90.7" y="229.4" fill="#462F8E" width="70" height="25"/>
<line fill="none" stroke="#462F8E" stroke-width="3" stroke-miterlimit="10" x1="90.3" y1="139.4" x2="545.4" y2="139.4"/>
<line fill="none" stroke="#462F8E" stroke-width="3" stroke-miterlimit="10" x1="90.3" y1="179.5" x2="545.4" y2="179.5"/>
</svg>
