<?xml version="1.0" encoding="utf-8"?>
<!-- Generator: Adobe Illustrator 18.1.0, SVG Export Plug-In . SVG Version: 6.00 Build 0)  -->
<svg version="1.1" id="Layer_1" xmlns="http://www.w3.org/2000/svg" xmlns:xlink="http://www.w3.org/1999/xlink" x="0px" y="0px"
	 viewBox="0 0 636 491" enable-background="new 0 0 636 491" xml:space="preserve">
<g>
	<g>
		<path fill="#462F8E" d="M576.7,325.3c2.2,0,4,1.8,4,4V481c0,2.2-1.8,4-4,4H365c-2.2,0-4-1.8-4-4V329.3c0-2.2,1.8-4,4-4H576.7
			 M576.7,321.3H365c-4.4,0-8,3.6-8,8V481c0,4.4,3.6,8,8,8h211.7c4.4,0,8-3.6,8-8V329.3C584.7,324.8,581.1,321.3,576.7,321.3
			L576.7,321.3z"/>
	</g>
	<path fill="#462F8E" d="M581.9,353.5h-222v-24.7c0-3,2.4-5.3,5.3-5.3h211.3c3,0,5.3,2.4,5.3,5.3V353.5z"/>
	<line fill="none" stroke="#462F8E" stroke-width="6" stroke-miterlimit="10" x1="383.3" y1="380.6" x2="463.1" y2="380.6"/>
	<line fill="none" stroke="#462F8E" stroke-width="3" stroke-miterlimit="10" x1="383.3" y1="405.7" x2="533.1" y2="405.7"/>
	<circle fill="none" stroke="#462F8E" stroke-width="3" stroke-miterlimit="10" cx="548.4" cy="454.3" r="10"/>
	<path fill="none" stroke="#462F8E" stroke-width="3" stroke-miterlimit="10" d="M419.2,464.3h-25c-5.5,0-10-4.5-10-10v0
		c0-5.5,4.5-10,10-10h25c5.5,0,10,4.5,10,10v0C429.2,459.8,424.7,464.3,419.2,464.3z"/>
</g>
<g>
	<path fill="#462F8E" d="M276.5,325.3c2.2,0,4,1.8,4,4V481c0,2.2-1.8,4-4,4H64.8c-2.2,0-4-1.8-4-4V329.3c0-2.2,1.8-4,4-4H276.5
		 M276.5,321.3H64.8c-4.4,0-8,3.6-8,8V481c0,4.4,3.6,8,8,8h211.7c4.4,0,8-3.6,8-8V329.3C284.5,324.8,280.9,321.3,276.5,321.3
		L276.5,321.3z"/>
</g>
<path fill="#462F8E" d="M281.6,353.5h-222v-24.7c0-3,2.4-5.3,5.3-5.3h211.3c3,0,5.3,2.4,5.3,5.3V353.5z"/>
<line fill="none" stroke="#462F8E" stroke-width="6" stroke-miterlimit="10" x1="83" y1="380.6" x2="162.8" y2="380.6"/>
<line fill="none" stroke="#462F8E" stroke-width="3" stroke-miterlimit="10" x1="83" y1="405.7" x2="232.9" y2="405.7"/>
<circle fill="none" stroke="#462F8E" stroke-width="3" stroke-miterlimit="10" cx="248.1" cy="454.3" r="10"/>
<path fill="none" stroke="#462F8E" stroke-width="3" stroke-miterlimit="10" d="M119,464.3H94c-5.5,0-10-4.5-10-10v0
	c0-5.5,4.5-10,10-10h25c5.5,0,10,4.5,10,10v0C129,459.8,124.5,464.3,119,464.3z"/>
<line fill="none" stroke="#462F8E" stroke-width="8" stroke-miterlimit="10" x1="101.1" y1="48.4" x2="310.9" y2="48.4"/>
<line fill="none" stroke="#462F8E" stroke-width="3" stroke-miterlimit="10" x1="101.1" y1="98.4" x2="540.1" y2="98.4"/>
<g>
	<g>
		<path fill="#462F8E" d="M576.7,5c2.2,0,4,1.8,4,4v241.8c0,2.2-1.8,4-4,4H64.8c-2.2,0-4-1.8-4-4V9c0-2.2,1.8-4,4-4H576.7 M576.7,1
			H64.8c-4.4,0-8,3.6-8,8v241.8c0,4.4,3.6,8,8,8h511.9c4.4,0,8-3.6,8-8V9C584.7,4.6,581.1,1,576.7,1L576.7,1z"/>
	</g>
</g>
<rect x="101.5" y="189.4" fill="#462F8E" width="70" height="25"/>
<line fill="none" stroke="#462F8E" stroke-width="3" stroke-miterlimit="10" x1="101.1" y1="143.4" x2="540.1" y2="143.4"/>
</svg>
