<?xml version="1.0" encoding="utf-8"?>
<!-- Generator: Adobe Illustrator 18.1.0, SVG Export Plug-In . SVG Version: 6.00 Build 0)  -->
<svg version="1.1" id="Layer_1" xmlns="http://www.w3.org/2000/svg" xmlns:xlink="http://www.w3.org/1999/xlink" x="0px" y="0px"
	 viewBox="0 0 1000 737" enable-background="new 0 0 1000 737" xml:space="preserve">
<g>
	<g>
		<path fill="#431A94" d="M744,572.2c2.2,0,4,1.8,4,4V728c0,2.2-1.8,4-4,4H532.3c-2.2,0-4-1.8-4-4V576.2c0-2.2,1.8-4,4-4H744
			 M744,568.2H532.3c-4.4,0-8,3.6-8,8V728c0,4.4,3.6,8,8,8H744c4.4,0,8-3.6,8-8V576.2C752,571.8,748.4,568.2,744,568.2L744,568.2z"
			/>
	</g>
	<path fill="#431A94" d="M748.2,600.5h-222v-24.7c0-3,2.4-5.3,5.3-5.3h211.3c3,0,5.3,2.4,5.3,5.3V600.5z"/>
	<line fill="none" stroke="#431B94" stroke-width="6" stroke-miterlimit="10" x1="550.6" y1="627.6" x2="630.4" y2="627.6"/>
	<line fill="none" stroke="#431B94" stroke-width="3" stroke-miterlimit="10" x1="550.6" y1="652.6" x2="700.4" y2="652.6"/>
	<circle fill="none" stroke="#431B94" stroke-width="3" stroke-miterlimit="10" cx="715.7" cy="701.3" r="10"/>
	<path fill="none" stroke="#431B94" stroke-width="3" stroke-miterlimit="10" d="M586.5,711.3h-25c-5.5,0-10-4.5-10-10l0,0
		c0-5.5,4.5-10,10-10h25c5.5,0,10,4.5,10,10l0,0C596.5,706.8,592,711.3,586.5,711.3z"/>
</g>
<g>
	<path fill="#431A94" d="M463.8,572.2c2.2,0,4,1.8,4,4V728c0,2.2-1.8,4-4,4H252.1c-2.2,0-4-1.8-4-4V576.2c0-2.2,1.8-4,4-4H463.8
		 M463.8,568.2H252.1c-4.4,0-8,3.6-8,8V728c0,4.4,3.6,8,8,8h211.7c4.4,0,8-3.6,8-8V576.2C471.8,571.8,468.2,568.2,463.8,568.2
		L463.8,568.2z"/>
</g>
<path fill="#431A94" d="M468,600.5H246v-24.7c0-3,2.4-5.3,5.3-5.3h211.3c3,0,5.3,2.4,5.3,5.3V600.5z"/>
<line fill="none" stroke="#431B94" stroke-width="6" stroke-miterlimit="10" x1="270.4" y1="627.6" x2="350.1" y2="627.6"/>
<line fill="none" stroke="#431B94" stroke-width="3" stroke-miterlimit="10" x1="270.4" y1="652.6" x2="420.2" y2="652.6"/>
<circle fill="none" stroke="#431B94" stroke-width="3" stroke-miterlimit="10" cx="435.4" cy="701.3" r="10"/>
<path fill="none" stroke="#431B94" stroke-width="3" stroke-miterlimit="10" d="M306.3,711.3h-25c-5.5,0-10-4.5-10-10l0,0
	c0-5.5,4.5-10,10-10h25c5.5,0,10,4.5,10,10l0,0C316.3,706.8,311.8,711.3,306.3,711.3z"/>
<line fill="none" stroke="#431B94" stroke-width="8" stroke-miterlimit="10" x1="270.4" y1="293.3" x2="480.2" y2="293.3"/>
<line fill="none" stroke="#431B94" stroke-width="3" stroke-miterlimit="10" x1="270.4" y1="346.4" x2="725.4" y2="346.4"/>
<g>
	<g>
		<path fill="#431A94" d="M744,252c2.2,0,4,1.8,4,4v261.9c0,2.2-1.8,4-4,4H252.1c-2.2,0-4-1.8-4-4V256c0-2.2,1.8-4,4-4H744 M744,248
			H252.1c-4.4,0-8,3.6-8,8v261.9c0,4.4,3.6,8,8,8H744c4.4,0,8-3.6,8-8V256C752,251.6,748.4,248,744,248L744,248z"/>
	</g>
</g>
<rect x="270.8" y="476.4" fill="#431A94" width="70" height="25"/>
<line fill="none" stroke="#431B94" stroke-width="3" stroke-miterlimit="10" x1="270.4" y1="386.4" x2="725.4" y2="386.4"/>
<line fill="none" stroke="#431B94" stroke-width="3" stroke-miterlimit="10" x1="270.4" y1="426.4" x2="725.4" y2="426.4"/>
</svg>
