<?xml version="1.0" encoding="utf-8"?>
<!-- Generator: Adobe Illustrator 18.1.0, SVG Export Plug-In . SVG Version: 6.00 Build 0)  -->
<svg version="1.1" id="Layer_1" xmlns="http://www.w3.org/2000/svg" xmlns:xlink="http://www.w3.org/1999/xlink" x="0px" y="0px"
	 viewBox="109.1 0 781.5 1000" enable-background="new 109.1 0 781.5 1000" xml:space="preserve">
<path fill="none" stroke="#FFFFFF" stroke-width="8" stroke-linecap="round" stroke-linejoin="round" stroke-miterlimit="10" d="
	M802.2,269.4v427.3c0,152.2-80.9,262.2-217.6,296.4c-24.2,6-58.9-26.2-85.8-26.2c-37.6,0-68.4,36-100.4,24.4
	c-120.9-43.6-202.9-153.1-202.9-294.7V250.3c0-1.7,2.3-2.3,3.1-0.8c14.4,27.3,77.6,125.7,152,137.4c120,18.9,206-68.4,214.4-114
	c16,21.6,77.3,52.9,146,49.6c51.3-2.4,90.1-50.2,90.3-52"/>
<ellipse fill="none" stroke="#FFFFFF" stroke-width="8" stroke-miterlimit="10" cx="342.2" cy="589.4" rx="55.3" ry="55.3"/>
<ellipse fill="none" stroke="#FFFFFF" stroke-width="8" stroke-miterlimit="10" cx="660" cy="589.4" rx="55.3" ry="55.3"/>
<ellipse fill="#FFFFFF" stroke="#FFFFFF" stroke-width="8" stroke-miterlimit="10" cx="325.6" cy="604.5" rx="15.6" ry="15.6"/>
<ellipse fill="#FFFFFF" stroke="#FFFFFF" stroke-width="8" stroke-miterlimit="10" cx="642.2" cy="604.5" rx="15.6" ry="15.6"/>
<path fill="none" stroke="#FFFFFF" stroke-width="8" stroke-linecap="round" stroke-linejoin="round" stroke-miterlimit="10" d="
	M505.6,557.6c0.9,25.1,5.1,50.9-1.1,75.3c-3.1,12-9.8,22.9-16.2,33.6c-4.7,7.6-9.1,15.3-10.9,23.8c-0.4,2-0.7,4-0.2,6
	c0.4,2.2,2,4.2,3.6,6c10.9,11.8,30,15.1,44.2,7.6"/>
<path fill="none" stroke="#FFFFFF" stroke-width="8" stroke-linecap="round" stroke-linejoin="round" stroke-miterlimit="10" d="
	M283.1,487.8c8.9-12,102.9-18.4,109.3-13.3"/>
<path fill="none" stroke="#FFFFFF" stroke-width="8" stroke-linecap="round" stroke-linejoin="round" stroke-miterlimit="10" d="
	M714.7,487.8c-8.9-12-102.9-18.4-109.3-13.3"/>
<path fill="none" stroke="#FFFFFF" stroke-width="8" stroke-linecap="round" stroke-linejoin="round" stroke-miterlimit="10" d="
	M192.7,475.6c-39.8,0-76.9,46.7-76.9,91.8s37.3,91.8,76.9,91.8"/>
<path fill="none" stroke="#FFFFFF" stroke-width="8" stroke-linecap="round" stroke-linejoin="round" stroke-miterlimit="10" d="
	M415.8,811.8c2.4,25.3,61.3,40.2,131.3,33.3"/>
<path fill="none" stroke="#FFFFFF" stroke-width="8" stroke-linecap="round" stroke-linejoin="round" stroke-miterlimit="10" d="
	M805.3,649.2c39.8,0,77.9-46.7,77.9-91.8s-38.3-81.8-77.9-81.8"/>
<path fill="none" stroke="#FFFFFF" stroke-width="8" stroke-miterlimit="10" d="M149.3,492.8V182.5v1.3C149.3,118.2,305.7,5,498.6,5
	s349.3,113.2,349.3,178.8v-1.3v308.3"/>
</svg>
