<?xml version="1.0" encoding="utf-8"?>
<!-- Generator: Adobe Illustrator 18.1.0, SVG Export Plug-In . SVG Version: 6.00 Build 0)  -->
<svg version="1.1" id="Layer_1" xmlns="http://www.w3.org/2000/svg" xmlns:xlink="http://www.w3.org/1999/xlink" x="0px" y="0px"
	 viewBox="122 0 756.5 1000" enable-background="new 122 0 756.5 1000" xml:space="preserve">
<path fill="none" stroke="#FFFFFF" stroke-width="6" stroke-linecap="round" stroke-linejoin="round" stroke-miterlimit="10" d="
	M803.2,266.4v427.3c0,152.2-80.9,262.2-217.6,296.4c-24.2,6-58.9-26.2-85.8-26.2c-37.6,0-68.4,36-100.4,24.4
	c-120.9-43.6-202.9-153.1-202.9-294.7v-454c0,4.9,70.2,130.9,155.1,144.2c120,18.9,206-68.4,214.4-114c16,21.6,77.3,52.9,146,49.6
	c51.3-2.4,91.1-50.2,91.3-52"/>
<ellipse fill="none" stroke="#FFFFFF" stroke-width="6" stroke-miterlimit="10" cx="343.2" cy="586.4" rx="55.3" ry="55.3"/>
<ellipse fill="none" stroke="#FFFFFF" stroke-width="6" stroke-miterlimit="10" cx="661" cy="586.4" rx="55.3" ry="55.3"/>
<ellipse fill="#FFFFFF" stroke="#FFFFFF" stroke-width="6" stroke-miterlimit="10" cx="326.6" cy="601.5" rx="15.6" ry="15.6"/>
<ellipse fill="#FFFFFF" stroke="#FFFFFF" stroke-width="6" stroke-miterlimit="10" cx="643.2" cy="601.5" rx="15.6" ry="15.6"/>
<line fill="none" stroke="#FFFFFF" stroke-width="6" stroke-linecap="round" stroke-linejoin="round" stroke-miterlimit="10" x1="150.3" y1="489.8" x2="150.3" y2="179.5"/>
<path fill="none" stroke="#FFFFFF" stroke-width="6" stroke-linecap="round" stroke-linejoin="round" stroke-miterlimit="10" d="
	M506.6,554.6c0.9,25.1,5.1,50.9-1.1,75.3c-3.1,12-9.8,22.9-16.2,33.6c-4.7,7.6-9.1,15.3-10.9,23.8c-0.4,2-0.7,4-0.2,6
	c0.4,2.2,2,4.2,3.6,6c10.9,11.8,30,15.1,44.2,7.6"/>
<path fill="none" stroke="#FFFFFF" stroke-width="6" stroke-linecap="round" stroke-linejoin="round" stroke-miterlimit="10" d="
	M284.1,484.8c8.9-12,102.9-18.4,109.3-13.3"/>
<path fill="none" stroke="#FFFFFF" stroke-width="6" stroke-linecap="round" stroke-linejoin="round" stroke-miterlimit="10" d="
	M715.7,484.8c-8.9-12-102.9-18.4-109.3-13.3"/>
<path fill="none" stroke="#FFFFFF" stroke-width="6" stroke-linecap="round" stroke-linejoin="round" stroke-miterlimit="10" d="
	M193.7,472.6c-39.8,0-67.9,36.7-67.9,81.8s28.3,81.8,67.9,81.8"/>
<path fill="none" stroke="#FFFFFF" stroke-width="6" stroke-linecap="round" stroke-linejoin="round" stroke-miterlimit="10" d="
	M416.8,808.8c2.4,25.3,61.3,40.2,131.3,33.3"/>
<path fill="none" stroke="#FFFFFF" stroke-width="6" stroke-linecap="round" stroke-linejoin="round" stroke-miterlimit="10" d="
	M806.3,636.2c39.8,0,67.9-36.7,67.9-81.8s-28.3-81.8-67.9-81.8"/>
<line fill="none" stroke="#FFFFFF" stroke-width="6" stroke-linecap="round" stroke-linejoin="round" stroke-miterlimit="10" x1="848.9" y1="489.8" x2="848.9" y2="179.5"/>
<path fill="none" stroke="#FFFFFF" stroke-width="6" stroke-miterlimit="10" d="M848.9,180.8C848.9,115.2,692.5,2,499.6,2
	S150.3,115.2,150.3,180.8"/>
</svg>
