<?xml version="1.0" encoding="utf-8"?>
<!-- Generator: Adobe Illustrator 18.1.0, SVG Export Plug-In . SVG Version: 6.00 Build 0)  -->
<svg version="1.1" id="Layer_1" xmlns="http://www.w3.org/2000/svg" xmlns:xlink="http://www.w3.org/1999/xlink" x="0px" y="0px"
	 viewBox="631.1 438 358 450" enable-background="new 631.1 438 358 450" xml:space="preserve">
<path fill="none" stroke="#FFFFFF" stroke-width="4" stroke-linecap="round" stroke-linejoin="round" stroke-miterlimit="10" d="
	M945.8,559.1v192.3c0,68.5-36.4,118-97.9,133.4c-10.9,2.7-26.5-11.8-38.6-11.8c-16.9,0-30.8,16.2-45.2,11
	c-54.4-19.6-91.3-68.9-91.3-132.6V547.1c0,2.2,30.6,51.4,68.3,59.9c47.3,10.7,104.2-35.8,108-56.4c10.4,19.3,26.3,39,55.7,32.4
	c22.6-5.1,41-22.6,41.1-23.4"/>
<ellipse fill="none" stroke="#FFFFFF" stroke-width="4" stroke-miterlimit="10" cx="738.8" cy="703.1" rx="24.9" ry="24.9"/>
<ellipse fill="none" stroke="#FFFFFF" stroke-width="4" stroke-miterlimit="10" cx="881.8" cy="703.1" rx="24.9" ry="24.9"/>
<ellipse fill="#FFFFFF" stroke="#FFFFFF" stroke-width="4" stroke-miterlimit="10" cx="731.3" cy="708.1" rx="7" ry="7"/>
<ellipse fill="#FFFFFF" stroke="#FFFFFF" stroke-width="4" stroke-miterlimit="10" cx="873.8" cy="708.1" rx="7" ry="7"/>
<path fill="none" stroke="#FFFFFF" stroke-width="4" stroke-linecap="round" stroke-linejoin="round" stroke-miterlimit="10" d="
	M830,826c19.5,3.8,37.9-6.8,41.3-23.9"/>
<line fill="none" stroke="#FFFFFF" stroke-width="4" stroke-linecap="round" stroke-linejoin="round" stroke-miterlimit="10" x1="644.8" y1="634.3" x2="644.8" y2="508.5"/>
<line fill="none" stroke="#FFFFFF" stroke-width="4" stroke-linecap="round" stroke-linejoin="round" stroke-miterlimit="10" x1="971.9" y1="518.6" x2="971.9" y2="633.3"/>
<path fill="none" stroke="#FFFFFF" stroke-width="4" stroke-miterlimit="10" d="M644.8,529.1c0-16.6-0.4-22,12.9-35.2
	c27.1-27,94-48.9,152.1-48.9c57.8,0,122.4,21.7,149.1,48.3c13.4,13.4,13,9,13,25.8"/>
<path fill="none" stroke="#FFFFFF" stroke-width="4" stroke-linecap="round" stroke-linejoin="round" stroke-miterlimit="10" d="
	M712.2,657.4c4-5.4,46.3-8.3,49.2-6"/>
<path fill="none" stroke="#FFFFFF" stroke-width="4" stroke-linecap="round" stroke-linejoin="round" stroke-miterlimit="10" d="
	M906.4,657.4c-4-5.4-46.3-8.3-49.2-6"/>
<path fill="none" stroke="#FFFFFF" stroke-width="4" stroke-linecap="round" stroke-linejoin="round" stroke-miterlimit="10" d="
	M661.5,651.9c-17.9,0-28.3,16.5-28.3,36.8c0,20.3,10.5,36.8,28.3,36.8"/>
<path fill="none" stroke="#FFFFFF" stroke-width="4" stroke-linecap="round" stroke-linejoin="round" stroke-miterlimit="10" d="
	M957.4,651.9c17.9,0,28.3,16.5,28.3,36.8c0,20.3-10.5,36.8-28.3,36.8"/>
<path fill="none" stroke="#FFFFFF" stroke-width="4" stroke-linecap="round" stroke-linejoin="round" stroke-miterlimit="10" d="
	M824.3,702.7v51.2c0,4.3-5.3,7.8-11.7,7.8h0c-6.4,0-11.7-3.5-11.7-7.8v-51.2"/>
</svg>
