<?xml version="1.0" encoding="UTF-8" standalone="no"?>
<svg width="103px" height="103px" viewBox="0 0 103 103" version="1.1" xmlns="http://www.w3.org/2000/svg" xmlns:xlink="http://www.w3.org/1999/xlink" xmlns:sketch="http://www.bohemiancoding.com/sketch/ns">
    <!-- Generator: Sketch 3.3.3 (12081) - http://www.bohemiancoding.com/sketch -->
    <title>Instagram</title>
    <desc>Created with Sketch.</desc>
    <defs></defs>
    <g id="Board" stroke="none" stroke-width="1" fill="none" fill-rule="evenodd" sketch:type="MSPage">
        <g id="Social-Line-Icons" sketch:type="MSArtboardGroup" transform="translate(-568.000000, -158.000000)" stroke="#FFFFFF" stroke-width="4" stroke-linecap="round" stroke-linejoin="round">
            <g id="Icons" sketch:type="MSLayerGroup" transform="translate(126.000000, 160.000000)">
                <path d="M444.122589,52.470459 L444.000006,6.14446731 C443.995466,2.8240366 446.683289,0.128645949 450.00372,0.124105706 L536.854019,5.74353103e-06 C540.175963,-0.00453449901 542.871354,2.68328908 542.875894,6.00523321 L542.999994,92.8555327 C543.004535,96.1759634 540.315198,98.8713541 536.994767,98.8774077 L450.144467,98.9999943 C446.824037,99.0045345 444.127133,96.3167109 444.122592,92.9962802 L444.122589,69.2929688 M516.373332,41.0240864 C522.691651,53.3081697 517.838006,68.4403587 505.553747,74.7585876 C493.27102,81.0768165 478.137083,76.2247722 471.818764,63.9406888 C465.501977,51.6566055 470.354091,36.5228845 482.638349,30.2046556 C494.922608,23.8864266 510.055013,28.7415351 516.373332,41.0240864 L516.373332,41.0240864 M532.26506,23.3886844 C532.26506,25.0640051 530.893779,26.4337349 529.218458,26.4337349 L519.805638,26.4337349 C518.130317,26.4337349 516.759036,25.0640051 516.759036,23.3886844 L516.759036,13.9743126 C516.759036,12.2989919 518.130317,10.9277108 519.805638,10.9277108 L529.218458,10.9277108 C530.893779,10.9277108 532.26506,12.2989919 532.26506,13.9743126 L532.26506,23.3886844 M444.2052,52.4819277 L469.048193,52.4819277 L444.2052,52.4819277 Z M542.924316,52.4819277 L519.144578,52.4819277 L541.807229,52.4819277 M501.958333,66.094716 C494.232574,70.1273125 484.71577,67.03036 480.743015,59.1910624 C478.756637,55.2721423 478.525396,50.8985167 479.757726,47" id="Instagram" sketch:type="MSShapeGroup"></path>
            </g>
        </g>
    </g>
</svg>