<?xml version="1.0" encoding="utf-8"?>
<!-- Generator: Adobe Illustrator 18.1.0, SVG Export Plug-In . SVG Version: 6.00 Build 0)  -->
<svg version="1.1" id="Layer_1" xmlns="http://www.w3.org/2000/svg" xmlns:xlink="http://www.w3.org/1999/xlink" x="0px" y="0px"
	 viewBox="0 0 1072.4 286.1" enable-background="new 0 0 1072.4 286.1" xml:space="preserve">
<g>
	<path fill="#FFFFFF" d="M160,109.8c-18.2-22.5-40.3-33.4-67.2-33.4c-24.7,0-47.8,9.7-65,27.3C9,123-1,149.8-1,181.2v0.7
		c0,31.3,10.1,58.1,29.1,77.5c17,17.4,40.6,27.3,64.7,27.3c27.4,0,49.4-11.6,67.2-35.4v31.3h47.8V-1H160V109.8z M160.8,181.9
		c0,17.8-6.1,34-17.2,45.7c-10.6,11.2-24.7,17.4-39.8,17.4c-15.2,0-29.3-6.1-39.7-17.2c-10.9-11.6-16.9-27.8-16.9-45.8v-0.7
		c0-18.7,5.8-34.7,16.7-46.3c10.3-10.8,24.4-16.8,39.9-16.8c15.1,0,29.2,6.1,39.8,17.2c11.1,11.6,17.2,27.9,17.2,45.8V181.9z"/>
	<path fill="#FFFFFF" d="M325.8,77.5c-32.5,0-54.1,6.7-76.5,16.8l-0.8,0.4l13.1,38.6l1-0.4c17.9-7.5,34.4-12.4,56.8-12.4
		c31.1,0,48.2,14.8,48.2,41.8v2.4c-15.5-4.8-30.8-8-54.3-8c-51.4,0-82.1,24.9-82.1,66.5v0.8c0,19.2,7.5,35.4,21.8,46.7
		c13,10.3,30.9,16,50.4,16c25.9,0,47.9-9.4,63.8-27.1v22.9h47.5V163c0-27.3-7.4-48.5-22.1-63C377.5,85.1,355.1,77.5,325.8,77.5z
		 M368.3,209.2c0,11.8-5.1,22.1-14.7,29.6c-9.4,7.4-22.7,11.4-37.2,11.4c-22.5,0-37.7-11.5-37.7-28.5v-0.8
		c0-18.8,16.8-30.1,44.8-30.1c15.7,0,32,2.8,44.8,7.7V209.2z"/>
	<path fill="#FFFFFF" d="M691.6-0.4c-15.7,0-28.5,12.8-28.5,28.5s12.8,28.5,28.5,28.5s28.5-12.8,28.5-28.5S707.3-0.4,691.6-0.4z"/>
	<rect x="970.3" y="-0.4" fill="#FFFFFF" width="47.9" height="283"/>
	<path fill="#FFFFFF" d="M558.4,76.4c-25.7,0-45.4,10.5-61.5,33.1V80.5h-47.8v202h47.8V168.6c0-29.5,17.3-48.6,44.1-48.6
		c26.6,0,41.8,17.4,41.8,47.9v114.6h47.8V154.3C630.6,106.2,602.9,76.4,558.4,76.4z"/>
	<path fill="#FFFFFF" d="M844.8,76.4c-27.6,0-52.8,11-71,31c-17.8,19.5-27.7,45.9-27.7,74.2v0.8c0,60.7,43.6,104.8,103.7,104.8
		c33.8,0,61.6-12.7,82.6-37.9l0.6-0.7l-28.3-25.1L904,224c-16.9,16.5-32.9,23.6-53.5,23.6c-29.8,0-51.4-18.6-56.4-48.7h146.8l0.2-2
		c0.3-4.1,0.7-8,0.7-11.9c0-29.7-8.6-56.7-24.3-76C900,87.6,875,76.4,844.8,76.4z M793.7,166.5c4.5-30.8,24.3-50.7,50.7-50.7
		c27.1,0,46.1,19.4,49.7,50.7H793.7z"/>
	<rect x="668.4" y="80.5" fill="#FFFFFF" width="47.9" height="202"/>
</g>
</svg>
