<svg version="1.1" id="Layer_1" xmlns="http://www.w3.org/2000/svg" xmlns:xlink="http://www.w3.org/1999/xlink" x="0px" y="0px"
	 viewBox="0 0 1017.2 286.1" enable-background="new 0 0 1017.2 286.1" xml:space="preserve">
<path fill="#1A4B94" stroke="#1A4B94" stroke-width="2" stroke-miterlimit="10" d="M0,181.9v-0.7C0,114.9,45.1,77.4,92.8,77.4
	c33,0,53.8,16.7,68.2,35.3V0h45.8v281.5H161v-33.3c-14.8,20.8-35.6,37.5-68.2,37.5C45.9,285.7,0,248.2,0,181.9z M161.8,181.9v-0.7
	c0-38.7-27.3-64-57.9-64c-31.4,0-57.6,24.2-57.6,64v0.7c0,38.7,26.5,64,57.6,64C134.5,246,161.8,220.2,161.8,181.9z M368.2,281.5
	v-24.6c-13.6,16.3-34.5,28.8-64.8,28.8c-37.9,0-71.2-21.6-71.2-61.8v-0.8c0-44.3,34.5-65.5,81.1-65.5c24.2,0,39.8,3.4,55.3,8.4v-3.8
	c0-27.6-17.4-42.8-49.2-42.8c-22.4,0-39,4.9-57.2,12.5l-12.5-36.7c22-9.8,43.5-16.7,76.1-16.7c59.1,0,87.9,31.1,87.9,84.5v118.6
	H368.2z M369.3,197.8c-11.7-4.5-28-8-45.8-8c-28.8,0-45.8,11.8-45.8,31.1v0.8c0,18.9,17,29.5,38.7,29.5c30.3,0,53-17,53-42.1V197.8z
	 M450.1,81.5h45.8v31.1c12.9-19,31.4-35.3,62.5-35.3c45,0,71.1,30.3,71.1,76.9v127.3h-45.8V167.9c0-31-15.5-48.9-42.8-48.9
	c-26.5,0-45.1,18.6-45.1,49.6v112.9h-45.8V81.5z M669.4,81.5h45.9v200h-45.9V81.5z M747.1,182.3v-0.8c0-57.2,40.5-104.2,97.7-104.2
	c63.6,0,95.9,50,95.9,107.6c0,4.2-0.4,8.4-0.7,12.9h-147c5,32.6,28,50.7,57.6,50.7c22.3,0,38.3-8.3,54.2-23.8l26.9,23.8
	c-19,22.7-45.1,37.5-81.8,37.5C791.8,286.1,747.1,244,747.1,182.3z M895.2,167.5c-3-29.6-20.5-52.7-50.8-52.7
	c-28,0-47.7,21.6-51.9,52.7H895.2z M971.3,0.6h45.9v281h-45.9V0.6z M719.1,28.1c0-15.2-12.3-27.5-27.5-27.5
	c-15.2,0-27.5,12.3-27.5,27.5s12.3,27.5,27.5,27.5C706.8,55.6,719.1,43.2,719.1,28.1z"/>
</svg>
