<?xml version="1.0" encoding="utf-8"?>
<!-- Generator: Adobe Illustrator 18.1.0, SVG Export Plug-In . SVG Version: 6.00 Build 0)  -->
<svg version="1.1" id="Layer_1" xmlns="http://www.w3.org/2000/svg" xmlns:xlink="http://www.w3.org/1999/xlink" x="0px" y="0px"
	 viewBox="0 0 1072.4 286.1" enable-background="new 0 0 1072.4 286.1" xml:space="preserve">
<g>
	<path fill="#431A94" d="M0,181.9v-0.7C0,114.9,45.1,77.4,92.8,77.4c33,0,53.8,16.7,68.2,35.3V0h45.8v281.5H161v-33.3
		c-14.8,20.8-35.6,37.5-68.2,37.5C45.9,285.7,0,248.2,0,181.9z M161.8,181.9v-0.7c0-38.7-27.3-64-57.9-64c-31.4,0-57.6,24.2-57.6,64
		v0.7c0,38.7,26.5,64,57.6,64C134.5,246,161.8,220.2,161.8,181.9z M368.2,281.5v-24.6c-13.6,16.3-34.5,28.8-64.8,28.8
		c-37.9,0-71.2-21.6-71.2-61.8v-0.8c0-44.3,34.5-65.5,81.1-65.5c24.2,0,39.8,3.4,55.3,8.4v-3.8c0-27.6-17.4-42.8-49.2-42.8
		c-22.4,0-39,4.9-57.2,12.5l-12.5-36.7c22-9.8,43.5-16.7,76.1-16.7c59.1,0,87.9,31.1,87.9,84.5v118.6H368.2z M369.3,197.8
		c-11.7-4.5-28-8-45.8-8c-28.8,0-45.8,11.8-45.8,31.1v0.8c0,18.9,17,29.5,38.7,29.5c30.3,0,53-17,53-42.1V197.8z M450.1,81.5h45.8
		v31.1c12.9-19,31.4-35.3,62.5-35.3c45,0,71.1,30.3,71.1,76.9v127.3h-45.8V167.9c0-31-15.5-48.9-42.8-48.9
		c-26.5,0-45.1,18.6-45.1,49.6v112.9h-45.8V81.5z M669.4,81.5h45.9v200h-45.9V81.5z M747.1,182.3v-0.8c0-57.2,40.5-104.2,97.7-104.2
		c63.6,0,95.9,50,95.9,107.6c0,4.2-0.4,8.4-0.7,12.9h-147c5,32.6,28,50.7,57.6,50.7c22.3,0,38.3-8.3,54.2-23.8l26.9,23.8
		c-19,22.7-45.1,37.5-81.8,37.5C791.8,286.1,747.1,244,747.1,182.3z M895.2,167.5c-3-29.6-20.5-52.7-50.8-52.7
		c-28,0-47.7,21.6-51.9,52.7H895.2z M971.3,0.6h45.9v281h-45.9V0.6z M719.1,28.1c0-15.2-12.3-27.5-27.5-27.5
		c-15.2,0-27.5,12.3-27.5,27.5s12.3,27.5,27.5,27.5C706.8,55.6,719.1,43.2,719.1,28.1z"/>
	<path fill="#431A94" d="M849.7,287.1c-60.1,0-103.7-44.1-103.7-104.8v-0.8c0-28.4,9.8-54.7,27.7-74.2c18.3-20,43.5-31,71-31
		c30.2,0,55.3,11.3,72.6,32.6c15.7,19.3,24.3,46.3,24.3,76c0,3.9-0.3,7.8-0.7,11.9l-0.2,2H794.1c5,30.1,26.6,48.7,56.4,48.7
		c20.6,0,36.6-7,53.5-23.6l0.7-0.6l28.3,25.1l-0.6,0.7C911.3,274.4,883.5,287.1,849.7,287.1z M844.8,78.4c-27,0-51.7,10.8-69.6,30.3
		c-17.5,19.1-27.1,45-27.1,72.9v0.8c0,59.6,42.8,102.8,101.7,102.8c33.3,0,59.6-11.9,80.4-36.4l-25.5-22.6
		c-17.1,16.4-33.3,23.5-54.2,23.5c-31.3,0-53.7-19.8-58.6-51.6l-0.2-1.2H939l0-0.1c0.3-4.1,0.6-8,0.6-11.8
		c0-29.3-8.5-55.8-23.8-74.7C898.9,89.4,874.3,78.4,844.8,78.4z M303.4,286.7c-19.6,0-37.5-5.7-50.4-16
		c-14.2-11.4-21.8-27.5-21.8-46.7v-0.8c0-41.7,30.7-66.5,82.1-66.5c23.5,0,38.8,3.2,54.3,8v-2.4c0-27-17.1-41.8-48.2-41.8
		c-22.4,0-38.9,5-56.8,12.4l-1,0.4l-13.1-38.6l0.8-0.4c22.5-10.1,44.1-16.8,76.5-16.8c29.3,0,51.7,7.6,66.8,22.5
		c14.6,14.5,22.1,35.7,22.1,63v119.6h-47.5v-22.9C351.4,277.4,329.4,286.7,303.4,286.7z M313.3,158.7c-50.1,0-80.1,24.1-80.1,64.5
		v0.8c0,18.6,7.3,34.2,21,45.2c12.6,10.1,30.1,15.6,49.2,15.6c26.3,0,48.5-9.8,64-28.4l1.8-2.1v26.4h43.5V163
		c0-54.6-30-83.5-86.9-83.5c-31.7,0-53,6.5-74.9,16.2l11.9,34.9c17.7-7.3,34.3-12.2,56.6-12.2c32.4,0,50.2,15.6,50.2,43.8v5.2
		l-1.3-0.4C352.6,162,337.2,158.7,313.3,158.7z M92.8,286.7c-24.1,0-47.7-10-64.7-27.3C9.1,240-1,213.2-1,181.9v-0.7
		c0-31.4,10-58.2,28.8-77.5c17.2-17.6,40.3-27.3,65-27.3c27,0,49,10.9,67.2,33.4V-1h47.8v283.5H160v-31.3
		C142.2,275.1,120.2,286.7,92.8,286.7z M92.8,78.4C47.2,78.4,1,113.7,1,181.2v0.7c0,30.8,9.9,57.1,28.5,76.1
		c16.7,17,39.7,26.7,63.3,26.7c27.7,0,49.7-12.1,67.4-37.1l1.8-2.6v35.5h43.8V1H162v114.5l-1.8-2.3C142,89.8,120,78.4,92.8,78.4z
		 M1018.2,282.5h-47.9v-283h47.9V282.5z M972.3,280.5h43.9V1.6h-43.9V280.5z M716.3,282.5h-47.9v-202h47.9V282.5z M670.4,280.5h43.9
		v-198h-43.9V280.5z M630.6,282.5h-47.8V167.9c0-30.4-15.2-47.9-41.8-47.9c-26.8,0-44.1,19.1-44.1,48.6v113.9h-47.8v-202h47.8v28.9
		c16.2-22.5,35.8-33.1,61.5-33.1c44.5,0,72.1,29.9,72.1,77.9V282.5z M584.8,280.5h43.8V154.3c0-22.9-6.4-42-18.4-55.3
		c-12.3-13.5-30.1-20.6-51.7-20.6c-26,0-45.6,11.1-61.7,34.8l-1.8,2.7V82.5h-43.8v198h43.8V168.6c0-30.7,18.1-50.6,46.1-50.6
		c27.8,0,43.8,18.2,43.8,49.9V280.5z M316.3,252.2c-23.7,0-39.7-12.3-39.7-30.5v-0.8c0-20.1,17.5-32.1,46.8-32.1
		c16.2,0,33,2.9,46.2,8l0.6,0.2v12C370.3,234.1,347.6,252.2,316.3,252.2z M323.5,190.9c-28.1,0-44.8,11.2-44.8,30.1v0.8
		c0,17.1,15.1,28.5,37.7,28.5c14.6,0,27.8-4.1,37.2-11.4c9.6-7.5,14.7-17.8,14.7-29.6v-10.7C355.5,193.6,339.2,190.9,323.5,190.9z
		 M103.8,247c-33.4,0-58.6-28-58.6-65v-0.7c0-19.2,6-35.7,17.3-47.6c10.6-11.2,25.3-17.4,41.3-17.4c15.6,0,30.2,6.3,41.2,17.8
		c11.4,12,17.7,28.8,17.7,47.2v0.7c0,18.3-6.3,35-17.7,47.1C134,240.6,119.4,247,103.8,247z M103.8,118.1c-15.4,0-29.6,6-39.9,16.8
		c-10.9,11.5-16.7,27.5-16.7,46.3v0.7c0,18,6,34.3,16.9,45.8c10.4,11.1,24.5,17.2,39.7,17.2c15,0,29.1-6.2,39.8-17.4
		c11.1-11.7,17.2-27.9,17.2-45.7v-0.7c0-17.9-6.1-34.2-17.2-45.8C133,124.2,118.9,118.1,103.8,118.1z M896.3,168.5H791.4l0.2-1.1
		c4.3-32.5,25.1-53.5,52.9-53.5c28.5,0,48.4,20.5,51.8,53.6L896.3,168.5z M793.7,166.5h100.4c-3.6-31.3-22.5-50.7-49.7-50.7
		C818,115.9,798.2,135.7,793.7,166.5z M691.6,56.6c-15.7,0-28.5-12.8-28.5-28.5s12.8-28.5,28.5-28.5s28.5,12.8,28.5,28.5
		S707.3,56.6,691.6,56.6z M691.6,1.6c-14.6,0-26.5,11.9-26.5,26.5s11.9,26.5,26.5,26.5s26.5-11.9,26.5-26.5S706.2,1.6,691.6,1.6z"/>
</g>
</svg>
