<?xml version="1.0" encoding="utf-8"?>
<!-- Generator: Adobe Illustrator 18.1.0, SVG Export Plug-In . SVG Version: 6.00 Build 0)  -->
<svg version="1.1" id="Layer_1" xmlns="http://www.w3.org/2000/svg" xmlns:xlink="http://www.w3.org/1999/xlink" x="0px" y="0px"
	 viewBox="0 0 1000 737" enable-background="new 0 0 1000 737" xml:space="preserve">
<rect x="-121.7" y="-1440.1" fill="none" stroke="#431A94" stroke-width="5" stroke-miterlimit="10" width="600" height="480"/>
<line fill="none" stroke="#431A94" stroke-width="5" stroke-miterlimit="10" x1="-121.7" y1="-1388.1" x2="478.3" y2="-1388.1"/>
<circle fill="none" stroke="#431A94" stroke-width="3" stroke-miterlimit="10" cx="-78" cy="-1415.3" r="5"/>
<circle fill="none" stroke="#431A94" stroke-width="3" stroke-miterlimit="10" cx="-48" cy="-1415.3" r="5"/>
<circle fill="none" stroke="#431A94" stroke-width="3" stroke-miterlimit="10" cx="-18" cy="-1415.3" r="5"/>
<line fill="none" stroke="#431A94" stroke-width="5" stroke-miterlimit="10" x1="-17.6" y1="-1338.1" x2="31.9" y2="-1338.1"/>
<line fill="none" stroke="#431A94" stroke-width="5" stroke-miterlimit="10" x1="-17.6" y1="-1308" x2="112" y2="-1308"/>
<line fill="none" stroke="#431A94" stroke-width="5" stroke-miterlimit="10" x1="-17.6" y1="-1278" x2="82" y2="-1278"/>
<line fill="none" stroke="#431A94" stroke-width="5" stroke-miterlimit="10" x1="-81.7" y1="-1248" x2="-72.2" y2="-1248"/>
<line fill="none" stroke="#431A94" stroke-width="5" stroke-miterlimit="10" x1="-81.7" y1="-1308" x2="-72.2" y2="-1308"/>
<line fill="none" stroke="#431A94" stroke-width="5" stroke-miterlimit="10" x1="-81.7" y1="-1278" x2="-72.2" y2="-1278"/>
<line fill="none" stroke="#431A94" stroke-width="5" stroke-miterlimit="10" x1="-81.7" y1="-1157.9" x2="-72.2" y2="-1157.9"/>
<line fill="none" stroke="#431A94" stroke-width="5" stroke-miterlimit="10" x1="-81.7" y1="-1218" x2="-72.2" y2="-1218"/>
<line fill="none" stroke="#431A94" stroke-width="5" stroke-miterlimit="10" x1="-81.7" y1="-1187.9" x2="-72.2" y2="-1187.9"/>
<line fill="none" stroke="#431A94" stroke-width="5" stroke-miterlimit="10" x1="-81.7" y1="-1338.1" x2="-72.2" y2="-1338.1"/>
<line fill="none" stroke="#431A94" stroke-width="5" stroke-miterlimit="10" x1="-81.7" y1="-1127.9" x2="-72.2" y2="-1127.9"/>
<line fill="none" stroke="#431A94" stroke-width="5" stroke-miterlimit="10" x1="-81.7" y1="-1097.9" x2="-72.2" y2="-1097.9"/>
<line fill="none" stroke="#431A94" stroke-width="5" stroke-miterlimit="10" x1="-81.7" y1="-1067.8" x2="-72.2" y2="-1067.8"/>
<line fill="none" stroke="#431A94" stroke-width="5" stroke-miterlimit="10" x1="-17.6" y1="-1218" x2="51.9" y2="-1218"/>
<line fill="none" stroke="#431A94" stroke-width="5" stroke-miterlimit="10" x1="-17.6" y1="-1187.9" x2="82" y2="-1187.9"/>
<line fill="none" stroke="#431A94" stroke-width="5" stroke-miterlimit="10" x1="-17.6" y1="-1127.9" x2="51.9" y2="-1127.9"/>
<line fill="none" stroke="#431A94" stroke-width="5" stroke-miterlimit="10" x1="-17.6" y1="-1097.9" x2="72" y2="-1097.9"/>
<line fill="none" stroke="#431A94" stroke-width="5" stroke-miterlimit="10" x1="-81.7" y1="-1037.8" x2="-72.2" y2="-1037.8"/>
<line fill="none" stroke="#431A94" stroke-width="5" stroke-miterlimit="10" x1="-81.7" y1="-1007.8" x2="-72.2" y2="-1007.8"/>
<line fill="none" stroke="#431A94" stroke-width="5" stroke-miterlimit="10" x1="-17.6" y1="-1067.8" x2="31.9" y2="-1067.8"/>
<line fill="none" stroke="#431A94" stroke-width="5" stroke-miterlimit="10" x1="179" y1="-1386.3" x2="179" y2="-960.1"/>
<line fill="none" stroke="#431A94" stroke-width="5" stroke-miterlimit="10" x1="287.6" y1="-1127.9" x2="387.2" y2="-1127.9"/>
<line fill="none" stroke="#431A94" stroke-width="5" stroke-miterlimit="10" x1="223.6" y1="-1248" x2="233.1" y2="-1248"/>
<line fill="none" stroke="#431A94" stroke-width="5" stroke-miterlimit="10" x1="223.6" y1="-1308" x2="233.1" y2="-1308"/>
<line fill="none" stroke="#431A94" stroke-width="5" stroke-miterlimit="10" x1="223.6" y1="-1278" x2="233.1" y2="-1278"/>
<line fill="none" stroke="#431A94" stroke-width="5" stroke-miterlimit="10" x1="223.6" y1="-1157.9" x2="233.1" y2="-1157.9"/>
<line fill="none" stroke="#431A94" stroke-width="5" stroke-miterlimit="10" x1="223.6" y1="-1218" x2="233.1" y2="-1218"/>
<line fill="none" stroke="#431A94" stroke-width="5" stroke-miterlimit="10" x1="223.6" y1="-1187.9" x2="233.1" y2="-1187.9"/>
<line fill="none" stroke="#431A94" stroke-width="5" stroke-miterlimit="10" x1="223.6" y1="-1338.1" x2="233.1" y2="-1338.1"/>
<line fill="none" stroke="#431A94" stroke-width="5" stroke-miterlimit="10" x1="223.6" y1="-1127.9" x2="233.1" y2="-1127.9"/>
<line fill="none" stroke="#431A94" stroke-width="5" stroke-miterlimit="10" x1="223.6" y1="-1097.9" x2="233.1" y2="-1097.9"/>
<line fill="none" stroke="#431A94" stroke-width="5" stroke-miterlimit="10" x1="223.6" y1="-1067.8" x2="233.1" y2="-1067.8"/>
<line fill="none" stroke="#431A94" stroke-width="5" stroke-miterlimit="10" x1="287.6" y1="-1187.9" x2="357.2" y2="-1187.9"/>
<line fill="none" stroke="#431A94" stroke-width="5" stroke-miterlimit="10" x1="287.6" y1="-1218" x2="387.2" y2="-1218"/>
<line fill="none" stroke="#431A94" stroke-width="5" stroke-miterlimit="10" x1="287.6" y1="-1278" x2="337.2" y2="-1278"/>
<line fill="none" stroke="#431A94" stroke-width="5" stroke-miterlimit="10" x1="287.6" y1="-1308" x2="377.2" y2="-1308"/>
<line fill="none" stroke="#431A94" stroke-width="5" stroke-miterlimit="10" x1="223.6" y1="-1037.8" x2="233.1" y2="-1037.8"/>
<line fill="none" stroke="#431A94" stroke-width="5" stroke-miterlimit="10" x1="223.6" y1="-1007.8" x2="233.1" y2="-1007.8"/>
<line fill="none" stroke="#431A94" stroke-width="5" stroke-miterlimit="10" x1="287.6" y1="-1338.1" x2="357.2" y2="-1338.1"/>
<rect x="579.1" y="-1440.1" fill="none" stroke="#431A94" stroke-width="5" stroke-miterlimit="10" width="600" height="480"/>
<line fill="none" stroke="#431A94" stroke-width="5" stroke-miterlimit="10" x1="579.1" y1="-1388.1" x2="1179.1" y2="-1388.1"/>
<circle fill="none" stroke="#431A94" stroke-width="3" stroke-miterlimit="10" cx="622.8" cy="-1415.3" r="5"/>
<circle fill="none" stroke="#431A94" stroke-width="3" stroke-miterlimit="10" cx="652.9" cy="-1415.3" r="5"/>
<circle fill="none" stroke="#431A94" stroke-width="3" stroke-miterlimit="10" cx="682.9" cy="-1415.3" r="5"/>
<line fill="none" stroke="#431A94" stroke-width="5" stroke-miterlimit="10" x1="684.2" y1="-1338.1" x2="733.8" y2="-1338.1"/>
<line fill="none" stroke="#431A94" stroke-width="5" stroke-miterlimit="10" x1="684.2" y1="-1308" x2="813.9" y2="-1308"/>
<line fill="none" stroke="#431A94" stroke-width="5" stroke-miterlimit="10" x1="684.2" y1="-1278" x2="783.8" y2="-1278"/>
<line fill="none" stroke="#431A94" stroke-width="5" stroke-miterlimit="10" x1="617.2" y1="-1248" x2="626.7" y2="-1248"/>
<line fill="none" stroke="#431A94" stroke-width="5" stroke-miterlimit="10" x1="617.2" y1="-1308" x2="626.7" y2="-1308"/>
<line fill="none" stroke="#431A94" stroke-width="5" stroke-miterlimit="10" x1="617.2" y1="-1278" x2="626.7" y2="-1278"/>
<line fill="none" stroke="#431A94" stroke-width="5" stroke-miterlimit="10" x1="617.2" y1="-1157.9" x2="626.7" y2="-1157.9"/>
<line fill="none" stroke="#431A94" stroke-width="5" stroke-miterlimit="10" x1="617.2" y1="-1218" x2="626.7" y2="-1218"/>
<line fill="none" stroke="#431A94" stroke-width="5" stroke-miterlimit="10" x1="617.2" y1="-1187.9" x2="626.7" y2="-1187.9"/>
<line fill="none" stroke="#431A94" stroke-width="5" stroke-miterlimit="10" x1="617.2" y1="-1338.1" x2="626.7" y2="-1338.1"/>
<line fill="none" stroke="#431A94" stroke-width="5" stroke-miterlimit="10" x1="617.2" y1="-1127.9" x2="626.7" y2="-1127.9"/>
<line fill="none" stroke="#431A94" stroke-width="5" stroke-miterlimit="10" x1="617.2" y1="-1097.9" x2="626.7" y2="-1097.9"/>
<line fill="none" stroke="#431A94" stroke-width="5" stroke-miterlimit="10" x1="617.2" y1="-1067.8" x2="626.7" y2="-1067.8"/>
<line fill="none" stroke="#431A94" stroke-width="5" stroke-miterlimit="10" x1="684.2" y1="-1218" x2="753.8" y2="-1218"/>
<line fill="none" stroke="#431A94" stroke-width="5" stroke-miterlimit="10" x1="684.2" y1="-1187.9" x2="783.8" y2="-1187.9"/>
<line fill="none" stroke="#431A94" stroke-width="5" stroke-miterlimit="10" x1="684.2" y1="-1127.9" x2="753.8" y2="-1127.9"/>
<line fill="none" stroke="#431A94" stroke-width="5" stroke-miterlimit="10" x1="684.2" y1="-1097.9" x2="773.8" y2="-1097.9"/>
<line fill="none" stroke="#431A94" stroke-width="5" stroke-miterlimit="10" x1="617.2" y1="-1037.8" x2="626.7" y2="-1037.8"/>
<line fill="none" stroke="#431A94" stroke-width="5" stroke-miterlimit="10" x1="617.2" y1="-1007.8" x2="626.7" y2="-1007.8"/>
<line fill="none" stroke="#431A94" stroke-width="5" stroke-miterlimit="10" x1="684.2" y1="-1067.8" x2="733.8" y2="-1067.8"/>
<line fill="none" stroke="#431A94" stroke-width="5" stroke-miterlimit="10" x1="684.2" y1="-1157.9" x2="753.8" y2="-1157.9"/>
<rect x="-969" y="253" fill="none" stroke="#431A94" stroke-width="5" stroke-linejoin="round" stroke-miterlimit="10" width="600" height="480"/>
<line fill="none" stroke="#431A94" stroke-width="5" stroke-miterlimit="10" x1="-969" y1="305" x2="-369" y2="305"/>
<circle fill="none" stroke="#431A94" stroke-width="3" stroke-miterlimit="10" cx="-925.3" cy="277.8" r="5"/>
<circle fill="none" stroke="#431A94" stroke-width="3" stroke-miterlimit="10" cx="-895.3" cy="277.8" r="5"/>
<circle fill="none" stroke="#431A94" stroke-width="3" stroke-miterlimit="10" cx="-865.3" cy="277.8" r="5"/>
<line fill="none" stroke="#431A94" stroke-width="5" stroke-miterlimit="10" x1="-803.9" y1="355" x2="-754.3" y2="355"/>
<line fill="none" stroke="#431A94" stroke-width="5" stroke-miterlimit="10" x1="-803.9" y1="385.1" x2="-674.3" y2="385.1"/>
<line fill="none" stroke="#431A94" stroke-width="5" stroke-miterlimit="10" x1="-803.9" y1="415.1" x2="-704.3" y2="415.1"/>
<line fill="none" stroke="#431A94" stroke-width="5" stroke-miterlimit="10" x1="-934" y1="385.1" x2="-904.5" y2="385.1"/>
<line fill="none" stroke="#431A94" stroke-width="5" stroke-miterlimit="10" x1="-934" y1="415.1" x2="-914.5" y2="415.1"/>
<line fill="none" stroke="#431A94" stroke-width="5" stroke-miterlimit="10" x1="-934" y1="355" x2="-894.4" y2="355"/>
<line fill="none" stroke="#431A94" stroke-width="5" stroke-miterlimit="10" x1="-803.9" y1="475.1" x2="-734.3" y2="475.1"/>
<line fill="none" stroke="#431A94" stroke-width="5" stroke-miterlimit="10" x1="-803.9" y1="505.2" x2="-704.3" y2="505.2"/>
<line fill="none" stroke="#431A94" stroke-width="5" stroke-miterlimit="10" x1="-803.9" y1="565.2" x2="-734.3" y2="565.2"/>
<line fill="none" stroke="#431A94" stroke-width="5" stroke-miterlimit="10" x1="-803.9" y1="595.2" x2="-714.3" y2="595.2"/>
<line fill="none" stroke="#431A94" stroke-width="5" stroke-miterlimit="10" x1="-803.9" y1="625.3" x2="-754.3" y2="625.3"/>
<line fill="none" stroke="#431A94" stroke-width="5" stroke-miterlimit="10" x1="-803.9" y1="535.2" x2="-734.3" y2="535.2"/>
<line fill="none" stroke="#431A94" stroke-width="5" stroke-miterlimit="10" x1="-865.3" y1="304.8" x2="-865.3" y2="731"/>
<g>
	<circle fill="none" stroke="#431A94" stroke-width="6" stroke-miterlimit="10" cx="1374.9" cy="501" r="230"/>
	<circle fill="none" stroke="#431A94" stroke-width="6" stroke-miterlimit="10" cx="1374.9" cy="512.5" r="16.1"/>
	
		<line fill="none" stroke="#431A94" stroke-width="6" stroke-linecap="round" stroke-miterlimit="10" x1="1345.8" y1="541.2" x2="1359.4" y2="527.4"/>
	
		<line fill="none" stroke="#431A94" stroke-width="6" stroke-linecap="round" stroke-miterlimit="10" x1="1387" y1="499.8" x2="1503" y2="383.2"/>
	<path fill="none" stroke="#431A94" stroke-width="6" stroke-miterlimit="10" d="M1361.1,268.7v-32.1c0-7.6,6.2-13.8,13.8-13.8l0,0
		c7.6,0,13.8,6.2,13.8,13.8v32.1"/>
	<path fill="none" stroke="#431A94" stroke-width="6" stroke-miterlimit="10" d="M1360.4,239.2c-19.9-6.2-34.3-24.7-34.3-46.7
		c0-27,21.9-48.9,48.9-48.9s48.9,21.9,48.9,48.9c0,21.8-14.3,40.3-34,46.6"/>
	<path fill="none" stroke="#431A94" stroke-width="6" stroke-linecap="round" stroke-linejoin="round" stroke-miterlimit="10" d="
		M1526.5,327.3l11.8-11.6c2.4-2.4,6.3-2.3,8.7,0.1l21.5,21.8c2.4,2.4,2.3,6.3-0.1,8.7l-11.8,11.6"/>
</g>
<line fill="none" stroke="#431A94" stroke-width="5" stroke-linecap="round" stroke-linejoin="round" stroke-miterlimit="10" x1="247.8" y1="730.9" x2="747.8" y2="730.9"/>
<polyline fill="none" stroke="#431A94" stroke-width="5" stroke-linecap="round" stroke-linejoin="round" stroke-miterlimit="10" points="
	617.8,490.7 617.8,331.6 377.9,331.6 377.9,490.7 "/>
<polyline fill="none" stroke="#431A94" stroke-width="5" stroke-linecap="round" stroke-linejoin="round" stroke-miterlimit="10" points="
	575.5,329.9 575.5,309.1 420.2,309.1 420.2,329.9 "/>
<polyline fill="none" stroke="#431A94" stroke-width="5" stroke-linecap="round" stroke-linejoin="round" stroke-miterlimit="10" points="
	549.6,307.4 549.6,287.1 446.1,287.1 446.1,307.4 "/>
<polyline fill="none" stroke="#431A94" stroke-width="5" stroke-linejoin="round" stroke-miterlimit="10" points="529.5,731 
	529.5,409.7 466.2,409.7 466.2,731 "/>
<line fill="none" stroke="#431A94" stroke-width="5" stroke-linejoin="round" stroke-miterlimit="10" x1="487.7" y1="409.7" x2="487.7" y2="731"/>
<line fill="none" stroke="#431A94" stroke-width="5" stroke-linejoin="round" stroke-miterlimit="10" x1="508" y1="409.7" x2="508" y2="731"/>
<polyline fill="none" stroke="#431A94" stroke-width="5" stroke-linejoin="round" stroke-miterlimit="10" points="596.2,491.3 
	596.2,409.8 553.2,409.8 553.2,491.3 "/>
<line fill="none" stroke="#431A94" stroke-width="5" stroke-linecap="round" stroke-linejoin="round" stroke-miterlimit="10" x1="574.7" y1="409.8" x2="574.7" y2="492.3"/>
<line fill="none" stroke="#431A94" stroke-width="5" stroke-linecap="round" stroke-linejoin="round" stroke-miterlimit="10" x1="497.8" y1="22" x2="497.8" y2="121"/>
<line fill="none" stroke="#431A94" stroke-width="5" stroke-linecap="round" stroke-linejoin="round" stroke-miterlimit="10" x1="466.2" y1="285.4" x2="466.2" y2="257"/>
<line fill="none" stroke="#431A94" stroke-width="5" stroke-linecap="round" stroke-linejoin="round" stroke-miterlimit="10" x1="529.9" y1="285.4" x2="529.9" y2="257"/>
<line fill="none" stroke="#431A94" stroke-width="5" stroke-linecap="round" stroke-linejoin="round" stroke-miterlimit="10" x1="466.2" y1="257" x2="472.2" y2="251.1"/>
<line fill="none" stroke="#431A94" stroke-width="5" stroke-linecap="round" stroke-linejoin="round" stroke-miterlimit="10" x1="529.9" y1="257" x2="523.9" y2="251.1"/>
<line fill="none" stroke="#431A94" stroke-width="5" stroke-linecap="round" stroke-linejoin="round" stroke-miterlimit="10" x1="472.2" y1="250.7" x2="472.2" y2="220.9"/>
<line fill="none" stroke="#431A94" stroke-width="5" stroke-linecap="round" stroke-linejoin="round" stroke-miterlimit="10" x1="523.9" y1="250.7" x2="523.9" y2="220.9"/>
<line fill="none" stroke="#431A94" stroke-width="5" stroke-linecap="round" stroke-linejoin="round" stroke-miterlimit="10" x1="472.2" y1="220.9" x2="481.2" y2="212"/>
<line fill="none" stroke="#431A94" stroke-width="5" stroke-linecap="round" stroke-linejoin="round" stroke-miterlimit="10" x1="523.9" y1="220.9" x2="514.9" y2="212"/>
<line fill="none" stroke="#431A94" stroke-width="5" stroke-linecap="round" stroke-linejoin="round" stroke-miterlimit="10" x1="481.2" y1="211.6" x2="481.2" y2="152.8"/>
<line fill="none" stroke="#431A94" stroke-width="5" stroke-linecap="round" stroke-linejoin="round" stroke-miterlimit="10" x1="514.9" y1="211.6" x2="514.9" y2="152.8"/>
<line fill="none" stroke="#431A94" stroke-width="5" stroke-linecap="round" stroke-linejoin="round" stroke-miterlimit="10" x1="481.2" y1="151.8" x2="514.9" y2="151.8"/>
<path fill="none" stroke="#431A94" stroke-width="5" stroke-linecap="round" stroke-linejoin="round" stroke-miterlimit="10" d="
	M486.6,149.2V139c0-6,5.3-15.3,11.3-15.3l0,0c6,0,11.3,9.3,11.3,15.3v10.1"/>
<polyline fill="none" stroke="#431A94" stroke-width="5" stroke-linejoin="round" stroke-miterlimit="10" points="650.3,730.7 
	650.3,670.1 547.4,670.1 547.4,730.7 "/>
<polyline fill="none" stroke="#431A94" stroke-width="5" stroke-linejoin="round" stroke-miterlimit="10" points="639.7,668.9 
	639.7,492.2 553.2,492.2 553.2,668.9 "/>
<line fill="none" stroke="#431A94" stroke-width="5" stroke-linecap="round" stroke-linejoin="round" stroke-miterlimit="10" x1="574.7" y1="514.4" x2="574.7" y2="670.1"/>
<line fill="none" stroke="#431A94" stroke-width="5" stroke-linecap="round" stroke-linejoin="round" stroke-miterlimit="10" x1="596.4" y1="514.4" x2="596.4" y2="670.1"/>
<line fill="none" stroke="#431A94" stroke-width="5" stroke-linecap="round" stroke-linejoin="round" stroke-miterlimit="10" x1="618.1" y1="514.4" x2="618.1" y2="670.1"/>
<line fill="none" stroke="#431A94" stroke-width="5" stroke-linecap="round" stroke-linejoin="round" stroke-miterlimit="10" x1="567.5" y1="690.3" x2="567.5" y2="730.9"/>
<line fill="none" stroke="#431A94" stroke-width="5" stroke-linecap="round" stroke-linejoin="round" stroke-miterlimit="10" x1="587.7" y1="690.3" x2="587.7" y2="730.9"/>
<line fill="none" stroke="#431A94" stroke-width="5" stroke-linecap="round" stroke-linejoin="round" stroke-miterlimit="10" x1="608" y1="690.3" x2="608" y2="730.9"/>
<line fill="none" stroke="#431A94" stroke-width="5" stroke-linecap="round" stroke-linejoin="round" stroke-miterlimit="10" x1="629.7" y1="690.3" x2="629.7" y2="730.9"/>
<polyline fill="none" stroke="#431A94" stroke-width="5" stroke-linejoin="round" stroke-miterlimit="10" points="398.3,491.3 
	398.3,409.8 441.4,409.8 441.4,491.3 "/>
<line fill="none" stroke="#431A94" stroke-width="5" stroke-linecap="round" stroke-linejoin="round" stroke-miterlimit="10" x1="419.9" y1="409.8" x2="419.9" y2="492.3"/>
<polyline fill="none" stroke="#431A94" stroke-width="5" stroke-linejoin="round" stroke-miterlimit="10" points="344.2,730.7 
	344.2,670.1 447.2,670.1 447.2,730.7 "/>
<polyline fill="none" stroke="#431A94" stroke-width="5" stroke-linejoin="round" stroke-miterlimit="10" points="354.9,668.9 
	354.9,492.2 441.4,492.2 441.4,668.9 "/>
<line fill="none" stroke="#431A94" stroke-width="5" stroke-linecap="round" stroke-linejoin="round" stroke-miterlimit="10" x1="419.9" y1="514.4" x2="419.9" y2="670.1"/>
<line fill="none" stroke="#431A94" stroke-width="5" stroke-linecap="round" stroke-linejoin="round" stroke-miterlimit="10" x1="398.2" y1="514.4" x2="398.2" y2="670.1"/>
<line fill="none" stroke="#431A94" stroke-width="5" stroke-linecap="round" stroke-linejoin="round" stroke-miterlimit="10" x1="376.4" y1="514.4" x2="376.4" y2="670.1"/>
<line fill="none" stroke="#431A94" stroke-width="5" stroke-linecap="round" stroke-linejoin="round" stroke-miterlimit="10" x1="365.3" y1="690.3" x2="365.3" y2="730.9"/>
<line fill="none" stroke="#431A94" stroke-width="5" stroke-linecap="round" stroke-linejoin="round" stroke-miterlimit="10" x1="385.6" y1="690.3" x2="385.6" y2="730.9"/>
<line fill="none" stroke="#431A94" stroke-width="5" stroke-linecap="round" stroke-linejoin="round" stroke-miterlimit="10" x1="405.8" y1="690.3" x2="405.8" y2="730.9"/>
<line fill="none" stroke="#431A94" stroke-width="5" stroke-linecap="round" stroke-linejoin="round" stroke-miterlimit="10" x1="427.5" y1="690.3" x2="427.5" y2="730.9"/>
<line fill="none" stroke="#431A94" stroke-width="5" stroke-linecap="round" stroke-linejoin="round" stroke-miterlimit="10" x1="497.8" y1="152.1" x2="497.8" y2="286.1"/>
</svg>
