<?xml version="1.0" encoding="utf-8"?>
<!-- Generator: Adobe Illustrator 18.1.0, SVG Export Plug-In . SVG Version: 6.00 Build 0)  -->
<svg version="1.1" id="Layer_1" xmlns="http://www.w3.org/2000/svg" xmlns:xlink="http://www.w3.org/1999/xlink" x="0px" y="0px"
	 viewBox="0 0 1000 737" enable-background="new 0 0 1000 737" xml:space="preserve">
<line fill="none" stroke="#431A94" stroke-width="5" stroke-linecap="round" stroke-linejoin="round" stroke-miterlimit="10" x1="247.8" y1="733.4" x2="747.8" y2="733.4"/>
<polyline fill="none" stroke="#431A94" stroke-width="5" stroke-linecap="round" stroke-linejoin="round" stroke-miterlimit="10" points="
	617.8,493.2 617.8,344.1 377.9,344.1 377.9,493.2 "/>
<polyline fill="none" stroke="#431A94" stroke-width="5" stroke-linecap="round" stroke-linejoin="round" stroke-miterlimit="10" points="
	575.5,342.4 575.5,321.6 420.2,321.6 420.2,342.4 "/>
<polyline fill="none" stroke="#431A94" stroke-width="5" stroke-linecap="round" stroke-linejoin="round" stroke-miterlimit="10" points="
	549.6,319.9 549.6,299.5 446.1,299.5 446.1,319.9 "/>
<polyline fill="none" stroke="#431A94" stroke-width="5" stroke-linejoin="round" stroke-miterlimit="10" points="529.5,733.5 
	529.5,412.2 466.2,412.2 466.2,733.5 "/>
<line fill="none" stroke="#431A94" stroke-width="5" stroke-linejoin="round" stroke-miterlimit="10" x1="487.7" y1="412.2" x2="487.7" y2="733.5"/>
<line fill="none" stroke="#431A94" stroke-width="5" stroke-linejoin="round" stroke-miterlimit="10" x1="508" y1="412.2" x2="508" y2="733.5"/>
<polyline fill="none" stroke="#431A94" stroke-width="5" stroke-linejoin="round" stroke-miterlimit="10" points="596.2,493.8 
	596.2,412.3 553.2,412.3 553.2,493.8 "/>
<line fill="none" stroke="#431A94" stroke-width="5" stroke-linecap="round" stroke-linejoin="round" stroke-miterlimit="10" x1="574.7" y1="412.3" x2="574.7" y2="494.8"/>
<line fill="none" stroke="#431A94" stroke-width="5" stroke-linecap="round" stroke-linejoin="round" stroke-miterlimit="10" x1="497.8" y1="34.5" x2="497.8" y2="133.5"/>
<line fill="none" stroke="#431A94" stroke-width="5" stroke-linecap="round" stroke-linejoin="round" stroke-miterlimit="10" x1="466.2" y1="297.9" x2="466.2" y2="269.5"/>
<line fill="none" stroke="#431A94" stroke-width="5" stroke-linecap="round" stroke-linejoin="round" stroke-miterlimit="10" x1="529.9" y1="297.9" x2="529.9" y2="269.5"/>
<line fill="none" stroke="#431A94" stroke-width="5" stroke-linecap="round" stroke-linejoin="round" stroke-miterlimit="10" x1="466.2" y1="269.5" x2="472.2" y2="263.6"/>
<line fill="none" stroke="#431A94" stroke-width="5" stroke-linecap="round" stroke-linejoin="round" stroke-miterlimit="10" x1="529.9" y1="269.5" x2="523.9" y2="263.6"/>
<line fill="none" stroke="#431A94" stroke-width="5" stroke-linecap="round" stroke-linejoin="round" stroke-miterlimit="10" x1="472.2" y1="263.2" x2="472.2" y2="233.4"/>
<line fill="none" stroke="#431A94" stroke-width="5" stroke-linecap="round" stroke-linejoin="round" stroke-miterlimit="10" x1="523.9" y1="263.2" x2="523.9" y2="233.4"/>
<line fill="none" stroke="#431A94" stroke-width="5" stroke-linecap="round" stroke-linejoin="round" stroke-miterlimit="10" x1="472.2" y1="233.4" x2="481.2" y2="224.5"/>
<line fill="none" stroke="#431A94" stroke-width="5" stroke-linecap="round" stroke-linejoin="round" stroke-miterlimit="10" x1="523.9" y1="233.4" x2="514.9" y2="224.5"/>
<line fill="none" stroke="#431A94" stroke-width="5" stroke-linecap="round" stroke-linejoin="round" stroke-miterlimit="10" x1="481.2" y1="224.1" x2="481.2" y2="165.3"/>
<line fill="none" stroke="#431A94" stroke-width="5" stroke-linecap="round" stroke-linejoin="round" stroke-miterlimit="10" x1="514.9" y1="224.1" x2="514.9" y2="165.3"/>
<line fill="none" stroke="#431A94" stroke-width="5" stroke-linecap="round" stroke-linejoin="round" stroke-miterlimit="10" x1="481.2" y1="164.3" x2="514.9" y2="164.3"/>
<path fill="none" stroke="#431A94" stroke-width="5" stroke-linecap="round" stroke-linejoin="round" stroke-miterlimit="10" d="
	M486.6,161.7v-10.1c0-6,5.3-15.3,11.3-15.3l0,0c6,0,11.3,9.3,11.3,15.3v10.1"/>
<polyline fill="none" stroke="#431A94" stroke-width="5" stroke-linejoin="round" stroke-miterlimit="10" points="650.3,733.2 
	650.3,672.6 547.4,672.6 547.4,733.2 "/>
<polyline fill="none" stroke="#431A94" stroke-width="5" stroke-linejoin="round" stroke-miterlimit="10" points="639.7,671.4 
	639.7,494.6 553.2,494.6 553.2,671.4 "/>
<line fill="none" stroke="#431A94" stroke-width="5" stroke-linecap="round" stroke-linejoin="round" stroke-miterlimit="10" x1="574.7" y1="516.9" x2="574.7" y2="672.6"/>
<line fill="none" stroke="#431A94" stroke-width="5" stroke-linecap="round" stroke-linejoin="round" stroke-miterlimit="10" x1="596.4" y1="516.9" x2="596.4" y2="672.6"/>
<line fill="none" stroke="#431A94" stroke-width="5" stroke-linecap="round" stroke-linejoin="round" stroke-miterlimit="10" x1="618.1" y1="516.9" x2="618.1" y2="672.6"/>
<line fill="none" stroke="#431A94" stroke-width="5" stroke-linecap="round" stroke-linejoin="round" stroke-miterlimit="10" x1="567.5" y1="692.8" x2="567.5" y2="733.4"/>
<line fill="none" stroke="#431A94" stroke-width="5" stroke-linecap="round" stroke-linejoin="round" stroke-miterlimit="10" x1="587.7" y1="692.8" x2="587.7" y2="733.4"/>
<line fill="none" stroke="#431A94" stroke-width="5" stroke-linecap="round" stroke-linejoin="round" stroke-miterlimit="10" x1="608" y1="692.8" x2="608" y2="733.4"/>
<line fill="none" stroke="#431A94" stroke-width="5" stroke-linecap="round" stroke-linejoin="round" stroke-miterlimit="10" x1="629.7" y1="692.8" x2="629.7" y2="733.4"/>
<polyline fill="none" stroke="#431A94" stroke-width="5" stroke-linejoin="round" stroke-miterlimit="10" points="398.3,493.8 
	398.3,412.3 441.4,412.3 441.4,493.8 "/>
<line fill="none" stroke="#431A94" stroke-width="5" stroke-linecap="round" stroke-linejoin="round" stroke-miterlimit="10" x1="419.9" y1="412.3" x2="419.9" y2="494.8"/>
<polyline fill="none" stroke="#431A94" stroke-width="5" stroke-linejoin="round" stroke-miterlimit="10" points="344.2,733.2 
	344.2,672.6 447.2,672.6 447.2,733.2 "/>
<polyline fill="none" stroke="#431A94" stroke-width="5" stroke-linejoin="round" stroke-miterlimit="10" points="354.9,671.4 
	354.9,494.6 441.4,494.6 441.4,671.4 "/>
<line fill="none" stroke="#431A94" stroke-width="5" stroke-linecap="round" stroke-linejoin="round" stroke-miterlimit="10" x1="419.9" y1="516.9" x2="419.9" y2="672.6"/>
<line fill="none" stroke="#431A94" stroke-width="5" stroke-linecap="round" stroke-linejoin="round" stroke-miterlimit="10" x1="398.2" y1="516.9" x2="398.2" y2="672.6"/>
<line fill="none" stroke="#431A94" stroke-width="5" stroke-linecap="round" stroke-linejoin="round" stroke-miterlimit="10" x1="376.4" y1="516.9" x2="376.4" y2="672.6"/>
<line fill="none" stroke="#431A94" stroke-width="5" stroke-linecap="round" stroke-linejoin="round" stroke-miterlimit="10" x1="365.3" y1="692.8" x2="365.3" y2="733.4"/>
<line fill="none" stroke="#431A94" stroke-width="5" stroke-linecap="round" stroke-linejoin="round" stroke-miterlimit="10" x1="385.6" y1="692.8" x2="385.6" y2="733.4"/>
<line fill="none" stroke="#431A94" stroke-width="5" stroke-linecap="round" stroke-linejoin="round" stroke-miterlimit="10" x1="405.8" y1="692.8" x2="405.8" y2="733.4"/>
<line fill="none" stroke="#431A94" stroke-width="5" stroke-linecap="round" stroke-linejoin="round" stroke-miterlimit="10" x1="427.5" y1="692.8" x2="427.5" y2="733.4"/>
<line fill="none" stroke="#431A94" stroke-width="5" stroke-linecap="round" stroke-linejoin="round" stroke-miterlimit="10" x1="497.8" y1="164.6" x2="497.8" y2="298.6"/>
</svg>
