<?xml version="1.0" encoding="utf-8"?>
<!-- Generator: Adobe Illustrator 18.1.0, SVG Export Plug-In . SVG Version: 6.00 Build 0)  -->
<svg version="1.1" id="Layer_1" xmlns="http://www.w3.org/2000/svg" xmlns:xlink="http://www.w3.org/1999/xlink" x="0px" y="0px"
	 viewBox="0 0 1000 737" enable-background="new 0 0 1000 737" xml:space="preserve">
<rect x="-121.7" y="-1440.1" fill="none" stroke="#431A94" stroke-width="5" stroke-miterlimit="10" width="600" height="480"/>
<line fill="none" stroke="#431A94" stroke-width="5" stroke-miterlimit="10" x1="-121.7" y1="-1388.1" x2="478.3" y2="-1388.1"/>
<circle fill="none" stroke="#431A94" stroke-width="3" stroke-miterlimit="10" cx="-78" cy="-1415.3" r="5"/>
<circle fill="none" stroke="#431A94" stroke-width="3" stroke-miterlimit="10" cx="-48" cy="-1415.3" r="5"/>
<circle fill="none" stroke="#431A94" stroke-width="3" stroke-miterlimit="10" cx="-18" cy="-1415.3" r="5"/>
<line fill="none" stroke="#431A94" stroke-width="5" stroke-miterlimit="10" x1="-17.6" y1="-1338.1" x2="31.9" y2="-1338.1"/>
<line fill="none" stroke="#431A94" stroke-width="5" stroke-miterlimit="10" x1="-17.6" y1="-1308" x2="112" y2="-1308"/>
<line fill="none" stroke="#431A94" stroke-width="5" stroke-miterlimit="10" x1="-17.6" y1="-1278" x2="82" y2="-1278"/>
<line fill="none" stroke="#431A94" stroke-width="5" stroke-miterlimit="10" x1="-81.7" y1="-1248" x2="-72.2" y2="-1248"/>
<line fill="none" stroke="#431A94" stroke-width="5" stroke-miterlimit="10" x1="-81.7" y1="-1308" x2="-72.2" y2="-1308"/>
<line fill="none" stroke="#431A94" stroke-width="5" stroke-miterlimit="10" x1="-81.7" y1="-1278" x2="-72.2" y2="-1278"/>
<line fill="none" stroke="#431A94" stroke-width="5" stroke-miterlimit="10" x1="-81.7" y1="-1157.9" x2="-72.2" y2="-1157.9"/>
<line fill="none" stroke="#431A94" stroke-width="5" stroke-miterlimit="10" x1="-81.7" y1="-1218" x2="-72.2" y2="-1218"/>
<line fill="none" stroke="#431A94" stroke-width="5" stroke-miterlimit="10" x1="-81.7" y1="-1187.9" x2="-72.2" y2="-1187.9"/>
<line fill="none" stroke="#431A94" stroke-width="5" stroke-miterlimit="10" x1="-81.7" y1="-1338.1" x2="-72.2" y2="-1338.1"/>
<line fill="none" stroke="#431A94" stroke-width="5" stroke-miterlimit="10" x1="-81.7" y1="-1127.9" x2="-72.2" y2="-1127.9"/>
<line fill="none" stroke="#431A94" stroke-width="5" stroke-miterlimit="10" x1="-81.7" y1="-1097.9" x2="-72.2" y2="-1097.9"/>
<line fill="none" stroke="#431A94" stroke-width="5" stroke-miterlimit="10" x1="-81.7" y1="-1067.8" x2="-72.2" y2="-1067.8"/>
<line fill="none" stroke="#431A94" stroke-width="5" stroke-miterlimit="10" x1="-17.6" y1="-1218" x2="51.9" y2="-1218"/>
<line fill="none" stroke="#431A94" stroke-width="5" stroke-miterlimit="10" x1="-17.6" y1="-1187.9" x2="82" y2="-1187.9"/>
<line fill="none" stroke="#431A94" stroke-width="5" stroke-miterlimit="10" x1="-17.6" y1="-1127.9" x2="51.9" y2="-1127.9"/>
<line fill="none" stroke="#431A94" stroke-width="5" stroke-miterlimit="10" x1="-17.6" y1="-1097.9" x2="72" y2="-1097.9"/>
<line fill="none" stroke="#431A94" stroke-width="5" stroke-miterlimit="10" x1="-81.7" y1="-1037.8" x2="-72.2" y2="-1037.8"/>
<line fill="none" stroke="#431A94" stroke-width="5" stroke-miterlimit="10" x1="-81.7" y1="-1007.8" x2="-72.2" y2="-1007.8"/>
<line fill="none" stroke="#431A94" stroke-width="5" stroke-miterlimit="10" x1="-17.6" y1="-1067.8" x2="31.9" y2="-1067.8"/>
<line fill="none" stroke="#431A94" stroke-width="5" stroke-miterlimit="10" x1="179" y1="-1386.3" x2="179" y2="-960.1"/>
<line fill="none" stroke="#431A94" stroke-width="5" stroke-miterlimit="10" x1="287.6" y1="-1127.9" x2="387.2" y2="-1127.9"/>
<line fill="none" stroke="#431A94" stroke-width="5" stroke-miterlimit="10" x1="223.6" y1="-1248" x2="233.1" y2="-1248"/>
<line fill="none" stroke="#431A94" stroke-width="5" stroke-miterlimit="10" x1="223.6" y1="-1308" x2="233.1" y2="-1308"/>
<line fill="none" stroke="#431A94" stroke-width="5" stroke-miterlimit="10" x1="223.6" y1="-1278" x2="233.1" y2="-1278"/>
<line fill="none" stroke="#431A94" stroke-width="5" stroke-miterlimit="10" x1="223.6" y1="-1157.9" x2="233.1" y2="-1157.9"/>
<line fill="none" stroke="#431A94" stroke-width="5" stroke-miterlimit="10" x1="223.6" y1="-1218" x2="233.1" y2="-1218"/>
<line fill="none" stroke="#431A94" stroke-width="5" stroke-miterlimit="10" x1="223.6" y1="-1187.9" x2="233.1" y2="-1187.9"/>
<line fill="none" stroke="#431A94" stroke-width="5" stroke-miterlimit="10" x1="223.6" y1="-1338.1" x2="233.1" y2="-1338.1"/>
<line fill="none" stroke="#431A94" stroke-width="5" stroke-miterlimit="10" x1="223.6" y1="-1127.9" x2="233.1" y2="-1127.9"/>
<line fill="none" stroke="#431A94" stroke-width="5" stroke-miterlimit="10" x1="223.6" y1="-1097.9" x2="233.1" y2="-1097.9"/>
<line fill="none" stroke="#431A94" stroke-width="5" stroke-miterlimit="10" x1="223.6" y1="-1067.8" x2="233.1" y2="-1067.8"/>
<line fill="none" stroke="#431A94" stroke-width="5" stroke-miterlimit="10" x1="287.6" y1="-1187.9" x2="357.2" y2="-1187.9"/>
<line fill="none" stroke="#431A94" stroke-width="5" stroke-miterlimit="10" x1="287.6" y1="-1218" x2="387.2" y2="-1218"/>
<line fill="none" stroke="#431A94" stroke-width="5" stroke-miterlimit="10" x1="287.6" y1="-1278" x2="337.2" y2="-1278"/>
<line fill="none" stroke="#431A94" stroke-width="5" stroke-miterlimit="10" x1="287.6" y1="-1308" x2="377.2" y2="-1308"/>
<line fill="none" stroke="#431A94" stroke-width="5" stroke-miterlimit="10" x1="223.6" y1="-1037.8" x2="233.1" y2="-1037.8"/>
<line fill="none" stroke="#431A94" stroke-width="5" stroke-miterlimit="10" x1="223.6" y1="-1007.8" x2="233.1" y2="-1007.8"/>
<line fill="none" stroke="#431A94" stroke-width="5" stroke-miterlimit="10" x1="287.6" y1="-1338.1" x2="357.2" y2="-1338.1"/>
<rect x="579.1" y="-1440.1" fill="none" stroke="#431A94" stroke-width="5" stroke-miterlimit="10" width="600" height="480"/>
<line fill="none" stroke="#431A94" stroke-width="5" stroke-miterlimit="10" x1="579.1" y1="-1388.1" x2="1179.1" y2="-1388.1"/>
<circle fill="none" stroke="#431A94" stroke-width="3" stroke-miterlimit="10" cx="622.8" cy="-1415.3" r="5"/>
<circle fill="none" stroke="#431A94" stroke-width="3" stroke-miterlimit="10" cx="652.9" cy="-1415.3" r="5"/>
<circle fill="none" stroke="#431A94" stroke-width="3" stroke-miterlimit="10" cx="682.9" cy="-1415.3" r="5"/>
<line fill="none" stroke="#431A94" stroke-width="5" stroke-miterlimit="10" x1="684.2" y1="-1338.1" x2="733.8" y2="-1338.1"/>
<line fill="none" stroke="#431A94" stroke-width="5" stroke-miterlimit="10" x1="684.2" y1="-1308" x2="813.9" y2="-1308"/>
<line fill="none" stroke="#431A94" stroke-width="5" stroke-miterlimit="10" x1="684.2" y1="-1278" x2="783.8" y2="-1278"/>
<line fill="none" stroke="#431A94" stroke-width="5" stroke-miterlimit="10" x1="617.2" y1="-1248" x2="626.7" y2="-1248"/>
<line fill="none" stroke="#431A94" stroke-width="5" stroke-miterlimit="10" x1="617.2" y1="-1308" x2="626.7" y2="-1308"/>
<line fill="none" stroke="#431A94" stroke-width="5" stroke-miterlimit="10" x1="617.2" y1="-1278" x2="626.7" y2="-1278"/>
<line fill="none" stroke="#431A94" stroke-width="5" stroke-miterlimit="10" x1="617.2" y1="-1157.9" x2="626.7" y2="-1157.9"/>
<line fill="none" stroke="#431A94" stroke-width="5" stroke-miterlimit="10" x1="617.2" y1="-1218" x2="626.7" y2="-1218"/>
<line fill="none" stroke="#431A94" stroke-width="5" stroke-miterlimit="10" x1="617.2" y1="-1187.9" x2="626.7" y2="-1187.9"/>
<line fill="none" stroke="#431A94" stroke-width="5" stroke-miterlimit="10" x1="617.2" y1="-1338.1" x2="626.7" y2="-1338.1"/>
<line fill="none" stroke="#431A94" stroke-width="5" stroke-miterlimit="10" x1="617.2" y1="-1127.9" x2="626.7" y2="-1127.9"/>
<line fill="none" stroke="#431A94" stroke-width="5" stroke-miterlimit="10" x1="617.2" y1="-1097.9" x2="626.7" y2="-1097.9"/>
<line fill="none" stroke="#431A94" stroke-width="5" stroke-miterlimit="10" x1="617.2" y1="-1067.8" x2="626.7" y2="-1067.8"/>
<line fill="none" stroke="#431A94" stroke-width="5" stroke-miterlimit="10" x1="684.2" y1="-1218" x2="753.8" y2="-1218"/>
<line fill="none" stroke="#431A94" stroke-width="5" stroke-miterlimit="10" x1="684.2" y1="-1187.9" x2="783.8" y2="-1187.9"/>
<line fill="none" stroke="#431A94" stroke-width="5" stroke-miterlimit="10" x1="684.2" y1="-1127.9" x2="753.8" y2="-1127.9"/>
<line fill="none" stroke="#431A94" stroke-width="5" stroke-miterlimit="10" x1="684.2" y1="-1097.9" x2="773.8" y2="-1097.9"/>
<line fill="none" stroke="#431A94" stroke-width="5" stroke-miterlimit="10" x1="617.2" y1="-1037.8" x2="626.7" y2="-1037.8"/>
<line fill="none" stroke="#431A94" stroke-width="5" stroke-miterlimit="10" x1="617.2" y1="-1007.8" x2="626.7" y2="-1007.8"/>
<line fill="none" stroke="#431A94" stroke-width="5" stroke-miterlimit="10" x1="684.2" y1="-1067.8" x2="733.8" y2="-1067.8"/>
<line fill="none" stroke="#431A94" stroke-width="5" stroke-miterlimit="10" x1="684.2" y1="-1157.9" x2="753.8" y2="-1157.9"/>
<g>
	<rect x="-756.7" y="253" fill="none" stroke="#431A94" stroke-width="5" stroke-miterlimit="10" width="600" height="480"/>
	<line fill="none" stroke="#431A94" stroke-width="5" stroke-miterlimit="10" x1="-756.7" y1="305" x2="-156.7" y2="305"/>
	<circle fill="none" stroke="#431A94" stroke-width="3" stroke-miterlimit="10" cx="-713" cy="277.8" r="5"/>
	<circle fill="none" stroke="#431A94" stroke-width="3" stroke-miterlimit="10" cx="-683" cy="277.8" r="5"/>
	<circle fill="none" stroke="#431A94" stroke-width="3" stroke-miterlimit="10" cx="-653" cy="277.8" r="5"/>
	<line fill="none" stroke="#431A94" stroke-width="5" stroke-miterlimit="10" x1="-591.6" y1="355" x2="-542" y2="355"/>
	<line fill="none" stroke="#431A94" stroke-width="5" stroke-miterlimit="10" x1="-591.6" y1="385.1" x2="-462" y2="385.1"/>
	<line fill="none" stroke="#431A94" stroke-width="5" stroke-miterlimit="10" x1="-591.6" y1="415.1" x2="-492" y2="415.1"/>
	<line fill="none" stroke="#431A94" stroke-width="5" stroke-miterlimit="10" x1="-721.7" y1="385.1" x2="-692.1" y2="385.1"/>
	<line fill="none" stroke="#431A94" stroke-width="5" stroke-miterlimit="10" x1="-721.7" y1="415.1" x2="-702.1" y2="415.1"/>
	<line fill="none" stroke="#431A94" stroke-width="5" stroke-miterlimit="10" x1="-721.7" y1="355" x2="-682.1" y2="355"/>
	<line fill="none" stroke="#431A94" stroke-width="5" stroke-miterlimit="10" x1="-591.6" y1="475.1" x2="-522" y2="475.1"/>
	<line fill="none" stroke="#431A94" stroke-width="5" stroke-miterlimit="10" x1="-591.6" y1="505.2" x2="-492" y2="505.2"/>
	<line fill="none" stroke="#431A94" stroke-width="5" stroke-miterlimit="10" x1="-591.6" y1="565.2" x2="-522" y2="565.2"/>
	<line fill="none" stroke="#431A94" stroke-width="5" stroke-miterlimit="10" x1="-591.6" y1="595.2" x2="-502" y2="595.2"/>
	<line fill="none" stroke="#431A94" stroke-width="5" stroke-miterlimit="10" x1="-591.6" y1="625.3" x2="-542" y2="625.3"/>
	<line fill="none" stroke="#431A94" stroke-width="5" stroke-miterlimit="10" x1="-591.6" y1="535.2" x2="-522" y2="535.2"/>
	<line fill="none" stroke="#431A94" stroke-width="5" stroke-miterlimit="10" x1="-653" y1="304.8" x2="-653" y2="731"/>
</g>
<g>
	<line fill="none" stroke="#431A94" stroke-width="6" stroke-miterlimit="10" x1="247" y1="731.9" x2="747" y2="731.9"/>
	<polyline fill="none" stroke="#431A94" stroke-width="6" stroke-miterlimit="10" points="616.9,494.7 616.9,332.6 377.1,332.6 
		377.1,494.7 	"/>
	<polyline fill="none" stroke="#431A94" stroke-width="6" stroke-miterlimit="10" points="583.6,330.9 583.6,305.1 410.3,305.1 
		410.3,330.9 	"/>
	<polyline fill="none" stroke="#431A94" stroke-width="6" stroke-miterlimit="10" points="549.7,303.4 549.7,279 444.3,279 
		444.3,303.4 	"/>
	<polyline fill="none" stroke="#431A94" stroke-width="6" stroke-miterlimit="10" points="528.7,732 528.7,410.7 465.3,410.7 
		465.3,732 	"/>
	<line fill="none" stroke="#431A94" stroke-width="6" stroke-miterlimit="10" x1="486.9" y1="410.7" x2="486.9" y2="732"/>
	<line fill="none" stroke="#431A94" stroke-width="6" stroke-miterlimit="10" x1="507.1" y1="410.7" x2="507.1" y2="732"/>
	<line fill="none" stroke="#431A94" stroke-width="6" stroke-miterlimit="10" x1="420.5" y1="363.2" x2="420.5" y2="377.8"/>
	<line fill="none" stroke="#431A94" stroke-width="6" stroke-miterlimit="10" x1="573.9" y1="363.2" x2="573.9" y2="377.8"/>
	<line fill="none" stroke="#431A94" stroke-width="6" stroke-miterlimit="10" x1="528.7" y1="363.2" x2="528.7" y2="377.8"/>
	<line fill="none" stroke="#431A94" stroke-width="6" stroke-miterlimit="10" x1="465.3" y1="363.2" x2="465.3" y2="377.8"/>
	<line fill="none" stroke="#431A94" stroke-width="6" stroke-miterlimit="10" x1="497.2" y1="363.2" x2="497.2" y2="377.8"/>
	<polyline fill="none" stroke="#431A94" stroke-width="6" stroke-miterlimit="10" points="595.4,493.3 595.4,410.8 552.3,410.8 
		552.3,493.3 	"/>
	<line fill="none" stroke="#431A94" stroke-width="6" stroke-miterlimit="10" x1="573.9" y1="410.8" x2="573.9" y2="493.3"/>
	
		<line fill="none" stroke="#431A94" stroke-width="6" stroke-linecap="round" stroke-miterlimit="10" x1="497" y1="2.6" x2="497" y2="119.6"/>
	<line fill="none" stroke="#431A94" stroke-width="6" stroke-miterlimit="10" x1="465.3" y1="277.4" x2="465.3" y2="249"/>
	<line fill="none" stroke="#431A94" stroke-width="6" stroke-miterlimit="10" x1="529" y1="277.4" x2="529" y2="249"/>
	
		<line fill="none" stroke="#431A94" stroke-width="6" stroke-linecap="round" stroke-linejoin="round" stroke-miterlimit="10" x1="465.3" y1="249" x2="471.3" y2="243"/>
	
		<line fill="none" stroke="#431A94" stroke-width="6" stroke-linecap="round" stroke-linejoin="round" stroke-miterlimit="10" x1="529" y1="249" x2="523" y2="243"/>
	
		<line fill="none" stroke="#431A94" stroke-width="6" stroke-linecap="round" stroke-miterlimit="10" x1="471.3" y1="242.7" x2="471.3" y2="222.9"/>
	
		<line fill="none" stroke="#431A94" stroke-width="6" stroke-linecap="round" stroke-miterlimit="10" x1="523" y1="242.7" x2="523" y2="222.9"/>
	
		<line fill="none" stroke="#431A94" stroke-width="6" stroke-linecap="round" stroke-linejoin="round" stroke-miterlimit="10" x1="471.3" y1="222.9" x2="477.3" y2="217"/>
	
		<line fill="none" stroke="#431A94" stroke-width="6" stroke-linecap="round" stroke-linejoin="round" stroke-miterlimit="10" x1="523" y1="222.9" x2="517" y2="217"/>
	
		<line fill="none" stroke="#431A94" stroke-width="6" stroke-linecap="round" stroke-miterlimit="10" x1="477.3" y1="216.6" x2="477.3" y2="144.8"/>
	
		<line fill="none" stroke="#431A94" stroke-width="6" stroke-linecap="round" stroke-miterlimit="10" x1="517" y1="216.6" x2="517" y2="144.8"/>
	<line fill="none" stroke="#431A94" stroke-width="6" stroke-miterlimit="10" x1="477.3" y1="144.8" x2="517" y2="144.8"/>
	<line fill="none" stroke="#431A94" stroke-width="6" stroke-miterlimit="10" x1="438.2" y1="317.3" x2="438.2" y2="321.2"/>
	<line fill="none" stroke="#431A94" stroke-width="6" stroke-miterlimit="10" x1="497" y1="317.3" x2="497" y2="321.2"/>
	<line fill="none" stroke="#431A94" stroke-width="6" stroke-miterlimit="10" x1="528.7" y1="317.3" x2="528.7" y2="321.2"/>
	<line fill="none" stroke="#431A94" stroke-width="6" stroke-miterlimit="10" x1="556.7" y1="317.3" x2="556.7" y2="321.2"/>
	<line fill="none" stroke="#431A94" stroke-width="6" stroke-miterlimit="10" x1="465.3" y1="317.3" x2="465.3" y2="321.2"/>
	<line fill="none" stroke="#431A94" stroke-width="6" stroke-miterlimit="10" x1="497" y1="289.8" x2="497" y2="293.7"/>
	<line fill="none" stroke="#431A94" stroke-width="6" stroke-miterlimit="10" x1="528.7" y1="289.8" x2="528.7" y2="293.7"/>
	<line fill="none" stroke="#431A94" stroke-width="6" stroke-miterlimit="10" x1="465.3" y1="289.8" x2="465.3" y2="293.7"/>
	<path fill="none" stroke="#431A94" stroke-width="6" stroke-linecap="round" stroke-linejoin="round" stroke-miterlimit="10" d="
		M484.7,144.2V134c0-6,6.3-12.3,12.3-12.3h0c6,0,12.3,6.3,12.3,12.3v10.1"/>
	<polyline fill="none" stroke="#431A94" stroke-width="6" stroke-miterlimit="10" points="647.5,731.7 647.5,671.1 546.5,671.1 
		546.5,731.7 	"/>
	<polyline fill="none" stroke="#431A94" stroke-width="6" stroke-miterlimit="10" points="638.8,670.9 638.8,493.2 552.3,493.2 
		552.3,670.9 	"/>
	<line fill="none" stroke="#431A94" stroke-width="6" stroke-miterlimit="10" x1="573.9" y1="515.4" x2="573.9" y2="671.1"/>
	<line fill="none" stroke="#431A94" stroke-width="6" stroke-miterlimit="10" x1="595.6" y1="515.4" x2="595.6" y2="671.1"/>
	<line fill="none" stroke="#431A94" stroke-width="6" stroke-miterlimit="10" x1="617.3" y1="515.4" x2="617.3" y2="671.1"/>
	<line fill="none" stroke="#431A94" stroke-width="6" stroke-miterlimit="10" x1="566.6" y1="691.3" x2="566.6" y2="731.9"/>
	<line fill="none" stroke="#431A94" stroke-width="6" stroke-miterlimit="10" x1="586.9" y1="691.3" x2="586.9" y2="731.9"/>
	<line fill="none" stroke="#431A94" stroke-width="6" stroke-miterlimit="10" x1="607.1" y1="691.3" x2="607.1" y2="731.9"/>
	<line fill="none" stroke="#431A94" stroke-width="6" stroke-miterlimit="10" x1="628.9" y1="691.3" x2="628.9" y2="731.9"/>
	<line fill="none" stroke="#431A94" stroke-width="6" stroke-miterlimit="10" x1="481" y1="289.8" x2="481" y2="293.7"/>
	<line fill="none" stroke="#431A94" stroke-width="6" stroke-miterlimit="10" x1="513" y1="289.8" x2="513" y2="293.7"/>
	<line fill="none" stroke="#431A94" stroke-width="6" stroke-miterlimit="10" x1="481" y1="317.3" x2="481" y2="321.2"/>
	<line fill="none" stroke="#431A94" stroke-width="6" stroke-miterlimit="10" x1="513" y1="317.3" x2="513" y2="321.2"/>
	<polyline fill="none" stroke="#431A94" stroke-width="6" stroke-miterlimit="10" points="397.5,493.3 397.5,410.8 440.5,410.8 
		440.5,493.3 	"/>
	<line fill="none" stroke="#431A94" stroke-width="6" stroke-miterlimit="10" x1="419" y1="410.8" x2="419" y2="493.3"/>
	<polyline fill="none" stroke="#431A94" stroke-width="6" stroke-miterlimit="10" points="345.4,731.7 345.4,671.1 446.3,671.1 
		446.3,731.7 	"/>
	<polyline fill="none" stroke="#431A94" stroke-width="6" stroke-miterlimit="10" points="354.1,670.9 354.1,493.2 440.5,493.2 
		440.5,670.9 	"/>
	<line fill="none" stroke="#431A94" stroke-width="6" stroke-miterlimit="10" x1="419" y1="515.4" x2="419" y2="671.1"/>
	<line fill="none" stroke="#431A94" stroke-width="6" stroke-miterlimit="10" x1="397.3" y1="515.4" x2="397.3" y2="671.1"/>
	<line fill="none" stroke="#431A94" stroke-width="6" stroke-miterlimit="10" x1="375.6" y1="515.4" x2="375.6" y2="671.1"/>
	<line fill="none" stroke="#431A94" stroke-width="6" stroke-miterlimit="10" x1="364.5" y1="691.3" x2="364.5" y2="731.9"/>
	<line fill="none" stroke="#431A94" stroke-width="6" stroke-miterlimit="10" x1="384.7" y1="691.3" x2="384.7" y2="731.9"/>
	<line fill="none" stroke="#431A94" stroke-width="6" stroke-miterlimit="10" x1="405" y1="691.3" x2="405" y2="731.9"/>
	<line fill="none" stroke="#431A94" stroke-width="6" stroke-miterlimit="10" x1="426.7" y1="691.3" x2="426.7" y2="731.9"/>
</g>
</svg>
