<?xml version="1.0" encoding="UTF-8" standalone="no"?>
<svg width="200px" height="200px" viewBox="0 0 200 200" version="1.1" xmlns="http://www.w3.org/2000/svg" xmlns:xlink="http://www.w3.org/1999/xlink" xmlns:sketch="http://www.bohemiancoding.com/sketch/ns">
    <!-- Generator: Sketch 3.5.2 (25235) - http://www.bohemiancoding.com/sketch -->
    <title>nyc</title>
    <desc>Created with Sketch.</desc>
    <defs></defs>
    <g id="Design" stroke="none" stroke-width="1" fill="none" fill-rule="evenodd" sketch:type="MSPage">
        <g id="nyc" sketch:type="MSArtboardGroup" stroke="#000000">
            <g id="Page-1" sketch:type="MSLayerGroup" transform="translate(55.000000, 1.000000)" stroke-linejoin="round">
                <path d="M79,131 L79,88 L11,88 L11,131" id="Stroke-3" stroke-linecap="round" sketch:type="MSShapeGroup"></path>
                <path d="M67,88 L67,81 L23,81 L23,88" id="Stroke-4" stroke-linecap="round" sketch:type="MSShapeGroup"></path>
                <path d="M60,81 L60,75 L30,75 L30,81" id="Stroke-5" stroke-linecap="round" sketch:type="MSShapeGroup"></path>
                <g id="Group-12" transform="translate(35.248996, 106.831325)" sketch:type="MSShapeGroup">
                    <path d="M18.751004,92.1686747 L18.751004,0.168674699 L0.751004016,0.168674699 L0.751004016,92.1686747" id="Stroke-6"></path>
                    <path d="M6.75100402,0.200803213 L6.75100402,91.7670683" id="Stroke-8"></path>
                    <path d="M12.751004,0.200803213 L12.751004,91.7670683" id="Stroke-10"></path>
                </g>
                <path d="M67,107 L67,131" id="Stroke-14" stroke-linecap="round" sketch:type="MSShapeGroup"></path>
                <path d="M45,0 L45,29" id="Stroke-15" stroke-linecap="round" sketch:type="MSShapeGroup"></path>
                <path d="M36,75 L36,66.4" id="Stroke-17" stroke-linecap="round" sketch:type="MSShapeGroup"></path>
                <path d="M54,75 L54,66.4" id="Stroke-18" stroke-linecap="round" sketch:type="MSShapeGroup"></path>
                <path d="M36.1966466,66.1404418 L37.8331928,64.3998795" id="Stroke-19" stroke-linecap="round" sketch:type="MSShapeGroup"></path>
                <path d="M52.1966466,66.1404418 L53.8331928,64.3998795" id="Stroke-19" stroke-linecap="round" sketch:type="MSShapeGroup" transform="translate(53.014920, 65.270161) scale(-1, 1) translate(-53.014920, -65.270161) "></path>
                <path d="M51,64.2610442 L51,55.8273092" id="Stroke-21" stroke-linecap="round" sketch:type="MSShapeGroup" transform="translate(51.500000, 60.044177) scale(-1, 1) translate(-51.500000, -60.044177) "></path>
                <path d="M50,55.7755622 L51.9974183,53.698012" id="Stroke-23" stroke-linecap="round" sketch:type="MSShapeGroup" transform="translate(50.998709, 54.736787) scale(-1, 1) translate(-50.998709, -54.736787) "></path>
                <path d="M38,64.2610442 L38,55.8273092" id="Stroke-21" stroke-linecap="round" sketch:type="MSShapeGroup"></path>
                <path d="M38,55.7755622 L39.9974183,53.698012" id="Stroke-23" stroke-linecap="round" sketch:type="MSShapeGroup"></path>
                <path d="M50,53.5 L50,36" id="Stroke-26" stroke-linecap="round" sketch:type="MSShapeGroup"></path>
                <path d="M40,36 L49.9,36" id="Stroke-27" stroke-linecap="round" sketch:type="MSShapeGroup"></path>
                <g id="Group-72" transform="translate(0.309237, 28.915663)" sketch:type="MSShapeGroup">
                    <path d="M40.6907631,7.08433735 L40.6907631,4.30652257 C40.6907631,2.6226217 42.5894297,0.0843373494 44.6907631,0.0843373494 C46.7920964,0.0843373494 48.6907631,2.6226217 48.6907631,4.30652257 L48.6907631,7.08433735" id="Stroke-28" stroke-linecap="round"></path>
                    <path d="M88.6907631,170.084337 L88.6907631,152.084337 L58.6907631,152.084337 L58.6907631,170.084337" id="Stroke-30"></path>
                    <path d="M85.6907631,152.084337 L85.6907631,102.084337 L60.6907631,102.084337 L60.6907631,152.084337" id="Stroke-32"></path>
                    <path d="M66.6907631,108.084337 L66.6907631,152.084337" id="Stroke-34" stroke-linecap="round"></path>
                    <path d="M10.6907631,108.084337 L10.6907631,152.084337" id="Stroke-34" stroke-linecap="round"></path>
                    <path d="M16.6907631,108.084337 L16.6907631,152.084337" id="Stroke-36" stroke-linecap="round"></path>
                    <path d="M22.6907631,108.084337 L22.6907631,152.084337" id="Stroke-38" stroke-linecap="round"></path>
                    <path d="M72.6907631,108.084337 L72.6907631,152.084337" id="Stroke-36" stroke-linecap="round"></path>
                    <path d="M78.6907631,108.084337 L78.6907631,152.084337" id="Stroke-38" stroke-linecap="round"></path>
                    <path d="M64.6907631,158.084337 L64.6907631,170.084337" id="Stroke-40" stroke-linecap="round"></path>
                    <path d="M70.6907631,158.084337 L70.6907631,170.084337" id="Stroke-42" stroke-linecap="round"></path>
                    <path d="M76.6907631,158.084337 L76.6907631,170.084337" id="Stroke-44" stroke-linecap="round"></path>
                    <path d="M82.6907631,158.084337 L82.6907631,170.084337" id="Stroke-46" stroke-linecap="round"></path>
                    <path d="M16.6907631,102.084337 L16.6907631,78.0843373 L28.6907631,78.0843373 L28.6907631,102.084337" id="Stroke-48"></path>
                    <path d="M60.6907631,102.084337 L60.6907631,78.0843373 L72.6907631,78.0843373 L72.6907631,102.084337" id="Stroke-48"></path>
                    <path d="M22.6907631,78.0843373 L22.6907631,102.084337" id="Stroke-50" stroke-linecap="round"></path>
                    <path d="M0.690763052,170.084337 L0.690763052,152.084337 L30.6907631,152.084337 L30.6907631,170.084337" id="Stroke-52"></path>
                    <path d="M3.69076305,152.084337 L3.69076305,102.084337 L28.6907631,102.084337 L28.6907631,152.084337" id="Stroke-54"></path>
                    <path d="M6.69076305,158.084337 L6.69076305,170.084337" id="Stroke-62" stroke-linecap="round"></path>
                    <path d="M12.6907631,158.084337 L12.6907631,170.084337" id="Stroke-64" stroke-linecap="round"></path>
                    <path d="M18.6907631,158.084337 L18.6907631,170.084337" id="Stroke-66" stroke-linecap="round"></path>
                    <path d="M24.6907631,158.084337 L24.6907631,170.084337" id="Stroke-68" stroke-linecap="round"></path>
                    <path d="M44.6907631,7.08433735 L44.6907631,46.0843373" id="Stroke-70" stroke-linecap="round"></path>
                </g>
            </g>
            <path d="M95,54.5 L95,37" id="Stroke-26" stroke-linecap="round" stroke-linejoin="round" sketch:type="MSShapeGroup"></path>
            <path d="M28.5,199.5 L170.514084,199.5" id="Line" stroke-linecap="square" sketch:type="MSShapeGroup"></path>
        </g>
    </g>
</svg>