<?xml version="1.0" encoding="utf-8"?>
<!-- Generator: Adobe Illustrator 18.1.0, SVG Export Plug-In . SVG Version: 6.00 Build 0)  -->
<svg version="1.1" id="Layer_1" xmlns="http://www.w3.org/2000/svg" xmlns:xlink="http://www.w3.org/1999/xlink" x="0px" y="0px"
	 viewBox="0 0 1000 737" enable-background="new 0 0 1000 737" xml:space="preserve">
<rect x="-121.7" y="-1440.1" fill="none" stroke="#431A94" stroke-width="5" stroke-miterlimit="10" width="600" height="480"/>
<line fill="none" stroke="#431A94" stroke-width="5" stroke-miterlimit="10" x1="-121.7" y1="-1388.1" x2="478.3" y2="-1388.1"/>
<circle fill="none" stroke="#431A94" stroke-width="3" stroke-miterlimit="10" cx="-78" cy="-1415.3" r="5"/>
<circle fill="none" stroke="#431A94" stroke-width="3" stroke-miterlimit="10" cx="-48" cy="-1415.3" r="5"/>
<circle fill="none" stroke="#431A94" stroke-width="3" stroke-miterlimit="10" cx="-18" cy="-1415.3" r="5"/>
<line fill="none" stroke="#431A94" stroke-width="5" stroke-miterlimit="10" x1="-17.6" y1="-1338.1" x2="31.9" y2="-1338.1"/>
<line fill="none" stroke="#431A94" stroke-width="5" stroke-miterlimit="10" x1="-17.6" y1="-1308" x2="112" y2="-1308"/>
<line fill="none" stroke="#431A94" stroke-width="5" stroke-miterlimit="10" x1="-17.6" y1="-1278" x2="82" y2="-1278"/>
<line fill="none" stroke="#431A94" stroke-width="5" stroke-miterlimit="10" x1="-81.7" y1="-1248" x2="-72.2" y2="-1248"/>
<line fill="none" stroke="#431A94" stroke-width="5" stroke-miterlimit="10" x1="-81.7" y1="-1308" x2="-72.2" y2="-1308"/>
<line fill="none" stroke="#431A94" stroke-width="5" stroke-miterlimit="10" x1="-81.7" y1="-1278" x2="-72.2" y2="-1278"/>
<line fill="none" stroke="#431A94" stroke-width="5" stroke-miterlimit="10" x1="-81.7" y1="-1157.9" x2="-72.2" y2="-1157.9"/>
<line fill="none" stroke="#431A94" stroke-width="5" stroke-miterlimit="10" x1="-81.7" y1="-1218" x2="-72.2" y2="-1218"/>
<line fill="none" stroke="#431A94" stroke-width="5" stroke-miterlimit="10" x1="-81.7" y1="-1187.9" x2="-72.2" y2="-1187.9"/>
<line fill="none" stroke="#431A94" stroke-width="5" stroke-miterlimit="10" x1="-81.7" y1="-1338.1" x2="-72.2" y2="-1338.1"/>
<line fill="none" stroke="#431A94" stroke-width="5" stroke-miterlimit="10" x1="-81.7" y1="-1127.9" x2="-72.2" y2="-1127.9"/>
<line fill="none" stroke="#431A94" stroke-width="5" stroke-miterlimit="10" x1="-81.7" y1="-1097.9" x2="-72.2" y2="-1097.9"/>
<line fill="none" stroke="#431A94" stroke-width="5" stroke-miterlimit="10" x1="-81.7" y1="-1067.8" x2="-72.2" y2="-1067.8"/>
<line fill="none" stroke="#431A94" stroke-width="5" stroke-miterlimit="10" x1="-17.6" y1="-1218" x2="51.9" y2="-1218"/>
<line fill="none" stroke="#431A94" stroke-width="5" stroke-miterlimit="10" x1="-17.6" y1="-1187.9" x2="82" y2="-1187.9"/>
<line fill="none" stroke="#431A94" stroke-width="5" stroke-miterlimit="10" x1="-17.6" y1="-1127.9" x2="51.9" y2="-1127.9"/>
<line fill="none" stroke="#431A94" stroke-width="5" stroke-miterlimit="10" x1="-17.6" y1="-1097.9" x2="72" y2="-1097.9"/>
<line fill="none" stroke="#431A94" stroke-width="5" stroke-miterlimit="10" x1="-81.7" y1="-1037.8" x2="-72.2" y2="-1037.8"/>
<line fill="none" stroke="#431A94" stroke-width="5" stroke-miterlimit="10" x1="-81.7" y1="-1007.8" x2="-72.2" y2="-1007.8"/>
<line fill="none" stroke="#431A94" stroke-width="5" stroke-miterlimit="10" x1="-17.6" y1="-1067.8" x2="31.9" y2="-1067.8"/>
<line fill="none" stroke="#431A94" stroke-width="5" stroke-miterlimit="10" x1="179" y1="-1386.3" x2="179" y2="-960.1"/>
<line fill="none" stroke="#431A94" stroke-width="5" stroke-miterlimit="10" x1="287.6" y1="-1127.9" x2="387.2" y2="-1127.9"/>
<line fill="none" stroke="#431A94" stroke-width="5" stroke-miterlimit="10" x1="223.6" y1="-1248" x2="233.1" y2="-1248"/>
<line fill="none" stroke="#431A94" stroke-width="5" stroke-miterlimit="10" x1="223.6" y1="-1308" x2="233.1" y2="-1308"/>
<line fill="none" stroke="#431A94" stroke-width="5" stroke-miterlimit="10" x1="223.6" y1="-1278" x2="233.1" y2="-1278"/>
<line fill="none" stroke="#431A94" stroke-width="5" stroke-miterlimit="10" x1="223.6" y1="-1157.9" x2="233.1" y2="-1157.9"/>
<line fill="none" stroke="#431A94" stroke-width="5" stroke-miterlimit="10" x1="223.6" y1="-1218" x2="233.1" y2="-1218"/>
<line fill="none" stroke="#431A94" stroke-width="5" stroke-miterlimit="10" x1="223.6" y1="-1187.9" x2="233.1" y2="-1187.9"/>
<line fill="none" stroke="#431A94" stroke-width="5" stroke-miterlimit="10" x1="223.6" y1="-1338.1" x2="233.1" y2="-1338.1"/>
<line fill="none" stroke="#431A94" stroke-width="5" stroke-miterlimit="10" x1="223.6" y1="-1127.9" x2="233.1" y2="-1127.9"/>
<line fill="none" stroke="#431A94" stroke-width="5" stroke-miterlimit="10" x1="223.6" y1="-1097.9" x2="233.1" y2="-1097.9"/>
<line fill="none" stroke="#431A94" stroke-width="5" stroke-miterlimit="10" x1="223.6" y1="-1067.8" x2="233.1" y2="-1067.8"/>
<line fill="none" stroke="#431A94" stroke-width="5" stroke-miterlimit="10" x1="287.6" y1="-1187.9" x2="357.2" y2="-1187.9"/>
<line fill="none" stroke="#431A94" stroke-width="5" stroke-miterlimit="10" x1="287.6" y1="-1218" x2="387.2" y2="-1218"/>
<line fill="none" stroke="#431A94" stroke-width="5" stroke-miterlimit="10" x1="287.6" y1="-1278" x2="337.2" y2="-1278"/>
<line fill="none" stroke="#431A94" stroke-width="5" stroke-miterlimit="10" x1="287.6" y1="-1308" x2="377.2" y2="-1308"/>
<line fill="none" stroke="#431A94" stroke-width="5" stroke-miterlimit="10" x1="223.6" y1="-1037.8" x2="233.1" y2="-1037.8"/>
<line fill="none" stroke="#431A94" stroke-width="5" stroke-miterlimit="10" x1="223.6" y1="-1007.8" x2="233.1" y2="-1007.8"/>
<line fill="none" stroke="#431A94" stroke-width="5" stroke-miterlimit="10" x1="287.6" y1="-1338.1" x2="357.2" y2="-1338.1"/>
<rect x="579.1" y="-1440.1" fill="none" stroke="#431A94" stroke-width="5" stroke-miterlimit="10" width="600" height="480"/>
<line fill="none" stroke="#431A94" stroke-width="5" stroke-miterlimit="10" x1="579.1" y1="-1388.1" x2="1179.1" y2="-1388.1"/>
<circle fill="none" stroke="#431A94" stroke-width="3" stroke-miterlimit="10" cx="622.8" cy="-1415.3" r="5"/>
<circle fill="none" stroke="#431A94" stroke-width="3" stroke-miterlimit="10" cx="652.9" cy="-1415.3" r="5"/>
<circle fill="none" stroke="#431A94" stroke-width="3" stroke-miterlimit="10" cx="682.9" cy="-1415.3" r="5"/>
<line fill="none" stroke="#431A94" stroke-width="5" stroke-miterlimit="10" x1="684.2" y1="-1338.1" x2="733.8" y2="-1338.1"/>
<line fill="none" stroke="#431A94" stroke-width="5" stroke-miterlimit="10" x1="684.2" y1="-1308" x2="813.9" y2="-1308"/>
<line fill="none" stroke="#431A94" stroke-width="5" stroke-miterlimit="10" x1="684.2" y1="-1278" x2="783.8" y2="-1278"/>
<line fill="none" stroke="#431A94" stroke-width="5" stroke-miterlimit="10" x1="617.2" y1="-1248" x2="626.7" y2="-1248"/>
<line fill="none" stroke="#431A94" stroke-width="5" stroke-miterlimit="10" x1="617.2" y1="-1308" x2="626.7" y2="-1308"/>
<line fill="none" stroke="#431A94" stroke-width="5" stroke-miterlimit="10" x1="617.2" y1="-1278" x2="626.7" y2="-1278"/>
<line fill="none" stroke="#431A94" stroke-width="5" stroke-miterlimit="10" x1="617.2" y1="-1157.9" x2="626.7" y2="-1157.9"/>
<line fill="none" stroke="#431A94" stroke-width="5" stroke-miterlimit="10" x1="617.2" y1="-1218" x2="626.7" y2="-1218"/>
<line fill="none" stroke="#431A94" stroke-width="5" stroke-miterlimit="10" x1="617.2" y1="-1187.9" x2="626.7" y2="-1187.9"/>
<line fill="none" stroke="#431A94" stroke-width="5" stroke-miterlimit="10" x1="617.2" y1="-1338.1" x2="626.7" y2="-1338.1"/>
<line fill="none" stroke="#431A94" stroke-width="5" stroke-miterlimit="10" x1="617.2" y1="-1127.9" x2="626.7" y2="-1127.9"/>
<line fill="none" stroke="#431A94" stroke-width="5" stroke-miterlimit="10" x1="617.2" y1="-1097.9" x2="626.7" y2="-1097.9"/>
<line fill="none" stroke="#431A94" stroke-width="5" stroke-miterlimit="10" x1="617.2" y1="-1067.8" x2="626.7" y2="-1067.8"/>
<line fill="none" stroke="#431A94" stroke-width="5" stroke-miterlimit="10" x1="684.2" y1="-1218" x2="753.8" y2="-1218"/>
<line fill="none" stroke="#431A94" stroke-width="5" stroke-miterlimit="10" x1="684.2" y1="-1187.9" x2="783.8" y2="-1187.9"/>
<line fill="none" stroke="#431A94" stroke-width="5" stroke-miterlimit="10" x1="684.2" y1="-1127.9" x2="753.8" y2="-1127.9"/>
<line fill="none" stroke="#431A94" stroke-width="5" stroke-miterlimit="10" x1="684.2" y1="-1097.9" x2="773.8" y2="-1097.9"/>
<line fill="none" stroke="#431A94" stroke-width="5" stroke-miterlimit="10" x1="617.2" y1="-1037.8" x2="626.7" y2="-1037.8"/>
<line fill="none" stroke="#431A94" stroke-width="5" stroke-miterlimit="10" x1="617.2" y1="-1007.8" x2="626.7" y2="-1007.8"/>
<line fill="none" stroke="#431A94" stroke-width="5" stroke-miterlimit="10" x1="684.2" y1="-1067.8" x2="733.8" y2="-1067.8"/>
<line fill="none" stroke="#431A94" stroke-width="5" stroke-miterlimit="10" x1="684.2" y1="-1157.9" x2="753.8" y2="-1157.9"/>
<g>
	<rect x="-765" y="251.9" fill="none" stroke="#431A94" stroke-width="5" stroke-miterlimit="10" width="600" height="480"/>
	<line fill="none" stroke="#431A94" stroke-width="5" stroke-miterlimit="10" x1="-765" y1="303.9" x2="-165" y2="303.9"/>
	<circle fill="none" stroke="#431A94" stroke-width="3" stroke-miterlimit="10" cx="-721.3" cy="276.7" r="5"/>
	<circle fill="none" stroke="#431A94" stroke-width="3" stroke-miterlimit="10" cx="-691.3" cy="276.7" r="5"/>
	<circle fill="none" stroke="#431A94" stroke-width="3" stroke-miterlimit="10" cx="-661.3" cy="276.7" r="5"/>
	<line fill="none" stroke="#431A94" stroke-width="5" stroke-miterlimit="10" x1="-599.9" y1="353.9" x2="-550.3" y2="353.9"/>
	<line fill="none" stroke="#431A94" stroke-width="5" stroke-miterlimit="10" x1="-599.9" y1="384" x2="-470.2" y2="384"/>
	<line fill="none" stroke="#431A94" stroke-width="5" stroke-miterlimit="10" x1="-599.9" y1="414" x2="-500.3" y2="414"/>
	<line fill="none" stroke="#431A94" stroke-width="5" stroke-miterlimit="10" x1="-730" y1="384" x2="-700.4" y2="384"/>
	<line fill="none" stroke="#431A94" stroke-width="5" stroke-miterlimit="10" x1="-730" y1="414" x2="-710.4" y2="414"/>
	<line fill="none" stroke="#431A94" stroke-width="5" stroke-miterlimit="10" x1="-730" y1="353.9" x2="-690.4" y2="353.9"/>
	<line fill="none" stroke="#431A94" stroke-width="5" stroke-miterlimit="10" x1="-599.9" y1="474" x2="-530.3" y2="474"/>
	<line fill="none" stroke="#431A94" stroke-width="5" stroke-miterlimit="10" x1="-599.9" y1="504.1" x2="-500.3" y2="504.1"/>
	<line fill="none" stroke="#431A94" stroke-width="5" stroke-miterlimit="10" x1="-599.9" y1="564.1" x2="-530.3" y2="564.1"/>
	<line fill="none" stroke="#431A94" stroke-width="5" stroke-miterlimit="10" x1="-599.9" y1="594.1" x2="-510.3" y2="594.1"/>
	<line fill="none" stroke="#431A94" stroke-width="5" stroke-miterlimit="10" x1="-599.9" y1="624.2" x2="-550.3" y2="624.2"/>
	<line fill="none" stroke="#431A94" stroke-width="5" stroke-miterlimit="10" x1="-599.9" y1="534.1" x2="-530.3" y2="534.1"/>
	<line fill="none" stroke="#431A94" stroke-width="5" stroke-miterlimit="10" x1="-661.3" y1="303.7" x2="-661.3" y2="729.8"/>
</g>
<g>
	<line fill="none" stroke="#431A94" stroke-width="6" stroke-miterlimit="10" x1="250" y1="731.9" x2="750" y2="731.9"/>
	<polyline fill="none" stroke="#431A94" stroke-width="6" stroke-miterlimit="10" points="619.9,494.7 619.9,332.6 380.1,332.6 
		380.1,494.7 	"/>
	<polyline fill="none" stroke="#431A94" stroke-width="6" stroke-miterlimit="10" points="586.7,330.9 586.7,305.1 413.3,305.1 
		413.3,330.9 	"/>
	<polyline fill="none" stroke="#431A94" stroke-width="6" stroke-miterlimit="10" points="557.7,303.4 557.7,279 442.3,279 
		442.3,303.4 	"/>
	<polyline fill="none" stroke="#431A94" stroke-width="6" stroke-miterlimit="10" points="531.7,732 531.7,410.7 468.3,410.7 
		468.3,732 	"/>
	<line fill="none" stroke="#431A94" stroke-width="6" stroke-miterlimit="10" x1="489.9" y1="410.7" x2="489.9" y2="732"/>
	<line fill="none" stroke="#431A94" stroke-width="6" stroke-miterlimit="10" x1="510.1" y1="410.7" x2="510.1" y2="732"/>
	<line fill="none" stroke="#431A94" stroke-width="6" stroke-miterlimit="10" x1="423.5" y1="363.2" x2="423.5" y2="377.8"/>
	<line fill="none" stroke="#431A94" stroke-width="6" stroke-miterlimit="10" x1="576.9" y1="363.2" x2="576.9" y2="377.8"/>
	<line fill="none" stroke="#431A94" stroke-width="6" stroke-miterlimit="10" x1="531.7" y1="363.2" x2="531.7" y2="377.8"/>
	<line fill="none" stroke="#431A94" stroke-width="6" stroke-miterlimit="10" x1="468.3" y1="363.2" x2="468.3" y2="377.8"/>
	<line fill="none" stroke="#431A94" stroke-width="6" stroke-miterlimit="10" x1="500.2" y1="363.2" x2="500.2" y2="377.8"/>
	<polyline fill="none" stroke="#431A94" stroke-width="6" stroke-miterlimit="10" points="598.4,493.3 598.4,410.8 555.3,410.8 
		555.3,493.3 	"/>
	<line fill="none" stroke="#431A94" stroke-width="6" stroke-miterlimit="10" x1="576.9" y1="410.8" x2="576.9" y2="493.3"/>
	
		<line fill="none" stroke="#431A94" stroke-width="6" stroke-linecap="round" stroke-miterlimit="10" x1="500" y1="2.6" x2="500" y2="119.6"/>
	<line fill="none" stroke="#431A94" stroke-width="6" stroke-miterlimit="10" x1="468.3" y1="277.4" x2="468.3" y2="249"/>
	<line fill="none" stroke="#431A94" stroke-width="6" stroke-miterlimit="10" x1="532" y1="277.4" x2="532" y2="249"/>
	
		<line fill="none" stroke="#431A94" stroke-width="6" stroke-linecap="round" stroke-linejoin="round" stroke-miterlimit="10" x1="468.3" y1="249" x2="474.3" y2="243"/>
	
		<line fill="none" stroke="#431A94" stroke-width="6" stroke-linecap="round" stroke-linejoin="round" stroke-miterlimit="10" x1="532" y1="249" x2="526" y2="243"/>
	
		<line fill="none" stroke="#431A94" stroke-width="6" stroke-linecap="round" stroke-miterlimit="10" x1="474.3" y1="242.7" x2="474.3" y2="222.9"/>
	
		<line fill="none" stroke="#431A94" stroke-width="6" stroke-linecap="round" stroke-miterlimit="10" x1="526" y1="242.7" x2="526" y2="222.9"/>
	
		<line fill="none" stroke="#431A94" stroke-width="6" stroke-linecap="round" stroke-linejoin="round" stroke-miterlimit="10" x1="474.3" y1="222.9" x2="480.3" y2="217"/>
	
		<line fill="none" stroke="#431A94" stroke-width="6" stroke-linecap="round" stroke-linejoin="round" stroke-miterlimit="10" x1="526" y1="222.9" x2="520" y2="217"/>
	
		<line fill="none" stroke="#431A94" stroke-width="6" stroke-linecap="round" stroke-miterlimit="10" x1="480.3" y1="216.6" x2="480.3" y2="144.8"/>
	
		<line fill="none" stroke="#431A94" stroke-width="6" stroke-linecap="round" stroke-miterlimit="10" x1="520" y1="216.6" x2="520" y2="144.8"/>
	<line fill="none" stroke="#431A94" stroke-width="6" stroke-miterlimit="10" x1="480.3" y1="144.8" x2="520" y2="144.8"/>
	<line fill="none" stroke="#431A94" stroke-width="6" stroke-miterlimit="10" x1="439.2" y1="317.3" x2="439.2" y2="321.2"/>
	<line fill="none" stroke="#431A94" stroke-width="6" stroke-miterlimit="10" x1="500" y1="317.3" x2="500" y2="321.2"/>
	<line fill="none" stroke="#431A94" stroke-width="6" stroke-miterlimit="10" x1="531.7" y1="317.3" x2="531.7" y2="321.2"/>
	<line fill="none" stroke="#431A94" stroke-width="6" stroke-miterlimit="10" x1="559.7" y1="317.3" x2="559.7" y2="321.2"/>
	<line fill="none" stroke="#431A94" stroke-width="6" stroke-miterlimit="10" x1="468.3" y1="317.3" x2="468.3" y2="321.2"/>
	<line fill="none" stroke="#431A94" stroke-width="6" stroke-miterlimit="10" x1="500" y1="289.8" x2="500" y2="293.7"/>
	<line fill="none" stroke="#431A94" stroke-width="6" stroke-miterlimit="10" x1="531.7" y1="289.8" x2="531.7" y2="293.7"/>
	<line fill="none" stroke="#431A94" stroke-width="6" stroke-miterlimit="10" x1="468.3" y1="289.8" x2="468.3" y2="293.7"/>
	<path fill="none" stroke="#431A94" stroke-width="6" stroke-linecap="round" stroke-linejoin="round" stroke-miterlimit="10" d="
		M487.7,144.2V134c0-6,6.3-12.3,12.3-12.3l0,0c6,0,12.3,6.3,12.3,12.3v10.1"/>
	<polyline fill="none" stroke="#431A94" stroke-width="6" stroke-miterlimit="10" points="650.5,731.7 650.5,671.1 549.5,671.1 
		549.5,731.7 	"/>
	<polyline fill="none" stroke="#431A94" stroke-width="6" stroke-miterlimit="10" points="641.8,670.9 641.8,493.2 555.3,493.2 
		555.3,670.9 	"/>
	<line fill="none" stroke="#431A94" stroke-width="6" stroke-miterlimit="10" x1="576.9" y1="515.4" x2="576.9" y2="671.1"/>
	<line fill="none" stroke="#431A94" stroke-width="6" stroke-miterlimit="10" x1="598.6" y1="515.4" x2="598.6" y2="671.1"/>
	<line fill="none" stroke="#431A94" stroke-width="6" stroke-miterlimit="10" x1="620.3" y1="515.4" x2="620.3" y2="671.1"/>
	<line fill="none" stroke="#431A94" stroke-width="6" stroke-miterlimit="10" x1="569.6" y1="691.3" x2="569.6" y2="731.9"/>
	<line fill="none" stroke="#431A94" stroke-width="6" stroke-miterlimit="10" x1="589.9" y1="691.3" x2="589.9" y2="731.9"/>
	<line fill="none" stroke="#431A94" stroke-width="6" stroke-miterlimit="10" x1="610.2" y1="691.3" x2="610.2" y2="731.9"/>
	<line fill="none" stroke="#431A94" stroke-width="6" stroke-miterlimit="10" x1="631.9" y1="691.3" x2="631.9" y2="731.9"/>
	<line fill="none" stroke="#431A94" stroke-width="6" stroke-miterlimit="10" x1="484" y1="289.8" x2="484" y2="293.7"/>
	<line fill="none" stroke="#431A94" stroke-width="6" stroke-miterlimit="10" x1="516" y1="289.8" x2="516" y2="293.7"/>
	<line fill="none" stroke="#431A94" stroke-width="6" stroke-miterlimit="10" x1="484" y1="317.3" x2="484" y2="321.2"/>
	<line fill="none" stroke="#431A94" stroke-width="6" stroke-miterlimit="10" x1="516" y1="317.3" x2="516" y2="321.2"/>
	<polyline fill="none" stroke="#431A94" stroke-width="6" stroke-miterlimit="10" points="400.5,493.3 400.5,410.8 443.5,410.8 
		443.5,493.3 	"/>
	<line fill="none" stroke="#431A94" stroke-width="6" stroke-miterlimit="10" x1="422" y1="410.8" x2="422" y2="493.3"/>
	<polyline fill="none" stroke="#431A94" stroke-width="6" stroke-miterlimit="10" points="348.4,731.7 348.4,671.1 449.3,671.1 
		449.3,731.7 	"/>
	<polyline fill="none" stroke="#431A94" stroke-width="6" stroke-miterlimit="10" points="357.1,670.9 357.1,493.2 443.5,493.2 
		443.5,670.9 	"/>
	<line fill="none" stroke="#431A94" stroke-width="6" stroke-miterlimit="10" x1="422" y1="515.4" x2="422" y2="671.1"/>
	<line fill="none" stroke="#431A94" stroke-width="6" stroke-miterlimit="10" x1="400.3" y1="515.4" x2="400.3" y2="671.1"/>
	<line fill="none" stroke="#431A94" stroke-width="6" stroke-miterlimit="10" x1="378.6" y1="515.4" x2="378.6" y2="671.1"/>
	<line fill="none" stroke="#431A94" stroke-width="6" stroke-miterlimit="10" x1="367.5" y1="691.3" x2="367.5" y2="731.9"/>
	<line fill="none" stroke="#431A94" stroke-width="6" stroke-miterlimit="10" x1="387.7" y1="691.3" x2="387.7" y2="731.9"/>
	<line fill="none" stroke="#431A94" stroke-width="6" stroke-miterlimit="10" x1="408" y1="691.3" x2="408" y2="731.9"/>
	<line fill="none" stroke="#431A94" stroke-width="6" stroke-miterlimit="10" x1="429.7" y1="691.3" x2="429.7" y2="731.9"/>
</g>
</svg>
