<?xml version="1.0" encoding="utf-8"?>
<!-- Generator: Adobe Illustrator 18.1.0, SVG Export Plug-In . SVG Version: 6.00 Build 0)  -->
<svg version="1.1" id="Layer_1" xmlns="http://www.w3.org/2000/svg" xmlns:xlink="http://www.w3.org/1999/xlink" x="0px" y="0px"
	 viewBox="83.3 0 792.7 1000" enable-background="new 83.3 0 792.7 1000" xml:space="preserve">
<ellipse fill="none" stroke="#FFFFFF" stroke-width="8" stroke-miterlimit="10" cx="344.7" cy="542.8" rx="55.3" ry="55.3"/>
<ellipse fill="none" stroke="#FFFFFF" stroke-width="8" stroke-miterlimit="10" cx="617.8" cy="542.8" rx="55.3" ry="55.3"/>
<polyline fill="none" stroke="#FFFFFF" stroke-width="8" stroke-miterlimit="10" points="421.3,838.3 478.9,838.3 536.7,838.3 "/>
<line fill="none" stroke="#FFFFFF" stroke-width="8" stroke-miterlimit="10" x1="89.3" y1="476.1" x2="175.8" y2="476.1"/>
<line fill="none" stroke="#FFFFFF" stroke-width="8" stroke-miterlimit="10" x1="778.7" y1="476.1" x2="869.8" y2="476.1"/>
<line fill="none" stroke="#FFFFFF" stroke-width="6" stroke-miterlimit="10" x1="86.8" y1="519.5" x2="86.8" y2="432.8"/>
<line fill="none" stroke="#FFFFFF" stroke-width="8" stroke-miterlimit="10" x1="872" y1="519.5" x2="872" y2="432.8"/>
<line fill="none" stroke="#FFFFFF" stroke-width="8" stroke-miterlimit="10" x1="478.9" y1="248.7" x2="478.9" y2="85"/>
<circle fill="none" stroke="#FFFFFF" stroke-width="8.5714" stroke-miterlimit="10" cx="479.1" cy="54.6" r="50"/>
<polyline fill="none" stroke="#FFFFFF" stroke-width="8" stroke-miterlimit="10" points="421.3,793.9 478.9,793.9 536.7,793.9 "/>
<polyline fill="none" stroke="#FFFFFF" stroke-width="8" stroke-miterlimit="10" points="421.3,816.1 478.9,816.1 536.7,816.1 "/>
<line fill="none" stroke="#FFFFFF" stroke-width="8" stroke-miterlimit="10" x1="323.3" y1="542.8" x2="368.9" y2="542.8"/>
<line fill="none" stroke="#FFFFFF" stroke-width="8" stroke-miterlimit="10" x1="597.8" y1="542.8" x2="643.3" y2="542.8"/>
<line fill="none" stroke="#FFFFFF" stroke-width="8" stroke-miterlimit="10" x1="634.7" y1="248.7" x2="634.7" y2="143.9"/>
<circle fill="none" stroke="#FFFFFF" stroke-width="7.8857" stroke-miterlimit="10" cx="634.9" cy="117.2" r="46"/>
<line fill="none" stroke="#FFFFFF" stroke-width="8" stroke-miterlimit="10" x1="323.3" y1="248.7" x2="323.3" y2="143.9"/>
<circle fill="none" stroke="#FFFFFF" stroke-width="7.8857" stroke-miterlimit="10" cx="323.6" cy="117.2" r="46"/>
<path fill="none" stroke="#FFFFFF" stroke-width="8" stroke-linecap="round" stroke-linejoin="round" stroke-miterlimit="10" d="
	M782.2,250.4H175.6v424.3c0,179.1,124.2,321.3,303.3,321.3c178.9,0,303.3-142.2,303.3-321.3V250.4z"/>
</svg>
