<?xml version="1.0" encoding="utf-8"?>
<!-- Generator: Adobe Illustrator 18.1.0, SVG Export Plug-In . SVG Version: 6.00 Build 0)  -->
<svg version="1.1" id="Layer_1" xmlns="http://www.w3.org/2000/svg" xmlns:xlink="http://www.w3.org/1999/xlink" x="0px" y="0px"
	 viewBox="631.1 438 358 450" enable-background="new 631.1 438 358 450" xml:space="preserve">
<path fill="none" stroke="#FFFFFF" stroke-width="4" stroke-linecap="round" stroke-linejoin="round" stroke-miterlimit="10" d="
	M946.5,549.1v192.3c0,80.6-56,144.6-136.5,144.6c-80.6,0-136.5-64-136.5-144.6V549.1c15.2,0,277.2,0,273.1,0.4"/>
<ellipse fill="none" stroke="#FFFFFF" stroke-width="4" stroke-miterlimit="10" cx="749.6" cy="682" rx="24.9" ry="24.9"/>
<ellipse fill="none" stroke="#FFFFFF" stroke-width="4" stroke-miterlimit="10" cx="872.5" cy="682" rx="24.9" ry="24.9"/>
<polyline fill="none" stroke="#FFFFFF" stroke-width="4" stroke-miterlimit="10" points="784.1,815 810,815 836,815 "/>
<line fill="none" stroke="#FFFFFF" stroke-width="4" stroke-miterlimit="10" x1="634.7" y1="672" x2="673.7" y2="672"/>
<line fill="none" stroke="#FFFFFF" stroke-width="4" stroke-miterlimit="10" x1="956.9" y1="672" x2="985.9" y2="672"/>
<line fill="none" stroke="#FFFFFF" stroke-width="4" stroke-miterlimit="10" x1="633.6" y1="687" x2="633.6" y2="657"/>
<line fill="none" stroke="#FFFFFF" stroke-width="4" stroke-miterlimit="10" x1="986.9" y1="687" x2="986.9" y2="657"/>
<line fill="none" stroke="#FFFFFF" stroke-width="4" stroke-miterlimit="10" x1="810" y1="548.5" x2="810" y2="472.4"/>
<circle fill="none" stroke="#FFFFFF" stroke-width="4.6667" stroke-miterlimit="10" cx="810.1" cy="460.5" r="21"/>
<polyline fill="none" stroke="#FFFFFF" stroke-width="4" stroke-miterlimit="10" points="784.1,795 810,795 836,795 "/>
<polyline fill="none" stroke="#FFFFFF" stroke-width="4" stroke-miterlimit="10" points="784.1,805 810,805 836,805 "/>
<line fill="none" stroke="#FFFFFF" stroke-width="4" stroke-miterlimit="10" x1="740" y1="682" x2="760.5" y2="682"/>
<line fill="none" stroke="#FFFFFF" stroke-width="4" stroke-miterlimit="10" x1="863.5" y1="682" x2="884" y2="682"/>
<line fill="none" stroke="#FFFFFF" stroke-width="4" stroke-miterlimit="10" x1="880.1" y1="548.5" x2="880.1" y2="502.5"/>
<circle fill="none" stroke="#FFFFFF" stroke-width="4.6667" stroke-miterlimit="10" cx="880.2" cy="490.5" r="21"/>
<line fill="none" stroke="#FFFFFF" stroke-width="4" stroke-miterlimit="10" x1="740" y1="548.5" x2="740" y2="502.5"/>
<circle fill="none" stroke="#FFFFFF" stroke-width="4.6667" stroke-miterlimit="10" cx="740.1" cy="490.5" r="21"/>
</svg>
