<?xml version="1.0" encoding="utf-8"?>
<!-- Generator: Adobe Illustrator 18.1.0, SVG Export Plug-In . SVG Version: 6.00 Build 0)  -->
<svg version="1.1" id="Layer_1" xmlns="http://www.w3.org/2000/svg" xmlns:xlink="http://www.w3.org/1999/xlink" x="0px" y="0px"
	 viewBox="0 0 1600 1600" enable-background="new 0 0 1600 1600" xml:space="preserve">
<g>
	<path fill="#FFFFFF" d="M800,8c53.7,0,107.4,5.4,159.6,16.1c50.8,10.4,100.9,25.9,148.7,46.1c46.9,19.8,92.2,44.4,134.5,73
		c41.9,28.3,81.4,60.9,117.2,96.7c35.8,35.8,68.4,75.3,96.7,117.2c28.6,42.3,53.2,87.6,73,134.5c20.2,47.8,35.7,97.8,46.1,148.7
		c10.7,52.2,16.1,105.9,16.1,159.6s-5.4,107.4-16.1,159.6c-10.4,50.8-25.9,100.9-46.1,148.7c-19.8,46.9-44.4,92.2-73,134.5
		c-28.3,41.9-60.9,81.4-96.7,117.2c-35.8,35.8-75.3,68.4-117.2,96.7c-42.3,28.6-87.6,53.2-134.5,73c-47.8,20.2-97.8,35.7-148.7,46.1
		c-52.2,10.7-105.9,16.1-159.6,16.1s-107.4-5.4-159.6-16.1c-50.8-10.4-100.9-25.9-148.7-46.1c-46.9-19.8-92.2-44.4-134.5-73
		c-41.9-28.3-81.4-60.9-117.2-96.7c-35.8-35.8-68.4-75.3-96.7-117.2c-28.6-42.3-53.2-87.6-73-134.5c-20.2-47.8-35.7-97.8-46.1-148.7
		C13.4,907.4,8,853.7,8,800s5.4-107.4,16.1-159.6C34.5,589.5,50,539.5,70.2,491.7c19.8-46.9,44.4-92.2,73-134.5
		c28.3-41.9,60.9-81.4,96.7-117.2c35.8-35.8,75.3-68.4,117.2-96.7c42.3-28.6,87.6-53.2,134.5-73c47.8-20.2,97.8-35.7,148.7-46.1
		C692.6,13.4,746.3,8,800,8 M800,0C358.2,0,0,358.2,0,800s358.2,800,800,800s800-358.2,800-800S1241.8,0,800,0L800,0z"/>
</g>
</svg>
