<?xml version="1.0" encoding="utf-8"?>
<!-- Generator: Adobe Illustrator 18.1.0, SVG Export Plug-In . SVG Version: 6.00 Build 0)  -->
<svg version="1.1" id="Layer_1" xmlns="http://www.w3.org/2000/svg" xmlns:xlink="http://www.w3.org/1999/xlink" x="0px" y="0px"
	 viewBox="631.1 438 358 450" enable-background="new 631.1 438 358 450" xml:space="preserve">
<path fill="none" stroke="#FFFFFF" stroke-width="4" stroke-linecap="round" stroke-linejoin="round" stroke-miterlimit="10" d="
	M946.5,549.1v192.3c0,80.6-56,144.6-136.5,144.6c-80.6,0-136.5-64-136.5-144.6V549.1c2.5,6,4.9,9.7,8,14.5c2,3.2,5.4,7.1,8.5,9.8
	c6.9,5.9,19.9,14.6,35,21.4c13.6,6.1,28.2,8.1,43,6.7c9.9-0.9,19.3-4.7,28.1-9.4c25.5-13.8,44.4-41.4,54.7-68.5
	c4.1,22.5,24.5,44.2,43.2,56.3c8.3,5.4,11.2,6,22.3,7.8c1.9,0.3,6.5,0.1,10.6-1.1c3.2-1,11.2-8.6,13.5-13.3c3.3-7,6-21.7,6.2-23.8"
	/>
<path fill="none" stroke="#FFFFFF" stroke-width="4" stroke-miterlimit="10" d="M671,718.6c-22,0-37.9-17.9-37.9-39.9
	s15.8-39.9,37.9-39.9"/>
<path fill="none" stroke="#FFFFFF" stroke-width="4" stroke-miterlimit="10" d="M949.3,638.8c22,0,37.9,17.9,37.9,39.9
	s-15.8,39.9-37.9,39.9"/>
<path fill="none" stroke="#FFFFFF" stroke-width="4" stroke-miterlimit="10" d="M826,669.6v53.1c0,10.4-5.5,18.9-15.9,18.9l0,0
	c-10.4,0-16.9-8.5-16.9-18.9v-53.1"/>
<ellipse fill="none" stroke="#FFFFFF" stroke-width="4" stroke-miterlimit="10" cx="739.6" cy="692" rx="24.9" ry="24.9"/>
<ellipse fill="none" stroke="#FFFFFF" stroke-width="4" stroke-miterlimit="10" cx="882.5" cy="692" rx="24.9" ry="24.9"/>
<ellipse fill="#FFFFFF" stroke="#FFFFFF" stroke-width="0.841" stroke-miterlimit="10" cx="732.1" cy="693" rx="13" ry="13"/>
<ellipse fill="#FFFFFF" stroke="#FFFFFF" stroke-width="0.841" stroke-miterlimit="10" cx="875.1" cy="693" rx="13" ry="13"/>
<path fill="none" stroke="#FFFFFF" stroke-width="4" stroke-miterlimit="10" d="M843.5,814.7c19.8,0,35.9-14,35.9-31.4"/>
<line fill="none" stroke="#FFFFFF" stroke-width="4" stroke-linecap="round" stroke-linejoin="round" stroke-miterlimit="10" x1="653.5" y1="640.3" x2="653.5" y2="528.6"/>
<line fill="none" stroke="#FFFFFF" stroke-width="4" stroke-linecap="round" stroke-linejoin="round" stroke-miterlimit="10" x1="965.7" y1="528.6" x2="965.7" y2="641.3"/>
<path fill="none" stroke="#FFFFFF" stroke-width="4" stroke-miterlimit="10" d="M653.5,529.1c0-50.3,70.3-90.1,157.1-90.1
	s155.1,39.8,155.1,90.1"/>
<path fill="none" stroke="#FFFFFF" stroke-width="4" stroke-miterlimit="10" d="M712,644.2c11.6-2.5,23.3-4.4,35.1-5.5
	c2.7-0.3,5.6-0.5,8.2,0.7c2.5,1.2,4.4,4.2,3.3,6.7"/>
<path fill="none" stroke="#FFFFFF" stroke-width="4" stroke-miterlimit="10" d="M908.4,644.2c-11.6-2.5-23.3-4.4-35.1-5.5
	c-2.7-0.3-5.6-0.5-8.2,0.7c-2.5,1.2-4.4,4.2-3.3,6.7"/>
</svg>
