<?xml version="1.0" encoding="utf-8"?>
<!-- Generator: Adobe Illustrator 18.1.0, SVG Export Plug-In . SVG Version: 6.00 Build 0)  -->
<svg version="1.1" id="Layer_1" xmlns="http://www.w3.org/2000/svg" xmlns:xlink="http://www.w3.org/1999/xlink" x="0px" y="0px"
	 viewBox="0 0 636 491" enable-background="new 0 0 636 491" xml:space="preserve">
<g>
	<line fill="none" stroke="#462F8E" stroke-width="4" stroke-miterlimit="10" x1="320.8" y1="167" x2="320.8" y2="252"/>
	<path fill="none" stroke="#462F8E" stroke-width="4" stroke-linecap="round" stroke-linejoin="round" stroke-miterlimit="10" d="
		M518.1,321.4v-67.9l0,0c0-1.1-0.9-1.9-1.9-1.9H119.7c-1.1,0-1.9,0.9-1.9,1.9l0,0v67.9"/>
	<g>
		<g>
			<path fill="#462F8E" d="M424.6,3.7c2.2,0,4,1.8,4,4v151.8c0,2.2-1.8,4-4,4H212.9c-2.2,0-4-1.8-4-4V7.7c0-2.2,1.8-4,4-4H424.6
				 M424.6-0.3H212.9c-4.4,0-8,3.6-8,8v151.8c0,4.4,3.6,8,8,8h211.7c4.4,0,8-3.6,8-8V7.7C432.6,3.3,429-0.3,424.6-0.3L424.6-0.3z"/>
		</g>
		<path fill="#462F8E" d="M429.8,32h-223V7.3c0-3,2.4-5.3,5.3-5.3h212.3c3,0,5.3,2.4,5.3,5.3V32z"/>
		<line fill="none" stroke="#462F8E" stroke-width="6" stroke-miterlimit="10" x1="231.2" y1="59.1" x2="310.9" y2="59.1"/>
		<line fill="none" stroke="#462F8E" stroke-width="3" stroke-miterlimit="10" x1="231.2" y1="84.1" x2="381" y2="84.1"/>
		<circle fill="none" stroke="#462F8E" stroke-width="3" stroke-miterlimit="10" cx="396.2" cy="132.8" r="10"/>
		<path fill="none" stroke="#462F8E" stroke-width="3" stroke-miterlimit="10" d="M267.1,142.8h-25c-5.5,0-10-4.5-10-10v0
			c0-5.5,4.5-10,10-10h25c5.5,0,10,4.5,10,10v0C277.1,138.3,272.6,142.8,267.1,142.8z"/>
	</g>
	<g>
		<g>
			<path fill="#462F8E" d="M224.5,324c2.2,0,4,1.8,4,4v151.8c0,2.2-1.8,4-4,4H12.8c-2.2,0-4-1.8-4-4V328c0-2.2,1.8-4,4-4H224.5
				 M224.5,320H12.8c-4.4,0-8,3.6-8,8v151.8c0,4.4,3.6,8,8,8h211.7c4.4,0,8-3.6,8-8V328C232.5,323.6,228.9,320,224.5,320L224.5,320z
				"/>
		</g>
		<path fill="#462F8E" d="M229.6,352.3H7.6v-24.7c0-3,2.4-5.3,5.3-5.3h211.3c3,0,5.3,2.4,5.3,5.3V352.3z"/>
		<line fill="none" stroke="#462F8E" stroke-width="6" stroke-miterlimit="10" x1="31" y1="379.4" x2="110.8" y2="379.4"/>
		<line fill="none" stroke="#462F8E" stroke-width="3" stroke-miterlimit="10" x1="31" y1="404.4" x2="180.8" y2="404.4"/>
		<circle fill="none" stroke="#462F8E" stroke-width="3" stroke-miterlimit="10" cx="196.1" cy="453" r="10"/>
		<path fill="none" stroke="#462F8E" stroke-width="3" stroke-miterlimit="10" d="M67,463H42c-5.5,0-10-4.5-10-10v0
			c0-5.5,4.5-10,10-10h25c5.5,0,10,4.5,10,10v0C77,458.5,72.5,463,67,463z"/>
	</g>
	<g>
		<g>
			<path fill="#462F8E" d="M624.8,324c2.2,0,4,1.8,4,4v151.8c0,2.2-1.8,4-4,4H413.1c-2.2,0-4-1.8-4-4V328c0-2.2,1.8-4,4-4H624.8
				 M624.8,320H413.1c-4.4,0-8,3.6-8,8v151.8c0,4.4,3.6,8,8,8h211.7c4.4,0,8-3.6,8-8V328C632.8,323.6,629.2,320,624.8,320L624.8,320
				z"/>
		</g>
		<path fill="#462F8E" d="M629.9,352.3h-222v-24.7c0-3,2.4-5.3,5.3-5.3h211.3c3,0,5.3,2.4,5.3,5.3V352.3z"/>
		<line fill="none" stroke="#462F8E" stroke-width="6" stroke-miterlimit="10" x1="431.3" y1="379.4" x2="511.1" y2="379.4"/>
		<line fill="none" stroke="#462F8E" stroke-width="3" stroke-miterlimit="10" x1="431.3" y1="404.4" x2="581.2" y2="404.4"/>
		<circle fill="none" stroke="#462F8E" stroke-width="3" stroke-miterlimit="10" cx="596.4" cy="453" r="10"/>
		<path fill="none" stroke="#462F8E" stroke-width="3" stroke-miterlimit="10" d="M467.3,463h-25c-5.5,0-10-4.5-10-10v0
			c0-5.5,4.5-10,10-10h25c5.5,0,10,4.5,10,10v0C477.3,458.5,472.8,463,467.3,463z"/>
	</g>
</g>
</svg>
