<?xml version="1.0" encoding="utf-8"?>
<!-- Generator: Adobe Illustrator 18.1.0, SVG Export Plug-In . SVG Version: 6.00 Build 0)  -->
<svg version="1.1" id="Layer_1" xmlns="http://www.w3.org/2000/svg" xmlns:xlink="http://www.w3.org/1999/xlink" x="0px" y="0px"
	 viewBox="0 0 636 491" enable-background="new 0 0 636 491" xml:space="preserve">
<path fill="none" stroke="#462F8E" stroke-width="4" stroke-linecap="round" stroke-linejoin="round" stroke-miterlimit="10" d="
	M9.7,255.7"/>
<path fill="none" stroke="#462F8E" stroke-width="4" stroke-linecap="round" stroke-linejoin="round" stroke-miterlimit="10" d="
	M273.4,245.8H9.6"/>
<g>
	<g>
		<path fill="#462F8E" d="M426.6,6c2.2,0,4,1.8,4,4v151.8c0,2.2-1.8,4-4,4H214.9c-2.2,0-4-1.8-4-4V10c0-2.2,1.8-4,4-4H426.6
			 M426.6,2H214.9c-4.4,0-8,3.6-8,8v151.8c0,4.4,3.6,8,8,8h211.7c4.4,0,8-3.6,8-8V10C434.6,5.6,431,2,426.6,2L426.6,2z"/>
	</g>
	<path fill="#462F8E" d="M431.8,34.3h-223V9.6c0-3,2.4-5.3,5.3-5.3h212.3c3,0,5.3,2.4,5.3,5.3V34.3z"/>
	<line fill="none" stroke="#462F8E" stroke-width="6" stroke-miterlimit="10" x1="233.2" y1="61.4" x2="312.9" y2="61.4"/>
	<line fill="none" stroke="#462F8E" stroke-width="3" stroke-miterlimit="10" x1="233.2" y1="86.4" x2="383" y2="86.4"/>
	<circle fill="none" stroke="#462F8E" stroke-width="3" stroke-miterlimit="10" cx="398.2" cy="135" r="10"/>
	<path fill="none" stroke="#462F8E" stroke-width="3" stroke-miterlimit="10" d="M269.1,145h-25c-5.5,0-10-4.5-10-10v0
		c0-5.5,4.5-10,10-10h25c5.5,0,10,4.5,10,10v0C279.1,140.5,274.6,145,269.1,145z"/>
</g>
<g>
	<g>
		<path fill="#462F8E" d="M226.5,326.3c2.2,0,4,1.8,4,4V482c0,2.2-1.8,4-4,4H14.8c-2.2,0-4-1.8-4-4V330.3c0-2.2,1.8-4,4-4H226.5
			 M226.5,322.3H14.8c-4.4,0-8,3.6-8,8V482c0,4.4,3.6,8,8,8h211.7c4.4,0,8-3.6,8-8V330.3C234.5,325.8,230.9,322.3,226.5,322.3
			L226.5,322.3z"/>
	</g>
	<path fill="#462F8E" d="M231.6,354.5H9.6v-24.7c0-3,2.4-5.3,5.3-5.3h211.3c3,0,5.3,2.4,5.3,5.3V354.5z"/>
	<line fill="none" stroke="#462F8E" stroke-width="6" stroke-miterlimit="10" x1="33" y1="381.6" x2="112.8" y2="381.6"/>
	<line fill="none" stroke="#462F8E" stroke-width="3" stroke-miterlimit="10" x1="33" y1="406.7" x2="182.8" y2="406.7"/>
	<circle fill="none" stroke="#462F8E" stroke-width="3" stroke-miterlimit="10" cx="198.1" cy="455.3" r="10"/>
	<path fill="none" stroke="#462F8E" stroke-width="3" stroke-miterlimit="10" d="M69,465.3H44c-5.5,0-10-4.5-10-10v0
		c0-5.5,4.5-10,10-10h25c5.5,0,10,4.5,10,10v0C79,460.8,74.5,465.3,69,465.3z"/>
</g>
<g>
	<g>
		<path fill="#462F8E" d="M626.8,326.3c2.2,0,4,1.8,4,4V482c0,2.2-1.8,4-4,4H415.1c-2.2,0-4-1.8-4-4V330.3c0-2.2,1.8-4,4-4H626.8
			 M626.8,322.3H415.1c-4.4,0-8,3.6-8,8V482c0,4.4,3.6,8,8,8h211.7c4.4,0,8-3.6,8-8V330.3C634.8,325.8,631.2,322.3,626.8,322.3
			L626.8,322.3z"/>
	</g>
	<path fill="#462F8E" d="M631.9,354.5h-222v-24.7c0-3,2.4-5.3,5.3-5.3h211.3c3,0,5.3,2.4,5.3,5.3V354.5z"/>
	<line fill="none" stroke="#462F8E" stroke-width="6" stroke-miterlimit="10" x1="433.3" y1="381.6" x2="513.1" y2="381.6"/>
	<line fill="none" stroke="#462F8E" stroke-width="3" stroke-miterlimit="10" x1="433.3" y1="406.7" x2="583.2" y2="406.7"/>
	<circle fill="none" stroke="#462F8E" stroke-width="3" stroke-miterlimit="10" cx="598.4" cy="455.3" r="10"/>
	<path fill="none" stroke="#462F8E" stroke-width="3" stroke-miterlimit="10" d="M469.3,465.3h-25c-5.5,0-10-4.5-10-10v0
		c0-5.5,4.5-10,10-10h25c5.5,0,10,4.5,10,10v0C479.3,460.8,474.8,465.3,469.3,465.3z"/>
</g>
<path fill="none" stroke="#462F8E" stroke-width="4" stroke-linecap="round" stroke-linejoin="round" stroke-miterlimit="10" d="
	M630.2,245.8H366.4"/>
<polyline fill="none" stroke="#462F8E" stroke-width="6" stroke-linecap="round" stroke-linejoin="round" stroke-miterlimit="10" points="
	333.7,229.3 316,250.3 307,240.3 "/>
</svg>
