<?xml version="1.0" encoding="utf-8"?>
<!-- Generator: Adobe Illustrator 18.1.0, SVG Export Plug-In . SVG Version: 6.00 Build 0)  -->
<svg version="1.1" id="Layer_1" xmlns="http://www.w3.org/2000/svg" xmlns:xlink="http://www.w3.org/1999/xlink" x="0px" y="0px"
	 viewBox="0 0 636 491" enable-background="new 0 0 636 491" xml:space="preserve">
<path fill="none" stroke="#462F8E" stroke-width="4" stroke-linecap="round" stroke-linejoin="round" stroke-miterlimit="10" d="
	M7.9,256.1"/>
<path fill="none" stroke="#462F8E" stroke-width="4" stroke-linecap="round" stroke-linejoin="round" stroke-miterlimit="10" d="
	M271.6,246.2H7.8"/>
<g>
	<g>
		<path fill="#462F8E" d="M425.8,5.4c2.2,0,4,1.8,4,4v151.8c0,2.2-1.8,4-4,4H214.1c-2.2,0-4-1.8-4-4V9.4c0-2.2,1.8-4,4-4H425.8
			 M425.8,1.4H214.1c-4.4,0-8,3.6-8,8v151.8c0,4.4,3.6,8,8,8h211.7c4.4,0,8-3.6,8-8V9.4C433.8,5,430.3,1.4,425.8,1.4L425.8,1.4z"/>
	</g>
	<path fill="#462F8E" d="M431,33.6H208V9c0-3,2.4-5.3,5.3-5.3h212.3c3,0,5.3,2.4,5.3,5.3V33.6z"/>
	<line fill="none" stroke="#462F8E" stroke-width="6" stroke-miterlimit="10" x1="232.4" y1="60.7" x2="312.2" y2="60.7"/>
	<line fill="none" stroke="#462F8E" stroke-width="3" stroke-miterlimit="10" x1="232.4" y1="85.8" x2="382.2" y2="85.8"/>
	<circle fill="none" stroke="#462F8E" stroke-width="3" stroke-miterlimit="10" cx="397.5" cy="134.4" r="10"/>
	<path fill="none" stroke="#462F8E" stroke-width="3" stroke-miterlimit="10" d="M268.3,144.4h-25c-5.5,0-10-4.5-10-10v0
		c0-5.5,4.5-10,10-10h25c5.5,0,10,4.5,10,10v0C278.3,139.9,273.8,144.4,268.3,144.4z"/>
</g>
<g>
	<g>
		<path fill="#462F8E" d="M224.7,325.6c2.2,0,4,1.8,4,4v151.8c0,2.2-1.8,4-4,4H13c-2.2,0-4-1.8-4-4V329.6c0-2.2,1.8-4,4-4H224.7
			 M224.7,321.6H13c-4.4,0-8,3.6-8,8v151.8c0,4.4,3.6,8,8,8h211.7c4.4,0,8-3.6,8-8V329.6C232.7,325.2,229.1,321.6,224.7,321.6
			L224.7,321.6z"/>
	</g>
	<path fill="#462F8E" d="M229.8,353.9H7.8v-24.7c0-3,2.4-5.3,5.3-5.3h211.3c3,0,5.3,2.4,5.3,5.3V353.9z"/>
	<line fill="none" stroke="#462F8E" stroke-width="6" stroke-miterlimit="10" x1="31.2" y1="381" x2="111" y2="381"/>
	<line fill="none" stroke="#462F8E" stroke-width="3" stroke-miterlimit="10" x1="31.2" y1="406" x2="181.1" y2="406"/>
	<circle fill="none" stroke="#462F8E" stroke-width="3" stroke-miterlimit="10" cx="196.3" cy="454.6" r="10"/>
	<path fill="none" stroke="#462F8E" stroke-width="3" stroke-miterlimit="10" d="M67.2,464.6h-25c-5.5,0-10-4.5-10-10v0
		c0-5.5,4.5-10,10-10h25c5.5,0,10,4.5,10,10v0C77.2,460.1,72.7,464.6,67.2,464.6z"/>
</g>
<g>
	<g>
		<path fill="#462F8E" d="M624,325.6c2.2,0,4,1.8,4,4v151.8c0,2.2-1.8,4-4,4H412.3c-2.2,0-4-1.8-4-4V329.6c0-2.2,1.8-4,4-4H624
			 M624,321.6H412.3c-4.4,0-8,3.6-8,8v151.8c0,4.4,3.6,8,8,8H624c4.4,0,8-3.6,8-8V329.6C632,325.2,628.4,321.6,624,321.6L624,321.6z
			"/>
	</g>
	<path fill="#462F8E" d="M629.1,353.9h-222v-24.7c0-3,2.4-5.3,5.3-5.3h211.3c3,0,5.3,2.4,5.3,5.3V353.9z"/>
	<line fill="none" stroke="#462F8E" stroke-width="6" stroke-miterlimit="10" x1="430.5" y1="381" x2="510.3" y2="381"/>
	<line fill="none" stroke="#462F8E" stroke-width="3" stroke-miterlimit="10" x1="430.5" y1="406" x2="580.4" y2="406"/>
	<circle fill="none" stroke="#462F8E" stroke-width="3" stroke-miterlimit="10" cx="595.6" cy="454.6" r="10"/>
	<path fill="none" stroke="#462F8E" stroke-width="3" stroke-miterlimit="10" d="M466.5,464.6h-25c-5.5,0-10-4.5-10-10v0
		c0-5.5,4.5-10,10-10h25c5.5,0,10,4.5,10,10v0C476.5,460.1,472,464.6,466.5,464.6z"/>
</g>
<path fill="none" stroke="#462F8E" stroke-width="4" stroke-linecap="round" stroke-linejoin="round" stroke-miterlimit="10" d="
	M629.4,246.2H365.7"/>
<polyline fill="none" stroke="#462F8E" stroke-width="6" stroke-linecap="round" stroke-linejoin="round" stroke-miterlimit="10" points="
	333.9,234.7 316.3,255.7 307.3,245.7 "/>
</svg>
