<?xml version="1.0" encoding="utf-8"?>
<!-- Generator: Adobe Illustrator 18.1.0, SVG Export Plug-In . SVG Version: 6.00 Build 0)  -->
<svg version="1.1" id="Layer_1" xmlns="http://www.w3.org/2000/svg" xmlns:xlink="http://www.w3.org/1999/xlink" x="0px" y="0px"
	 viewBox="0 0 1000 737" enable-background="new 0 0 1000 737" xml:space="preserve">
<g>
	<line fill="none" stroke="#431A94" stroke-width="4" stroke-miterlimit="10" x1="497" y1="415.3" x2="497" y2="500.2"/>
	<path fill="none" stroke="#431A94" stroke-width="4" stroke-linecap="round" stroke-linejoin="round" stroke-miterlimit="10" d="
		M698.3,569.7v-67.9l0,0c0-1.1-0.9-1.9-1.9-1.9H300c-1.1,0-1.9,0.9-1.9,1.9l0,0v67.9"/>
	<g>
		<g>
			<path fill="#431A94" d="M604.9,252c2.2,0,4,1.8,4,4v151.8c0,2.2-1.8,4-4,4H393.2c-2.2,0-4-1.8-4-4V256c0-2.2,1.8-4,4-4H604.9
				 M604.9,248H393.2c-4.4,0-8,3.6-8,8v151.8c0,4.4,3.6,8,8,8h211.7c4.4,0,8-3.6,8-8V256C612.9,251.6,609.3,248,604.9,248L604.9,248
				z"/>
		</g>
		<path fill="#431A94" d="M609,280.2H387v-24.7c0-3,2.4-5.3,5.3-5.3h211.3c3,0,5.3,2.4,5.3,5.3V280.2z"/>
		<line fill="none" stroke="#431B94" stroke-width="6" stroke-miterlimit="10" x1="411.4" y1="307.3" x2="491.2" y2="307.3"/>
		<line fill="none" stroke="#431B94" stroke-width="3" stroke-miterlimit="10" x1="411.4" y1="332.4" x2="561.2" y2="332.4"/>
		<circle fill="none" stroke="#431B94" stroke-width="3" stroke-miterlimit="10" cx="576.5" cy="381" r="10"/>
		<path fill="none" stroke="#431B94" stroke-width="3" stroke-miterlimit="10" d="M447.4,391h-25c-5.5,0-10-4.5-10-10l0,0
			c0-5.5,4.5-10,10-10h25c5.5,0,10,4.5,10,10l0,0C457.4,386.5,452.9,391,447.4,391z"/>
	</g>
	<g>
		<g>
			<path fill="#431A94" d="M404.7,572.2c2.2,0,4,1.8,4,4V728c0,2.2-1.8,4-4,4H193c-2.2,0-4-1.8-4-4V576.2c0-2.2,1.8-4,4-4H404.7
				 M404.7,568.2H193c-4.4,0-8,3.6-8,8V728c0,4.4,3.6,8,8,8h211.7c4.4,0,8-3.6,8-8V576.2C412.7,571.8,409.1,568.2,404.7,568.2
				L404.7,568.2z"/>
		</g>
		<path fill="#431A94" d="M408.9,600.5h-222v-24.7c0-3,2.4-5.3,5.3-5.3h211.3c3,0,5.3,2.4,5.3,5.3V600.5z"/>
		<line fill="none" stroke="#431B94" stroke-width="6" stroke-miterlimit="10" x1="211.3" y1="627.6" x2="291" y2="627.6"/>
		<line fill="none" stroke="#431B94" stroke-width="3" stroke-miterlimit="10" x1="211.3" y1="652.6" x2="361.1" y2="652.6"/>
		<circle fill="none" stroke="#431B94" stroke-width="3" stroke-miterlimit="10" cx="376.3" cy="701.3" r="10"/>
		<path fill="none" stroke="#431B94" stroke-width="3" stroke-miterlimit="10" d="M247.2,711.3h-25c-5.5,0-10-4.5-10-10l0,0
			c0-5.5,4.5-10,10-10h25c5.5,0,10,4.5,10,10l0,0C257.2,706.8,252.7,711.3,247.2,711.3z"/>
	</g>
	<g>
		<g>
			<path fill="#431A94" d="M805,572.2c2.2,0,4,1.8,4,4V728c0,2.2-1.8,4-4,4H593.3c-2.2,0-4-1.8-4-4V576.2c0-2.2,1.8-4,4-4H805
				 M805,568.2H593.3c-4.4,0-8,3.6-8,8V728c0,4.4,3.6,8,8,8H805c4.4,0,8-3.6,8-8V576.2C813,571.8,809.4,568.2,805,568.2L805,568.2z"
				/>
		</g>
		<path fill="#431A94" d="M809.2,600.5h-222v-24.7c0-3,2.4-5.3,5.3-5.3h211.3c3,0,5.3,2.4,5.3,5.3V600.5z"/>
		<line fill="none" stroke="#431B94" stroke-width="6" stroke-miterlimit="10" x1="611.6" y1="627.6" x2="691.4" y2="627.6"/>
		<line fill="none" stroke="#431B94" stroke-width="3" stroke-miterlimit="10" x1="611.6" y1="652.6" x2="761.4" y2="652.6"/>
		<circle fill="none" stroke="#431B94" stroke-width="3" stroke-miterlimit="10" cx="776.7" cy="701.3" r="10"/>
		<path fill="none" stroke="#431B94" stroke-width="3" stroke-miterlimit="10" d="M647.5,711.3h-25c-5.5,0-10-4.5-10-10l0,0
			c0-5.5,4.5-10,10-10h25c5.5,0,10,4.5,10,10l0,0C657.5,706.8,653,711.3,647.5,711.3z"/>
	</g>
</g>
</svg>
