<?xml version="1.0" encoding="utf-8"?>
<!-- Generator: Adobe Illustrator 18.1.0, SVG Export Plug-In . SVG Version: 6.00 Build 0)  -->
<svg version="1.1" id="Layer_1" xmlns="http://www.w3.org/2000/svg" xmlns:xlink="http://www.w3.org/1999/xlink" x="0px" y="0px"
	 viewBox="20 -20.7 56.7 56.7" enable-background="new 20 -20.7 56.7 56.7" xml:space="preserve">
<path fill="none" stroke="#FFFFFF" stroke-width="1.9377" stroke-miterlimit="10" d="M75.2-6c-1.9,0.8-4,1.4-6.1,1.7
	c2.2-1.3,3.9-3.4,4.7-5.9C71.7-9,69.4-8.1,67-7.6C65-9.7,62.3-11,59.2-11c-5.9,0-10.6,4.8-10.6,10.6c0,0.8,0.1,1.6,0.3,2.4
	C40,1.6,32.2-2.6,26.9-9c-0.9,1.6-1.4,3.4-1.4,5.3c0,3.7,1.9,6.9,4.7,8.8c-1.7-0.1-3.4-0.5-4.8-1.3c0,0,0,0.1,0,0.1
	c0,5.2,3.7,9.5,8.5,10.4c-0.9,0.2-1.8,0.4-2.8,0.4c-0.7,0-1.4-0.1-2-0.2c1.4,4.2,5.3,7.3,9.9,7.4c-3.6,2.9-8.2,4.6-13.2,4.6
	c-0.9,0-1.7,0-2.5-0.1c4.7,3,10.3,4.8,16.3,4.8c19.6,0,30.3-16.2,30.3-30.3c0-0.5,0-0.9,0-1.4C71.9-2,73.7-3.9,75.2-6z"/>
</svg>
